G04 #@! TF.GenerationSoftware,KiCad,Pcbnew,10.0.2*
G04 #@! TF.CreationDate,2026-05-16T16:53:46+02:00*
G04 #@! TF.ProjectId,wchlink,7763686c-696e-46b2-9e6b-696361645f70,rev?*
G04 #@! TF.SameCoordinates,Original*
G04 #@! TF.FileFunction,Copper,L2,Bot*
G04 #@! TF.FilePolarity,Positive*
%FSLAX46Y46*%
G04 Gerber Fmt 4.6, Leading zero omitted, Abs format (unit mm)*
G04 Created by KiCad (PCBNEW 10.0.2) date 2026-05-16 16:53:46*
%MOMM*%
%LPD*%
G01*
G04 APERTURE LIST*
G04 #@! TA.AperFunction,ComponentPad*
%ADD10R,1.000000X1.000000*%
G04 #@! TD*
G04 #@! TA.AperFunction,ComponentPad*
%ADD11C,1.000000*%
G04 #@! TD*
G04 #@! TA.AperFunction,ComponentPad*
%ADD12R,1.700000X1.700000*%
G04 #@! TD*
G04 #@! TA.AperFunction,ComponentPad*
%ADD13C,1.700000*%
G04 #@! TD*
G04 #@! TA.AperFunction,ViaPad*
%ADD14C,0.800000*%
G04 #@! TD*
G04 #@! TA.AperFunction,Conductor*
%ADD15C,0.250000*%
G04 #@! TD*
G04 APERTURE END LIST*
D10*
X106680000Y-86360000D03*
D11*
X105410000Y-86360000D03*
X106680000Y-85090000D03*
X105410000Y-85090000D03*
X106680000Y-83820000D03*
X105410000Y-83820000D03*
X106680000Y-82550000D03*
X105410000Y-82550000D03*
X106680000Y-81280000D03*
X105410000Y-81280000D03*
D12*
X97790000Y-92710000D03*
D13*
X100330000Y-92710000D03*
D12*
X98315000Y-74405000D03*
D13*
X100855000Y-74405000D03*
X103395000Y-74405000D03*
X105935000Y-74405000D03*
D12*
X107738163Y-92710000D03*
D13*
X105198163Y-92710000D03*
D12*
X99060000Y-88900000D03*
D13*
X96520000Y-88900000D03*
X99060000Y-86360000D03*
X96520000Y-86360000D03*
X99060000Y-83820000D03*
X96520000Y-83820000D03*
X99060000Y-81280000D03*
X96520000Y-81280000D03*
X99060000Y-78740000D03*
X96520000Y-78740000D03*
D14*
X100965000Y-86360000D03*
X100965000Y-81280000D03*
X99695000Y-73025000D03*
X103505000Y-78740000D03*
X103505000Y-85090000D03*
X97790000Y-82550000D03*
X104230000Y-81280000D03*
X104140000Y-90805000D03*
X96520000Y-94615000D03*
X105410000Y-88265000D03*
X102235000Y-88265000D03*
X97790000Y-77470000D03*
X102235000Y-77470000D03*
X100965000Y-80010000D03*
X96520000Y-76200000D03*
D15*
X100965000Y-81280000D02*
X100965000Y-86360000D01*
X107505000Y-83375000D02*
X107505000Y-84265000D01*
X106680000Y-80645000D02*
X105935000Y-79900000D01*
X100240000Y-82640000D02*
X100240000Y-75451701D01*
X100240000Y-75451701D02*
X99680000Y-74891701D01*
X105935000Y-79900000D02*
X105935000Y-74405000D01*
X106680000Y-81280000D02*
X106680000Y-82550000D01*
X107505000Y-84265000D02*
X106680000Y-85090000D01*
X106680000Y-81280000D02*
X106680000Y-80645000D01*
X106680000Y-82550000D02*
X107505000Y-83375000D01*
X99680000Y-74891701D02*
X99680000Y-73040000D01*
X99060000Y-83820000D02*
X100240000Y-82640000D01*
X99680000Y-73040000D02*
X99695000Y-73025000D01*
X103505000Y-78740000D02*
X103505000Y-85090000D01*
X97790000Y-82550000D02*
X97790000Y-85090000D01*
X97790000Y-85090000D02*
X96520000Y-86360000D01*
X104230000Y-81280000D02*
X104230000Y-90715000D01*
X104230000Y-90715000D02*
X104140000Y-90805000D01*
X96520000Y-88900000D02*
X96520000Y-94615000D01*
X105198163Y-88476837D02*
X105410000Y-88265000D01*
X105198163Y-92710000D02*
X105198163Y-88476837D01*
X97790000Y-76200000D02*
X98315000Y-75675000D01*
X97790000Y-77470000D02*
X97790000Y-76200000D01*
X98315000Y-75675000D02*
X98315000Y-74405000D01*
X102235000Y-88265000D02*
X102235000Y-77470000D01*
X100965000Y-80010000D02*
X100855000Y-79900000D01*
X100855000Y-79900000D02*
X100855000Y-74405000D01*
X96520000Y-78740000D02*
X96520000Y-76200000D01*
G04 #@! TA.AperFunction,Conductor*
G36*
X105173282Y-75520269D02*
G01*
X105173282Y-75520270D01*
X105227449Y-75559624D01*
X105416782Y-75656095D01*
X105618870Y-75721757D01*
X105828754Y-75755000D01*
X106041246Y-75755000D01*
X106251127Y-75721757D01*
X106251130Y-75721757D01*
X106453217Y-75656095D01*
X106642554Y-75559622D01*
X106696716Y-75520270D01*
X106696717Y-75520270D01*
X106106446Y-74930000D01*
X106813553Y-74930000D01*
X107050270Y-75166717D01*
X107050270Y-75166716D01*
X107089622Y-75112554D01*
X107148141Y-74997705D01*
X107196115Y-74946909D01*
X107258626Y-74930000D01*
X110265500Y-74930000D01*
X110332539Y-74949685D01*
X110378294Y-75002489D01*
X110389500Y-75054000D01*
X110389500Y-92586000D01*
X110369815Y-92653039D01*
X110317011Y-92698794D01*
X110265500Y-92710000D01*
X109220663Y-92710000D01*
X109153624Y-92690315D01*
X109107869Y-92637511D01*
X109096663Y-92586000D01*
X109096663Y-91811362D01*
X109096662Y-91811345D01*
X109091743Y-91765600D01*
X109090152Y-91750799D01*
X109086698Y-91741539D01*
X109061430Y-91673793D01*
X109039052Y-91613796D01*
X108951424Y-91496739D01*
X108834367Y-91409111D01*
X108697366Y-91358011D01*
X108636817Y-91351500D01*
X108636801Y-91351500D01*
X106839525Y-91351500D01*
X106839508Y-91351500D01*
X106778960Y-91358011D01*
X106778958Y-91358011D01*
X106641958Y-91409111D01*
X106524902Y-91496739D01*
X106437274Y-91613795D01*
X106392206Y-91734625D01*
X106350334Y-91790558D01*
X106284870Y-91814974D01*
X106216597Y-91800122D01*
X106188344Y-91778971D01*
X106083169Y-91673796D01*
X106083167Y-91673794D01*
X105910172Y-91548106D01*
X105910171Y-91548105D01*
X105910169Y-91548104D01*
X105899367Y-91542600D01*
X105848571Y-91494625D01*
X105831663Y-91432116D01*
X105831663Y-89142176D01*
X105851348Y-89075137D01*
X105886770Y-89039075D01*
X105989135Y-88970678D01*
X106115678Y-88844135D01*
X106215102Y-88695336D01*
X106283587Y-88530000D01*
X106318500Y-88354479D01*
X106318500Y-88175521D01*
X106283587Y-88000000D01*
X106215102Y-87834664D01*
X106215100Y-87834661D01*
X106215098Y-87834657D01*
X106115678Y-87685865D01*
X106115675Y-87685861D01*
X106006738Y-87576924D01*
X105973253Y-87515601D01*
X105978237Y-87445909D01*
X106020109Y-87389976D01*
X106085573Y-87365559D01*
X106107675Y-87365954D01*
X106131345Y-87368499D01*
X106131362Y-87368500D01*
X107228638Y-87368500D01*
X107228654Y-87368499D01*
X107255994Y-87365559D01*
X107289201Y-87361989D01*
X107426204Y-87310889D01*
X107543261Y-87223261D01*
X107630889Y-87106204D01*
X107681989Y-86969201D01*
X107685591Y-86935692D01*
X107688499Y-86908654D01*
X107688500Y-86908637D01*
X107688500Y-85811362D01*
X107688499Y-85811345D01*
X107683065Y-85760809D01*
X107681989Y-85750799D01*
X107630889Y-85613796D01*
X107630887Y-85613793D01*
X107618187Y-85596827D01*
X107593770Y-85531363D01*
X107602893Y-85475064D01*
X107641570Y-85381689D01*
X107641572Y-85381681D01*
X107679999Y-85188495D01*
X107680000Y-85188492D01*
X107680000Y-84991508D01*
X107679999Y-84991504D01*
X107641572Y-84798318D01*
X107641569Y-84798306D01*
X107566192Y-84616328D01*
X107509538Y-84531541D01*
X107488660Y-84464863D01*
X107507144Y-84397483D01*
X107509480Y-84393846D01*
X107573721Y-84297704D01*
X107649744Y-84114169D01*
X107688500Y-83919329D01*
X107688500Y-83720671D01*
X107649744Y-83525831D01*
X107573721Y-83342296D01*
X107509537Y-83246238D01*
X107488660Y-83179564D01*
X107507144Y-83112184D01*
X107509539Y-83108458D01*
X107566189Y-83023676D01*
X107566191Y-83023673D01*
X107641569Y-82841693D01*
X107641572Y-82841681D01*
X107679999Y-82648495D01*
X107680000Y-82648492D01*
X107680000Y-82451508D01*
X107679999Y-82451504D01*
X107641572Y-82258318D01*
X107641569Y-82258306D01*
X107566192Y-82076328D01*
X107542571Y-82040978D01*
X107005000Y-82578551D01*
X107005000Y-82507213D01*
X106982851Y-82424555D01*
X106940064Y-82350446D01*
X106879554Y-82289936D01*
X106805445Y-82247149D01*
X106722787Y-82225000D01*
X106637213Y-82225000D01*
X106554555Y-82247149D01*
X106480446Y-82289936D01*
X106419936Y-82350446D01*
X106404040Y-82377977D01*
X106391753Y-82316206D01*
X106379744Y-82255831D01*
X106363999Y-82217820D01*
X106356531Y-82148354D01*
X106387805Y-82085875D01*
X106447894Y-82050222D01*
X106517719Y-82052715D01*
X106566242Y-82082688D01*
X106680000Y-82196446D01*
X106961446Y-81915001D01*
X106961446Y-81914999D01*
X106680001Y-81633553D01*
X106566242Y-81747311D01*
X106504919Y-81780795D01*
X106435227Y-81775811D01*
X106379294Y-81733939D01*
X106354877Y-81668475D01*
X106364000Y-81612176D01*
X106379744Y-81574169D01*
X106404040Y-81452022D01*
X106419936Y-81479554D01*
X106480446Y-81540064D01*
X106554555Y-81582851D01*
X106637213Y-81605000D01*
X106722787Y-81605000D01*
X106805445Y-81582851D01*
X106879554Y-81540064D01*
X106940064Y-81479554D01*
X106982851Y-81405445D01*
X107005000Y-81322787D01*
X107005000Y-81279999D01*
X107033553Y-81279999D01*
X107033553Y-81280000D01*
X107542571Y-81789019D01*
X107542573Y-81789019D01*
X107566187Y-81753680D01*
X107566190Y-81753676D01*
X107641569Y-81571693D01*
X107641572Y-81571681D01*
X107679999Y-81378495D01*
X107680000Y-81378492D01*
X107680000Y-81181508D01*
X107679999Y-81181504D01*
X107641572Y-80988318D01*
X107641569Y-80988306D01*
X107566192Y-80806328D01*
X107542572Y-80770979D01*
X107033553Y-81279999D01*
X107005000Y-81279999D01*
X107005000Y-81237213D01*
X106982851Y-81154555D01*
X106940064Y-81080446D01*
X106879554Y-81019936D01*
X106805445Y-80977149D01*
X106722787Y-80955000D01*
X106651446Y-80955000D01*
X107189019Y-80417426D01*
X107153675Y-80393809D01*
X107153673Y-80393808D01*
X106971693Y-80318430D01*
X106971681Y-80318427D01*
X106778495Y-80280000D01*
X106581504Y-80280000D01*
X106388318Y-80318427D01*
X106388306Y-80318430D01*
X106206328Y-80393807D01*
X106206315Y-80393814D01*
X106121540Y-80450460D01*
X106054862Y-80471338D01*
X105987482Y-80452853D01*
X105983758Y-80450460D01*
X105887710Y-80386282D01*
X105887701Y-80386277D01*
X105704169Y-80310256D01*
X105704161Y-80310254D01*
X105509333Y-80271500D01*
X105509329Y-80271500D01*
X105310671Y-80271500D01*
X105310666Y-80271500D01*
X105115838Y-80310254D01*
X105115830Y-80310256D01*
X104932298Y-80386277D01*
X104932289Y-80386282D01*
X104798893Y-80475416D01*
X104732216Y-80496294D01*
X104664835Y-80477810D01*
X104661111Y-80475416D01*
X104660336Y-80474898D01*
X104660335Y-80474897D01*
X104660333Y-80474896D01*
X104495000Y-80406413D01*
X104494992Y-80406411D01*
X104319483Y-80371500D01*
X104319479Y-80371500D01*
X104262500Y-80371500D01*
X104195461Y-80351815D01*
X104149706Y-80299011D01*
X104138500Y-80247500D01*
X104138500Y-79442675D01*
X104158185Y-79375636D01*
X104174820Y-79354993D01*
X104210675Y-79319138D01*
X104210678Y-79319135D01*
X104310102Y-79170336D01*
X104378587Y-79005000D01*
X104413500Y-78829479D01*
X104413500Y-78650521D01*
X104378587Y-78475000D01*
X104310102Y-78309664D01*
X104310100Y-78309661D01*
X104310098Y-78309657D01*
X104210678Y-78160865D01*
X104210675Y-78160861D01*
X104084138Y-78034324D01*
X104084134Y-78034321D01*
X103935342Y-77934901D01*
X103935332Y-77934896D01*
X103770000Y-77866413D01*
X103769992Y-77866411D01*
X103594483Y-77831500D01*
X103594479Y-77831500D01*
X103415521Y-77831500D01*
X103415516Y-77831500D01*
X103257969Y-77862838D01*
X103188377Y-77856611D01*
X103133200Y-77813747D01*
X103109956Y-77747858D01*
X103112160Y-77717033D01*
X103143500Y-77559479D01*
X103143500Y-77380521D01*
X103108587Y-77205000D01*
X103040102Y-77039664D01*
X103040100Y-77039661D01*
X103040098Y-77039657D01*
X102940678Y-76890865D01*
X102940675Y-76890861D01*
X102814138Y-76764324D01*
X102814134Y-76764321D01*
X102665342Y-76664901D01*
X102665332Y-76664896D01*
X102500000Y-76596413D01*
X102499992Y-76596411D01*
X102324483Y-76561500D01*
X102324479Y-76561500D01*
X102145521Y-76561500D01*
X102145516Y-76561500D01*
X101970007Y-76596411D01*
X101969999Y-76596413D01*
X101804667Y-76664896D01*
X101804652Y-76664904D01*
X101681390Y-76747265D01*
X101614713Y-76768143D01*
X101547333Y-76749658D01*
X101500643Y-76697679D01*
X101488500Y-76644163D01*
X101488500Y-75682883D01*
X101508185Y-75615844D01*
X101556204Y-75572398D01*
X101567009Y-75566894D01*
X101740004Y-75441206D01*
X101891206Y-75290004D01*
X102016894Y-75117009D01*
X102016896Y-75117004D01*
X102019270Y-75113132D01*
X102071080Y-75066254D01*
X102140009Y-75054829D01*
X102204173Y-75082483D01*
X102230730Y-75113132D01*
X102233103Y-75117005D01*
X102233106Y-75117009D01*
X102358794Y-75290004D01*
X102509996Y-75441206D01*
X102682991Y-75566894D01*
X102761499Y-75606896D01*
X102873516Y-75663972D01*
X102873519Y-75663973D01*
X102975200Y-75697010D01*
X103076884Y-75730049D01*
X103288084Y-75763500D01*
X103288085Y-75763500D01*
X103501915Y-75763500D01*
X103501916Y-75763500D01*
X103713116Y-75730049D01*
X103916483Y-75663972D01*
X104107009Y-75566894D01*
X104280004Y-75441206D01*
X104431206Y-75290004D01*
X104556894Y-75117009D01*
X104559283Y-75112319D01*
X104607254Y-75061522D01*
X104675074Y-75044724D01*
X104741210Y-75067258D01*
X104777196Y-75108783D01*
X104777829Y-75108396D01*
X104780167Y-75112211D01*
X104780251Y-75112308D01*
X104780371Y-75112545D01*
X104780373Y-75112547D01*
X104819728Y-75166716D01*
X105056444Y-74930000D01*
X105763553Y-74930000D01*
X105173282Y-75520269D01*
G37*
G04 #@! TD.AperFunction*
G04 #@! TA.AperFunction,Conductor*
G36*
X100175269Y-84581716D02*
G01*
X100197771Y-84579946D01*
X100266148Y-84594310D01*
X100315905Y-84643361D01*
X100331500Y-84703564D01*
X100331500Y-85417218D01*
X100311815Y-85484257D01*
X100259011Y-85530012D01*
X100189853Y-85539956D01*
X100126297Y-85510931D01*
X100107184Y-85490107D01*
X100096206Y-85474996D01*
X99945004Y-85323794D01*
X99772009Y-85198106D01*
X99772010Y-85198106D01*
X99772008Y-85198105D01*
X99767311Y-85195712D01*
X99716517Y-85147735D01*
X99699724Y-85079914D01*
X99722264Y-85013780D01*
X99763790Y-84977801D01*
X99763402Y-84977168D01*
X99767229Y-84974822D01*
X99767327Y-84974738D01*
X99767556Y-84974621D01*
X99821716Y-84935270D01*
X99821717Y-84935270D01*
X99189409Y-84302962D01*
X99252993Y-84285925D01*
X99367007Y-84220099D01*
X99460099Y-84127007D01*
X99525925Y-84012993D01*
X99542962Y-83949408D01*
X100175269Y-84581716D01*
G37*
G04 #@! TD.AperFunction*
G04 #@! TA.AperFunction,Conductor*
G36*
X100293918Y-82133855D02*
G01*
X100328277Y-82194693D01*
X100331500Y-82222781D01*
X100331500Y-82936435D01*
X100311815Y-83003474D01*
X100259011Y-83049229D01*
X100197771Y-83060053D01*
X100175269Y-83058282D01*
X99542962Y-83690590D01*
X99525925Y-83627007D01*
X99460099Y-83512993D01*
X99367007Y-83419901D01*
X99252993Y-83354075D01*
X99189407Y-83337036D01*
X99821716Y-82704728D01*
X99767547Y-82665373D01*
X99767545Y-82665371D01*
X99767308Y-82665251D01*
X99767234Y-82665181D01*
X99763396Y-82662829D01*
X99763890Y-82662022D01*
X99716515Y-82617274D01*
X99699724Y-82549451D01*
X99722266Y-82483318D01*
X99767319Y-82444283D01*
X99772009Y-82441894D01*
X99945004Y-82316206D01*
X100096206Y-82165004D01*
X100107182Y-82149896D01*
X100162509Y-82107231D01*
X100232123Y-82101250D01*
X100293918Y-82133855D01*
G37*
G04 #@! TD.AperFunction*
G04 #@! TA.AperFunction,Conductor*
G36*
X99836564Y-75314877D02*
G01*
X99864818Y-75336028D01*
X99969996Y-75441206D01*
X100142991Y-75566894D01*
X100153794Y-75572398D01*
X100204590Y-75620371D01*
X100221500Y-75682883D01*
X100221500Y-77680928D01*
X100201815Y-77747967D01*
X100149011Y-77793722D01*
X100079853Y-77803666D01*
X100016297Y-77774641D01*
X100009819Y-77768609D01*
X99945006Y-77703796D01*
X99945004Y-77703794D01*
X99772009Y-77578106D01*
X99761203Y-77572600D01*
X99581483Y-77481027D01*
X99581480Y-77481026D01*
X99378117Y-77414951D01*
X99272516Y-77398225D01*
X99166916Y-77381500D01*
X98953084Y-77381500D01*
X98892469Y-77391100D01*
X98824220Y-77401910D01*
X98754926Y-77392955D01*
X98701474Y-77347959D01*
X98683205Y-77303631D01*
X98663587Y-77205000D01*
X98595102Y-77039664D01*
X98595100Y-77039661D01*
X98595098Y-77039657D01*
X98495678Y-76890865D01*
X98495675Y-76890861D01*
X98459819Y-76855005D01*
X98426334Y-76793682D01*
X98423500Y-76767324D01*
X98423500Y-76513766D01*
X98443185Y-76446727D01*
X98459819Y-76426085D01*
X98807068Y-76078836D01*
X98807071Y-76078833D01*
X98876400Y-75975075D01*
X98924155Y-75859785D01*
X98924156Y-75859775D01*
X98925924Y-75853953D01*
X98928012Y-75854586D01*
X98955855Y-75801381D01*
X99016577Y-75766818D01*
X99045072Y-75763500D01*
X99213638Y-75763500D01*
X99213654Y-75763499D01*
X99240692Y-75760591D01*
X99274201Y-75756989D01*
X99411204Y-75705889D01*
X99528261Y-75618261D01*
X99615889Y-75501204D01*
X99660957Y-75380371D01*
X99702827Y-75324442D01*
X99768291Y-75300025D01*
X99836564Y-75314877D01*
G37*
G04 #@! TD.AperFunction*
M02*
