G04 #@! TF.GenerationSoftware,KiCad,Pcbnew,10.0.2*
G04 #@! TF.CreationDate,2026-05-16T16:53:46+02:00*
G04 #@! TF.ProjectId,wchlink,7763686c-696e-46b2-9e6b-696361645f70,rev?*
G04 #@! TF.SameCoordinates,Original*
G04 #@! TF.FileFunction,Legend,Top*
G04 #@! TF.FilePolarity,Positive*
%FSLAX46Y46*%
G04 Gerber Fmt 4.6, Leading zero omitted, Abs format (unit mm)*
G04 Created by KiCad (PCBNEW 10.0.2) date 2026-05-16 16:53:46*
%MOMM*%
%LPD*%
G01*
G04 APERTURE LIST*
%ADD10C,0.150000*%
%ADD11C,0.120000*%
G04 APERTURE END LIST*
D10*
X97970714Y-90705414D02*
X97720714Y-90348271D01*
X97542143Y-90705414D02*
X97542143Y-89955414D01*
X97542143Y-89955414D02*
X97827857Y-89955414D01*
X97827857Y-89955414D02*
X97899286Y-89991128D01*
X97899286Y-89991128D02*
X97935000Y-90026842D01*
X97935000Y-90026842D02*
X97970714Y-90098271D01*
X97970714Y-90098271D02*
X97970714Y-90205414D01*
X97970714Y-90205414D02*
X97935000Y-90276842D01*
X97935000Y-90276842D02*
X97899286Y-90312557D01*
X97899286Y-90312557D02*
X97827857Y-90348271D01*
X97827857Y-90348271D02*
X97542143Y-90348271D01*
X98292143Y-90312557D02*
X98542143Y-90312557D01*
X98649286Y-90705414D02*
X98292143Y-90705414D01*
X98292143Y-90705414D02*
X98292143Y-89955414D01*
X98292143Y-89955414D02*
X98649286Y-89955414D01*
X98935000Y-90669700D02*
X99042143Y-90705414D01*
X99042143Y-90705414D02*
X99220714Y-90705414D01*
X99220714Y-90705414D02*
X99292143Y-90669700D01*
X99292143Y-90669700D02*
X99327857Y-90633985D01*
X99327857Y-90633985D02*
X99363571Y-90562557D01*
X99363571Y-90562557D02*
X99363571Y-90491128D01*
X99363571Y-90491128D02*
X99327857Y-90419700D01*
X99327857Y-90419700D02*
X99292143Y-90383985D01*
X99292143Y-90383985D02*
X99220714Y-90348271D01*
X99220714Y-90348271D02*
X99077857Y-90312557D01*
X99077857Y-90312557D02*
X99006428Y-90276842D01*
X99006428Y-90276842D02*
X98970714Y-90241128D01*
X98970714Y-90241128D02*
X98935000Y-90169700D01*
X98935000Y-90169700D02*
X98935000Y-90098271D01*
X98935000Y-90098271D02*
X98970714Y-90026842D01*
X98970714Y-90026842D02*
X99006428Y-89991128D01*
X99006428Y-89991128D02*
X99077857Y-89955414D01*
X99077857Y-89955414D02*
X99256428Y-89955414D01*
X99256428Y-89955414D02*
X99363571Y-89991128D01*
X99685000Y-90312557D02*
X99935000Y-90312557D01*
X100042143Y-90705414D02*
X99685000Y-90705414D01*
X99685000Y-90705414D02*
X99685000Y-89955414D01*
X99685000Y-89955414D02*
X100042143Y-89955414D01*
X100256428Y-89955414D02*
X100685000Y-89955414D01*
X100470714Y-90705414D02*
X100470714Y-89955414D01*
X104058254Y-78636854D02*
X107868254Y-78636854D01*
X107868254Y-88796854D01*
X104058254Y-88796854D01*
X104058254Y-78636854D01*
G36*
X104058254Y-78636854D02*
G01*
X107868254Y-78636854D01*
X107868254Y-88796854D01*
X104058254Y-88796854D01*
X104058254Y-78636854D01*
G37*
X107868254Y-82446854D02*
X109773254Y-82446854D01*
X109773254Y-84986854D01*
X107868254Y-84986854D01*
X107868254Y-82446854D01*
G36*
X107868254Y-82446854D02*
G01*
X109773254Y-82446854D01*
X109773254Y-84986854D01*
X107868254Y-84986854D01*
X107868254Y-82446854D01*
G37*
X104947857Y-90705414D02*
X104947857Y-89955414D01*
X104947857Y-89955414D02*
X105233571Y-89955414D01*
X105233571Y-89955414D02*
X105305000Y-89991128D01*
X105305000Y-89991128D02*
X105340714Y-90026842D01*
X105340714Y-90026842D02*
X105376428Y-90098271D01*
X105376428Y-90098271D02*
X105376428Y-90205414D01*
X105376428Y-90205414D02*
X105340714Y-90276842D01*
X105340714Y-90276842D02*
X105305000Y-90312557D01*
X105305000Y-90312557D02*
X105233571Y-90348271D01*
X105233571Y-90348271D02*
X104947857Y-90348271D01*
X105840714Y-89955414D02*
X105983571Y-89955414D01*
X105983571Y-89955414D02*
X106055000Y-89991128D01*
X106055000Y-89991128D02*
X106126428Y-90062557D01*
X106126428Y-90062557D02*
X106162143Y-90205414D01*
X106162143Y-90205414D02*
X106162143Y-90455414D01*
X106162143Y-90455414D02*
X106126428Y-90598271D01*
X106126428Y-90598271D02*
X106055000Y-90669700D01*
X106055000Y-90669700D02*
X105983571Y-90705414D01*
X105983571Y-90705414D02*
X105840714Y-90705414D01*
X105840714Y-90705414D02*
X105769286Y-90669700D01*
X105769286Y-90669700D02*
X105697857Y-90598271D01*
X105697857Y-90598271D02*
X105662143Y-90455414D01*
X105662143Y-90455414D02*
X105662143Y-90205414D01*
X105662143Y-90205414D02*
X105697857Y-90062557D01*
X105697857Y-90062557D02*
X105769286Y-89991128D01*
X105769286Y-89991128D02*
X105840714Y-89955414D01*
X106412142Y-89955414D02*
X106590714Y-90705414D01*
X106590714Y-90705414D02*
X106733571Y-90169700D01*
X106733571Y-90169700D02*
X106876428Y-90705414D01*
X106876428Y-90705414D02*
X107055000Y-89955414D01*
X107340714Y-90312557D02*
X107590714Y-90312557D01*
X107697857Y-90705414D02*
X107340714Y-90705414D01*
X107340714Y-90705414D02*
X107340714Y-89955414D01*
X107340714Y-89955414D02*
X107697857Y-89955414D01*
X108447856Y-90705414D02*
X108197856Y-90348271D01*
X108019285Y-90705414D02*
X108019285Y-89955414D01*
X108019285Y-89955414D02*
X108304999Y-89955414D01*
X108304999Y-89955414D02*
X108376428Y-89991128D01*
X108376428Y-89991128D02*
X108412142Y-90026842D01*
X108412142Y-90026842D02*
X108447856Y-90098271D01*
X108447856Y-90098271D02*
X108447856Y-90205414D01*
X108447856Y-90205414D02*
X108412142Y-90276842D01*
X108412142Y-90276842D02*
X108376428Y-90312557D01*
X108376428Y-90312557D02*
X108304999Y-90348271D01*
X108304999Y-90348271D02*
X108019285Y-90348271D01*
X97496428Y-76227914D02*
X97960714Y-76227914D01*
X97960714Y-76227914D02*
X97710714Y-76513628D01*
X97710714Y-76513628D02*
X97817857Y-76513628D01*
X97817857Y-76513628D02*
X97889286Y-76549342D01*
X97889286Y-76549342D02*
X97925000Y-76585057D01*
X97925000Y-76585057D02*
X97960714Y-76656485D01*
X97960714Y-76656485D02*
X97960714Y-76835057D01*
X97960714Y-76835057D02*
X97925000Y-76906485D01*
X97925000Y-76906485D02*
X97889286Y-76942200D01*
X97889286Y-76942200D02*
X97817857Y-76977914D01*
X97817857Y-76977914D02*
X97603571Y-76977914D01*
X97603571Y-76977914D02*
X97532143Y-76942200D01*
X97532143Y-76942200D02*
X97496428Y-76906485D01*
X98175000Y-76227914D02*
X98425000Y-76977914D01*
X98425000Y-76977914D02*
X98675000Y-76227914D01*
X98853571Y-76227914D02*
X99317857Y-76227914D01*
X99317857Y-76227914D02*
X99067857Y-76513628D01*
X99067857Y-76513628D02*
X99175000Y-76513628D01*
X99175000Y-76513628D02*
X99246429Y-76549342D01*
X99246429Y-76549342D02*
X99282143Y-76585057D01*
X99282143Y-76585057D02*
X99317857Y-76656485D01*
X99317857Y-76656485D02*
X99317857Y-76835057D01*
X99317857Y-76835057D02*
X99282143Y-76906485D01*
X99282143Y-76906485D02*
X99246429Y-76942200D01*
X99246429Y-76942200D02*
X99175000Y-76977914D01*
X99175000Y-76977914D02*
X98960714Y-76977914D01*
X98960714Y-76977914D02*
X98889286Y-76942200D01*
X98889286Y-76942200D02*
X98853571Y-76906485D01*
X100393571Y-76227914D02*
X100822143Y-76227914D01*
X100607857Y-76977914D02*
X100607857Y-76227914D01*
X101000714Y-76227914D02*
X101500714Y-76977914D01*
X101500714Y-76227914D02*
X101000714Y-76977914D01*
X103379999Y-76977914D02*
X103129999Y-76620771D01*
X102951428Y-76977914D02*
X102951428Y-76227914D01*
X102951428Y-76227914D02*
X103237142Y-76227914D01*
X103237142Y-76227914D02*
X103308571Y-76263628D01*
X103308571Y-76263628D02*
X103344285Y-76299342D01*
X103344285Y-76299342D02*
X103379999Y-76370771D01*
X103379999Y-76370771D02*
X103379999Y-76477914D01*
X103379999Y-76477914D02*
X103344285Y-76549342D01*
X103344285Y-76549342D02*
X103308571Y-76585057D01*
X103308571Y-76585057D02*
X103237142Y-76620771D01*
X103237142Y-76620771D02*
X102951428Y-76620771D01*
X103629999Y-76227914D02*
X104129999Y-76977914D01*
X104129999Y-76227914D02*
X103629999Y-76977914D01*
X105473571Y-76263628D02*
X105402143Y-76227914D01*
X105402143Y-76227914D02*
X105295000Y-76227914D01*
X105295000Y-76227914D02*
X105187857Y-76263628D01*
X105187857Y-76263628D02*
X105116428Y-76335057D01*
X105116428Y-76335057D02*
X105080714Y-76406485D01*
X105080714Y-76406485D02*
X105045000Y-76549342D01*
X105045000Y-76549342D02*
X105045000Y-76656485D01*
X105045000Y-76656485D02*
X105080714Y-76799342D01*
X105080714Y-76799342D02*
X105116428Y-76870771D01*
X105116428Y-76870771D02*
X105187857Y-76942200D01*
X105187857Y-76942200D02*
X105295000Y-76977914D01*
X105295000Y-76977914D02*
X105366428Y-76977914D01*
X105366428Y-76977914D02*
X105473571Y-76942200D01*
X105473571Y-76942200D02*
X105509285Y-76906485D01*
X105509285Y-76906485D02*
X105509285Y-76656485D01*
X105509285Y-76656485D02*
X105366428Y-76656485D01*
X105830714Y-76977914D02*
X105830714Y-76227914D01*
X105830714Y-76227914D02*
X106259285Y-76977914D01*
X106259285Y-76977914D02*
X106259285Y-76227914D01*
X106616428Y-76977914D02*
X106616428Y-76227914D01*
X106616428Y-76227914D02*
X106794999Y-76227914D01*
X106794999Y-76227914D02*
X106902142Y-76263628D01*
X106902142Y-76263628D02*
X106973571Y-76335057D01*
X106973571Y-76335057D02*
X107009285Y-76406485D01*
X107009285Y-76406485D02*
X107044999Y-76549342D01*
X107044999Y-76549342D02*
X107044999Y-76656485D01*
X107044999Y-76656485D02*
X107009285Y-76799342D01*
X107009285Y-76799342D02*
X106973571Y-76870771D01*
X106973571Y-76870771D02*
X106902142Y-76942200D01*
X106902142Y-76942200D02*
X106794999Y-76977914D01*
X106794999Y-76977914D02*
X106616428Y-76977914D01*
X108089819Y-76498220D02*
X108899342Y-76498220D01*
X108899342Y-76498220D02*
X108994580Y-76450601D01*
X108994580Y-76450601D02*
X109042200Y-76402982D01*
X109042200Y-76402982D02*
X109089819Y-76307744D01*
X109089819Y-76307744D02*
X109089819Y-76117268D01*
X109089819Y-76117268D02*
X109042200Y-76022030D01*
X109042200Y-76022030D02*
X108994580Y-75974411D01*
X108994580Y-75974411D02*
X108899342Y-75926792D01*
X108899342Y-75926792D02*
X108089819Y-75926792D01*
X108804104Y-75498220D02*
X108804104Y-75022030D01*
X109089819Y-75593458D02*
X108089819Y-75260125D01*
X108089819Y-75260125D02*
X109089819Y-74926792D01*
X109089819Y-74022030D02*
X108613628Y-74355363D01*
X109089819Y-74593458D02*
X108089819Y-74593458D01*
X108089819Y-74593458D02*
X108089819Y-74212506D01*
X108089819Y-74212506D02*
X108137438Y-74117268D01*
X108137438Y-74117268D02*
X108185057Y-74069649D01*
X108185057Y-74069649D02*
X108280295Y-74022030D01*
X108280295Y-74022030D02*
X108423152Y-74022030D01*
X108423152Y-74022030D02*
X108518390Y-74069649D01*
X108518390Y-74069649D02*
X108566009Y-74117268D01*
X108566009Y-74117268D02*
X108613628Y-74212506D01*
X108613628Y-74212506D02*
X108613628Y-74593458D01*
X108089819Y-73736315D02*
X108089819Y-73164887D01*
X109089819Y-73450601D02*
X108089819Y-73450601D01*
X102780180Y-79867619D02*
X101780180Y-80105714D01*
X101780180Y-80105714D02*
X102494466Y-80296190D01*
X102494466Y-80296190D02*
X101780180Y-80486666D01*
X101780180Y-80486666D02*
X102780180Y-80724762D01*
X101875419Y-81677142D02*
X101827800Y-81629523D01*
X101827800Y-81629523D02*
X101780180Y-81486666D01*
X101780180Y-81486666D02*
X101780180Y-81391428D01*
X101780180Y-81391428D02*
X101827800Y-81248571D01*
X101827800Y-81248571D02*
X101923038Y-81153333D01*
X101923038Y-81153333D02*
X102018276Y-81105714D01*
X102018276Y-81105714D02*
X102208752Y-81058095D01*
X102208752Y-81058095D02*
X102351609Y-81058095D01*
X102351609Y-81058095D02*
X102542085Y-81105714D01*
X102542085Y-81105714D02*
X102637323Y-81153333D01*
X102637323Y-81153333D02*
X102732561Y-81248571D01*
X102732561Y-81248571D02*
X102780180Y-81391428D01*
X102780180Y-81391428D02*
X102780180Y-81486666D01*
X102780180Y-81486666D02*
X102732561Y-81629523D01*
X102732561Y-81629523D02*
X102684942Y-81677142D01*
X101780180Y-82105714D02*
X102780180Y-82105714D01*
X102303990Y-82105714D02*
X102303990Y-82677142D01*
X101780180Y-82677142D02*
X102780180Y-82677142D01*
X102161133Y-83153333D02*
X102161133Y-83915238D01*
X101780180Y-84867618D02*
X101780180Y-84391428D01*
X101780180Y-84391428D02*
X102780180Y-84391428D01*
X101780180Y-85200952D02*
X102446847Y-85200952D01*
X102780180Y-85200952D02*
X102732561Y-85153333D01*
X102732561Y-85153333D02*
X102684942Y-85200952D01*
X102684942Y-85200952D02*
X102732561Y-85248571D01*
X102732561Y-85248571D02*
X102780180Y-85200952D01*
X102780180Y-85200952D02*
X102684942Y-85200952D01*
X102446847Y-85677142D02*
X101780180Y-85677142D01*
X102351609Y-85677142D02*
X102399228Y-85724761D01*
X102399228Y-85724761D02*
X102446847Y-85819999D01*
X102446847Y-85819999D02*
X102446847Y-85962856D01*
X102446847Y-85962856D02*
X102399228Y-86058094D01*
X102399228Y-86058094D02*
X102303990Y-86105713D01*
X102303990Y-86105713D02*
X101780180Y-86105713D01*
X101780180Y-86581904D02*
X102780180Y-86581904D01*
X102161133Y-86677142D02*
X101780180Y-86962856D01*
X102446847Y-86962856D02*
X102065895Y-86581904D01*
X102780180Y-87534285D02*
X102542085Y-87534285D01*
X102637323Y-87296190D02*
X102542085Y-87534285D01*
X102542085Y-87534285D02*
X102637323Y-87772380D01*
X102351609Y-87391428D02*
X102542085Y-87534285D01*
X102542085Y-87534285D02*
X102351609Y-87677142D01*
D11*
X104230000Y-87105000D02*
X104230000Y-80535000D01*
X105092077Y-80535000D02*
X104230000Y-80535000D01*
X105092077Y-87105000D02*
X104230000Y-87105000D01*
X106362077Y-80535000D02*
X105727923Y-80535000D01*
X107860000Y-80535000D02*
X106997923Y-80535000D01*
X107860000Y-85550000D02*
X107346708Y-85550000D01*
X107860000Y-85550000D02*
X107860000Y-80535000D01*
X107860000Y-86360000D02*
X107860000Y-87170000D01*
X107860000Y-87170000D02*
X106680000Y-87170000D01*
X96410000Y-94090000D02*
X96410000Y-92710000D01*
X97790000Y-94090000D02*
X96410000Y-94090000D01*
X99060000Y-91330000D02*
X101710000Y-91330000D01*
X99060000Y-94090000D02*
X99060000Y-91330000D01*
X99060000Y-94090000D02*
X101710000Y-94090000D01*
X101710000Y-94090000D02*
X101710000Y-91330000D01*
X96935000Y-75785000D02*
X96935000Y-74405000D01*
X98315000Y-75785000D02*
X96935000Y-75785000D01*
X99585000Y-73025000D02*
X107315000Y-73025000D01*
X99585000Y-75785000D02*
X99585000Y-73025000D01*
X99585000Y-75785000D02*
X107315000Y-75785000D01*
X107315000Y-75785000D02*
X107315000Y-73025000D01*
X103818163Y-91330000D02*
X103818163Y-94090000D01*
X106468163Y-91330000D02*
X103818163Y-91330000D01*
X106468163Y-91330000D02*
X106468163Y-94090000D01*
X106468163Y-94090000D02*
X103818163Y-94090000D01*
X107738163Y-91330000D02*
X109118163Y-91330000D01*
X109118163Y-91330000D02*
X109118163Y-92710000D01*
M02*
