G04 #@! TF.GenerationSoftware,KiCad,Pcbnew,10.0.2*
G04 #@! TF.CreationDate,2026-05-16T16:53:46+02:00*
G04 #@! TF.ProjectId,wchlink,7763686c-696e-46b2-9e6b-696361645f70,rev?*
G04 #@! TF.SameCoordinates,Original*
G04 #@! TF.FileFunction,Soldermask,Top*
G04 #@! TF.FilePolarity,Negative*
%FSLAX46Y46*%
G04 Gerber Fmt 4.6, Leading zero omitted, Abs format (unit mm)*
G04 Created by KiCad (PCBNEW 10.0.2) date 2026-05-16 16:53:46*
%MOMM*%
%LPD*%
G01*
G04 APERTURE LIST*
G04 APERTURE END LIST*
G36*
X98659517Y-91812882D02*
G01*
X98676062Y-91823938D01*
X98687118Y-91840483D01*
X98691000Y-91860000D01*
X98691000Y-93560000D01*
X98687118Y-93579517D01*
X98676062Y-93596062D01*
X98659517Y-93607118D01*
X98640000Y-93611000D01*
X96940000Y-93611000D01*
X96920483Y-93607118D01*
X96903938Y-93596062D01*
X96892882Y-93579517D01*
X96889000Y-93560000D01*
X96889000Y-91860000D01*
X96892882Y-91840483D01*
X96903938Y-91823938D01*
X96920483Y-91812882D01*
X96940000Y-91809000D01*
X98640000Y-91809000D01*
X98659517Y-91812882D01*
G37*
G36*
X108607680Y-91812882D02*
G01*
X108624225Y-91823938D01*
X108635281Y-91840483D01*
X108639163Y-91860000D01*
X108639163Y-93560000D01*
X108635281Y-93579517D01*
X108624225Y-93596062D01*
X108607680Y-93607118D01*
X108588163Y-93611000D01*
X106888163Y-93611000D01*
X106868646Y-93607118D01*
X106852101Y-93596062D01*
X106841045Y-93579517D01*
X106837163Y-93560000D01*
X106837163Y-91860000D01*
X106841045Y-91840483D01*
X106852101Y-91823938D01*
X106868646Y-91812882D01*
X106888163Y-91809000D01*
X108588163Y-91809000D01*
X108607680Y-91812882D01*
G37*
G36*
X100591546Y-91847797D02*
G01*
X100754728Y-91915389D01*
X100901588Y-92013518D01*
X101026482Y-92138412D01*
X101124611Y-92285272D01*
X101192203Y-92448454D01*
X101226661Y-92621687D01*
X101226661Y-92798313D01*
X101192203Y-92971546D01*
X101124611Y-93134728D01*
X101026482Y-93281588D01*
X100901588Y-93406482D01*
X100754728Y-93504611D01*
X100591546Y-93572203D01*
X100418313Y-93606661D01*
X100241687Y-93606661D01*
X100068454Y-93572203D01*
X99905272Y-93504611D01*
X99758412Y-93406482D01*
X99633518Y-93281588D01*
X99535389Y-93134728D01*
X99467797Y-92971546D01*
X99433339Y-92798313D01*
X99433339Y-92621687D01*
X99467797Y-92448454D01*
X99535389Y-92285272D01*
X99633518Y-92138412D01*
X99758412Y-92013518D01*
X99905272Y-91915389D01*
X100068454Y-91847797D01*
X100241687Y-91813339D01*
X100418313Y-91813339D01*
X100591546Y-91847797D01*
G37*
G36*
X105459709Y-91847797D02*
G01*
X105622891Y-91915389D01*
X105769751Y-92013518D01*
X105894645Y-92138412D01*
X105992774Y-92285272D01*
X106060366Y-92448454D01*
X106094824Y-92621687D01*
X106094824Y-92798313D01*
X106060366Y-92971546D01*
X105992774Y-93134728D01*
X105894645Y-93281588D01*
X105769751Y-93406482D01*
X105622891Y-93504611D01*
X105459709Y-93572203D01*
X105286476Y-93606661D01*
X105109850Y-93606661D01*
X104936617Y-93572203D01*
X104773435Y-93504611D01*
X104626575Y-93406482D01*
X104501681Y-93281588D01*
X104403552Y-93134728D01*
X104335960Y-92971546D01*
X104301502Y-92798313D01*
X104301502Y-92621687D01*
X104335960Y-92448454D01*
X104403552Y-92285272D01*
X104501681Y-92138412D01*
X104626575Y-92013518D01*
X104773435Y-91915389D01*
X104936617Y-91847797D01*
X105109850Y-91813339D01*
X105286476Y-91813339D01*
X105459709Y-91847797D01*
G37*
G36*
X99929517Y-88002882D02*
G01*
X99946062Y-88013938D01*
X99957118Y-88030483D01*
X99961000Y-88050000D01*
X99961000Y-89750000D01*
X99957118Y-89769517D01*
X99946062Y-89786062D01*
X99929517Y-89797118D01*
X99910000Y-89801000D01*
X98210000Y-89801000D01*
X98190483Y-89797118D01*
X98173938Y-89786062D01*
X98162882Y-89769517D01*
X98159000Y-89750000D01*
X98159000Y-88050000D01*
X98162882Y-88030483D01*
X98173938Y-88013938D01*
X98190483Y-88002882D01*
X98210000Y-87999000D01*
X99910000Y-87999000D01*
X99929517Y-88002882D01*
G37*
G36*
X96781546Y-88037797D02*
G01*
X96944728Y-88105389D01*
X97091588Y-88203518D01*
X97216482Y-88328412D01*
X97314611Y-88475272D01*
X97382203Y-88638454D01*
X97416661Y-88811687D01*
X97416661Y-88988313D01*
X97382203Y-89161546D01*
X97314611Y-89324728D01*
X97216482Y-89471588D01*
X97091588Y-89596482D01*
X96944728Y-89694611D01*
X96781546Y-89762203D01*
X96608313Y-89796661D01*
X96431687Y-89796661D01*
X96258454Y-89762203D01*
X96095272Y-89694611D01*
X95948412Y-89596482D01*
X95823518Y-89471588D01*
X95725389Y-89324728D01*
X95657797Y-89161546D01*
X95623339Y-88988313D01*
X95623339Y-88811687D01*
X95657797Y-88638454D01*
X95725389Y-88475272D01*
X95823518Y-88328412D01*
X95948412Y-88203518D01*
X96095272Y-88105389D01*
X96258454Y-88037797D01*
X96431687Y-88003339D01*
X96608313Y-88003339D01*
X96781546Y-88037797D01*
G37*
G36*
X96781546Y-85497797D02*
G01*
X96944728Y-85565389D01*
X97091588Y-85663518D01*
X97216482Y-85788412D01*
X97314611Y-85935272D01*
X97382203Y-86098454D01*
X97416661Y-86271687D01*
X97416661Y-86448313D01*
X97382203Y-86621546D01*
X97314611Y-86784728D01*
X97216482Y-86931588D01*
X97091588Y-87056482D01*
X96944728Y-87154611D01*
X96781546Y-87222203D01*
X96608313Y-87256661D01*
X96431687Y-87256661D01*
X96258454Y-87222203D01*
X96095272Y-87154611D01*
X95948412Y-87056482D01*
X95823518Y-86931588D01*
X95725389Y-86784728D01*
X95657797Y-86621546D01*
X95623339Y-86448313D01*
X95623339Y-86271687D01*
X95657797Y-86098454D01*
X95725389Y-85935272D01*
X95823518Y-85788412D01*
X95948412Y-85663518D01*
X96095272Y-85565389D01*
X96258454Y-85497797D01*
X96431687Y-85463339D01*
X96608313Y-85463339D01*
X96781546Y-85497797D01*
G37*
G36*
X99321546Y-85497797D02*
G01*
X99484728Y-85565389D01*
X99631588Y-85663518D01*
X99756482Y-85788412D01*
X99854611Y-85935272D01*
X99922203Y-86098454D01*
X99956661Y-86271687D01*
X99956661Y-86448313D01*
X99922203Y-86621546D01*
X99854611Y-86784728D01*
X99756482Y-86931588D01*
X99631588Y-87056482D01*
X99484728Y-87154611D01*
X99321546Y-87222203D01*
X99148313Y-87256661D01*
X98971687Y-87256661D01*
X98798454Y-87222203D01*
X98635272Y-87154611D01*
X98488412Y-87056482D01*
X98363518Y-86931588D01*
X98265389Y-86784728D01*
X98197797Y-86621546D01*
X98163339Y-86448313D01*
X98163339Y-86271687D01*
X98197797Y-86098454D01*
X98265389Y-85935272D01*
X98363518Y-85788412D01*
X98488412Y-85663518D01*
X98635272Y-85565389D01*
X98798454Y-85497797D01*
X98971687Y-85463339D01*
X99148313Y-85463339D01*
X99321546Y-85497797D01*
G37*
G36*
X105471284Y-80733714D02*
G01*
X105481920Y-80733714D01*
X105512566Y-80741925D01*
X105569770Y-80753304D01*
X105596769Y-80764487D01*
X105620859Y-80770942D01*
X105642454Y-80783410D01*
X105669453Y-80794593D01*
X105717940Y-80826992D01*
X105745428Y-80842862D01*
X105752953Y-80850387D01*
X105759165Y-80854538D01*
X105835461Y-80930834D01*
X105839611Y-80937045D01*
X105847138Y-80944572D01*
X105863011Y-80972066D01*
X105895406Y-81020547D01*
X105906588Y-81047542D01*
X105919058Y-81069141D01*
X105925512Y-81093228D01*
X105961479Y-81180059D01*
X106128521Y-81180059D01*
X106164488Y-81093224D01*
X106170942Y-81069141D01*
X106183409Y-81047547D01*
X106194593Y-81020547D01*
X106226994Y-80972055D01*
X106242862Y-80944572D01*
X106250385Y-80937048D01*
X106254538Y-80930834D01*
X106330834Y-80854538D01*
X106337048Y-80850385D01*
X106344572Y-80842862D01*
X106372051Y-80826996D01*
X106420546Y-80794593D01*
X106447548Y-80783408D01*
X106469141Y-80770942D01*
X106493227Y-80764488D01*
X106520229Y-80753304D01*
X106577434Y-80741925D01*
X106608080Y-80733714D01*
X106618716Y-80733714D01*
X106626051Y-80732255D01*
X106733949Y-80732255D01*
X106741284Y-80733714D01*
X106751920Y-80733714D01*
X106782566Y-80741925D01*
X106839770Y-80753304D01*
X106866769Y-80764487D01*
X106890859Y-80770942D01*
X106912454Y-80783410D01*
X106939453Y-80794593D01*
X106987940Y-80826992D01*
X107015428Y-80842862D01*
X107022953Y-80850387D01*
X107029165Y-80854538D01*
X107105461Y-80930834D01*
X107109611Y-80937045D01*
X107117138Y-80944572D01*
X107133009Y-80972062D01*
X107165406Y-81020546D01*
X107176587Y-81047542D01*
X107189058Y-81069141D01*
X107195513Y-81093234D01*
X107206695Y-81120229D01*
X107218072Y-81177428D01*
X107226286Y-81208080D01*
X107226286Y-81218716D01*
X107227745Y-81226051D01*
X107227745Y-81333948D01*
X107226286Y-81341282D01*
X107226286Y-81351920D01*
X107218072Y-81382574D01*
X107206695Y-81439770D01*
X107195514Y-81466763D01*
X107189058Y-81490859D01*
X107176586Y-81512460D01*
X107165406Y-81539453D01*
X107133014Y-81587929D01*
X107117138Y-81615428D01*
X107109609Y-81622956D01*
X107105461Y-81629165D01*
X107029165Y-81705461D01*
X107022956Y-81709609D01*
X107015428Y-81717138D01*
X106987924Y-81733017D01*
X106939453Y-81765405D01*
X106912464Y-81776584D01*
X106890859Y-81789058D01*
X106866763Y-81795514D01*
X106779940Y-81831478D01*
X106779940Y-81998522D01*
X106866766Y-82034486D01*
X106890859Y-82040942D01*
X106912459Y-82053412D01*
X106939453Y-82064594D01*
X106987935Y-82096989D01*
X107015428Y-82112862D01*
X107022953Y-82120387D01*
X107029165Y-82124538D01*
X107105461Y-82200834D01*
X107109611Y-82207045D01*
X107117138Y-82214572D01*
X107133009Y-82242062D01*
X107165406Y-82290546D01*
X107176587Y-82317542D01*
X107189058Y-82339141D01*
X107195513Y-82363234D01*
X107206695Y-82390229D01*
X107218072Y-82447428D01*
X107226286Y-82478080D01*
X107226286Y-82488716D01*
X107227745Y-82496051D01*
X107227745Y-82603948D01*
X107226286Y-82611282D01*
X107226286Y-82621920D01*
X107218072Y-82652574D01*
X107206695Y-82709770D01*
X107195514Y-82736763D01*
X107189058Y-82760859D01*
X107176586Y-82782460D01*
X107165406Y-82809453D01*
X107133014Y-82857929D01*
X107117138Y-82885428D01*
X107109609Y-82892956D01*
X107105461Y-82899165D01*
X107029165Y-82975461D01*
X107022956Y-82979609D01*
X107015428Y-82987138D01*
X106987924Y-83003017D01*
X106939453Y-83035405D01*
X106912464Y-83046584D01*
X106890859Y-83059058D01*
X106866763Y-83065514D01*
X106779940Y-83101478D01*
X106779940Y-83268522D01*
X106866766Y-83304486D01*
X106890859Y-83310942D01*
X106912459Y-83323412D01*
X106939453Y-83334594D01*
X106987935Y-83366989D01*
X107015428Y-83382862D01*
X107022953Y-83390387D01*
X107029165Y-83394538D01*
X107105461Y-83470834D01*
X107109611Y-83477045D01*
X107117138Y-83484572D01*
X107133009Y-83512062D01*
X107165406Y-83560546D01*
X107176587Y-83587542D01*
X107189058Y-83609141D01*
X107195513Y-83633234D01*
X107206695Y-83660229D01*
X107218072Y-83717428D01*
X107226286Y-83748080D01*
X107226286Y-83758716D01*
X107227745Y-83766051D01*
X107227745Y-83873948D01*
X107226286Y-83881282D01*
X107226286Y-83891920D01*
X107218072Y-83922574D01*
X107206695Y-83979770D01*
X107195514Y-84006763D01*
X107189058Y-84030859D01*
X107176586Y-84052460D01*
X107165406Y-84079453D01*
X107133014Y-84127929D01*
X107117138Y-84155428D01*
X107109609Y-84162956D01*
X107105461Y-84169165D01*
X107029165Y-84245461D01*
X107022956Y-84249609D01*
X107015428Y-84257138D01*
X106987924Y-84273017D01*
X106939453Y-84305405D01*
X106912464Y-84316584D01*
X106890859Y-84329058D01*
X106866763Y-84335514D01*
X106779940Y-84371478D01*
X106779940Y-84538522D01*
X106866766Y-84574486D01*
X106890859Y-84580942D01*
X106912459Y-84593412D01*
X106939453Y-84604594D01*
X106987935Y-84636989D01*
X107015428Y-84652862D01*
X107022953Y-84660387D01*
X107029165Y-84664538D01*
X107105461Y-84740834D01*
X107109611Y-84747045D01*
X107117138Y-84754572D01*
X107133009Y-84782062D01*
X107165406Y-84830546D01*
X107176587Y-84857542D01*
X107189058Y-84879141D01*
X107195513Y-84903234D01*
X107206695Y-84930229D01*
X107218072Y-84987428D01*
X107226286Y-85018080D01*
X107226286Y-85028716D01*
X107227745Y-85036051D01*
X107227745Y-85143948D01*
X107226286Y-85151282D01*
X107226286Y-85161920D01*
X107218072Y-85192574D01*
X107206695Y-85249770D01*
X107195514Y-85276763D01*
X107189058Y-85300859D01*
X107176586Y-85322460D01*
X107165406Y-85349453D01*
X107133014Y-85397929D01*
X107117138Y-85425428D01*
X107109609Y-85432956D01*
X107105461Y-85439165D01*
X107029165Y-85515461D01*
X107022956Y-85519609D01*
X107015428Y-85527138D01*
X106987926Y-85543016D01*
X106855393Y-85631573D01*
X106909215Y-85809000D01*
X107180000Y-85809000D01*
X107199517Y-85812882D01*
X107216062Y-85823938D01*
X107227118Y-85840483D01*
X107231000Y-85860000D01*
X107231000Y-86860000D01*
X107227118Y-86879517D01*
X107216062Y-86896062D01*
X107199517Y-86907118D01*
X107180000Y-86911000D01*
X106180000Y-86911000D01*
X106160483Y-86907118D01*
X106143938Y-86896062D01*
X106132882Y-86879517D01*
X106129000Y-86860000D01*
X106129000Y-86784442D01*
X106128999Y-86589214D01*
X105951572Y-86535393D01*
X105863014Y-86667929D01*
X105847138Y-86695428D01*
X105839611Y-86702954D01*
X105835463Y-86709163D01*
X105759165Y-86785461D01*
X105752956Y-86789609D01*
X105745428Y-86797138D01*
X105717929Y-86813014D01*
X105669453Y-86845406D01*
X105642460Y-86856586D01*
X105620859Y-86869058D01*
X105596763Y-86875514D01*
X105569770Y-86886695D01*
X105512573Y-86898072D01*
X105481920Y-86906286D01*
X105471284Y-86906286D01*
X105463949Y-86907745D01*
X105356051Y-86907745D01*
X105348716Y-86906286D01*
X105338080Y-86906286D01*
X105307428Y-86898072D01*
X105250229Y-86886695D01*
X105223234Y-86875513D01*
X105199141Y-86869058D01*
X105177542Y-86856587D01*
X105150546Y-86845406D01*
X105102062Y-86813009D01*
X105074572Y-86797138D01*
X105067045Y-86789611D01*
X105060834Y-86785461D01*
X104984538Y-86709165D01*
X104980387Y-86702953D01*
X104972862Y-86695428D01*
X104956992Y-86667940D01*
X104924593Y-86619453D01*
X104913410Y-86592454D01*
X104900942Y-86570859D01*
X104894487Y-86546769D01*
X104883304Y-86519770D01*
X104871925Y-86462568D01*
X104863714Y-86431920D01*
X104863714Y-86421282D01*
X104862255Y-86413948D01*
X104862255Y-86306051D01*
X104863714Y-86298716D01*
X104863714Y-86288080D01*
X104871925Y-86257434D01*
X104883304Y-86200229D01*
X104894488Y-86173227D01*
X104900942Y-86149141D01*
X104913408Y-86127548D01*
X104924593Y-86100546D01*
X104956996Y-86052051D01*
X104972862Y-86024572D01*
X104980385Y-86017048D01*
X104984538Y-86010834D01*
X105060834Y-85934538D01*
X105067048Y-85930385D01*
X105074572Y-85922862D01*
X105102055Y-85906994D01*
X105150547Y-85874593D01*
X105177547Y-85863409D01*
X105199141Y-85850942D01*
X105223224Y-85844488D01*
X105310059Y-85808521D01*
X105310059Y-85641479D01*
X105310057Y-85641478D01*
X105509940Y-85641478D01*
X105509940Y-85808522D01*
X105596766Y-85844486D01*
X105620859Y-85850942D01*
X105642459Y-85863412D01*
X105669453Y-85874594D01*
X105717935Y-85906989D01*
X105745428Y-85922862D01*
X105752953Y-85930387D01*
X105759165Y-85934538D01*
X105835461Y-86010834D01*
X105839611Y-86017045D01*
X105847138Y-86024572D01*
X105863011Y-86052066D01*
X105951573Y-86184606D01*
X106129000Y-86130783D01*
X106129000Y-85872310D01*
X106129000Y-85860000D01*
X106132882Y-85840483D01*
X106143938Y-85823938D01*
X106160483Y-85812882D01*
X106180000Y-85809000D01*
X106192313Y-85809000D01*
X106450785Y-85808999D01*
X106504606Y-85631572D01*
X106372069Y-85543013D01*
X106344572Y-85527138D01*
X106337045Y-85519611D01*
X106330834Y-85515461D01*
X106254538Y-85439165D01*
X106250387Y-85432953D01*
X106242862Y-85425428D01*
X106226989Y-85397935D01*
X106194594Y-85349453D01*
X106183412Y-85322459D01*
X106170942Y-85300859D01*
X106164486Y-85276766D01*
X106128522Y-85189940D01*
X105961478Y-85189940D01*
X105925514Y-85276763D01*
X105919058Y-85300859D01*
X105906584Y-85322464D01*
X105895405Y-85349453D01*
X105863017Y-85397924D01*
X105847138Y-85425428D01*
X105839609Y-85432956D01*
X105835461Y-85439165D01*
X105759165Y-85515461D01*
X105752956Y-85519609D01*
X105745428Y-85527138D01*
X105717924Y-85543017D01*
X105669453Y-85575405D01*
X105642464Y-85586584D01*
X105620859Y-85599058D01*
X105596763Y-85605514D01*
X105509940Y-85641478D01*
X105310057Y-85641478D01*
X105223228Y-85605512D01*
X105199141Y-85599058D01*
X105177542Y-85586588D01*
X105150547Y-85575406D01*
X105102066Y-85543011D01*
X105074572Y-85527138D01*
X105067045Y-85519611D01*
X105060834Y-85515461D01*
X104984538Y-85439165D01*
X104980387Y-85432953D01*
X104972862Y-85425428D01*
X104956992Y-85397940D01*
X104924593Y-85349453D01*
X104913410Y-85322454D01*
X104900942Y-85300859D01*
X104894487Y-85276769D01*
X104883304Y-85249770D01*
X104871925Y-85192568D01*
X104863714Y-85161920D01*
X104863714Y-85151282D01*
X104862255Y-85143948D01*
X104862255Y-85036051D01*
X104863714Y-85028716D01*
X104863714Y-85018080D01*
X104871925Y-84987434D01*
X104883304Y-84930229D01*
X104894488Y-84903227D01*
X104900942Y-84879141D01*
X104913408Y-84857548D01*
X104924593Y-84830546D01*
X104956996Y-84782051D01*
X104972862Y-84754572D01*
X104980385Y-84747048D01*
X104984538Y-84740834D01*
X105060834Y-84664538D01*
X105067048Y-84660385D01*
X105074572Y-84652862D01*
X105102055Y-84636994D01*
X105150547Y-84604593D01*
X105177547Y-84593409D01*
X105199141Y-84580942D01*
X105223224Y-84574488D01*
X105310059Y-84538521D01*
X105310059Y-84371479D01*
X105310057Y-84371478D01*
X105509940Y-84371478D01*
X105509940Y-84538522D01*
X105596766Y-84574486D01*
X105620859Y-84580942D01*
X105642459Y-84593412D01*
X105669453Y-84604594D01*
X105717935Y-84636989D01*
X105745428Y-84652862D01*
X105752953Y-84660387D01*
X105759165Y-84664538D01*
X105835461Y-84740834D01*
X105839611Y-84747045D01*
X105847138Y-84754572D01*
X105863011Y-84782066D01*
X105895406Y-84830547D01*
X105906588Y-84857542D01*
X105919058Y-84879141D01*
X105925512Y-84903228D01*
X105961479Y-84990059D01*
X106128521Y-84990059D01*
X106164488Y-84903224D01*
X106170942Y-84879141D01*
X106183409Y-84857547D01*
X106194593Y-84830547D01*
X106226994Y-84782055D01*
X106242862Y-84754572D01*
X106250385Y-84747048D01*
X106254538Y-84740834D01*
X106330834Y-84664538D01*
X106337048Y-84660385D01*
X106344572Y-84652862D01*
X106372055Y-84636994D01*
X106420547Y-84604593D01*
X106447547Y-84593409D01*
X106469141Y-84580942D01*
X106493224Y-84574488D01*
X106580059Y-84538521D01*
X106580059Y-84371479D01*
X106493228Y-84335512D01*
X106469141Y-84329058D01*
X106447542Y-84316588D01*
X106420547Y-84305406D01*
X106372066Y-84273011D01*
X106344572Y-84257138D01*
X106337045Y-84249611D01*
X106330834Y-84245461D01*
X106254538Y-84169165D01*
X106250387Y-84162953D01*
X106242862Y-84155428D01*
X106226989Y-84127935D01*
X106194594Y-84079453D01*
X106183412Y-84052459D01*
X106170942Y-84030859D01*
X106164486Y-84006766D01*
X106128522Y-83919940D01*
X105961478Y-83919940D01*
X105925514Y-84006763D01*
X105919058Y-84030859D01*
X105906584Y-84052464D01*
X105895405Y-84079453D01*
X105863017Y-84127924D01*
X105847138Y-84155428D01*
X105839609Y-84162956D01*
X105835461Y-84169165D01*
X105759165Y-84245461D01*
X105752956Y-84249609D01*
X105745428Y-84257138D01*
X105717924Y-84273017D01*
X105669453Y-84305405D01*
X105642464Y-84316584D01*
X105620859Y-84329058D01*
X105596763Y-84335514D01*
X105509940Y-84371478D01*
X105310057Y-84371478D01*
X105223228Y-84335512D01*
X105199141Y-84329058D01*
X105177542Y-84316588D01*
X105150547Y-84305406D01*
X105102066Y-84273011D01*
X105074572Y-84257138D01*
X105067045Y-84249611D01*
X105060834Y-84245461D01*
X104984538Y-84169165D01*
X104980387Y-84162953D01*
X104972862Y-84155428D01*
X104956992Y-84127940D01*
X104924593Y-84079453D01*
X104913410Y-84052454D01*
X104900942Y-84030859D01*
X104894487Y-84006769D01*
X104883304Y-83979770D01*
X104871925Y-83922568D01*
X104863714Y-83891920D01*
X104863714Y-83881282D01*
X104862255Y-83873948D01*
X104862255Y-83766051D01*
X104863714Y-83758716D01*
X104863714Y-83748080D01*
X104871925Y-83717434D01*
X104883304Y-83660229D01*
X104894488Y-83633227D01*
X104900942Y-83609141D01*
X104913408Y-83587548D01*
X104924593Y-83560546D01*
X104956996Y-83512051D01*
X104972862Y-83484572D01*
X104980385Y-83477048D01*
X104984538Y-83470834D01*
X105060834Y-83394538D01*
X105067048Y-83390385D01*
X105074572Y-83382862D01*
X105102055Y-83366994D01*
X105150547Y-83334593D01*
X105177547Y-83323409D01*
X105199141Y-83310942D01*
X105223224Y-83304488D01*
X105310059Y-83268521D01*
X105310059Y-83101479D01*
X105310057Y-83101478D01*
X105509940Y-83101478D01*
X105509940Y-83268522D01*
X105596766Y-83304486D01*
X105620859Y-83310942D01*
X105642459Y-83323412D01*
X105669453Y-83334594D01*
X105717935Y-83366989D01*
X105745428Y-83382862D01*
X105752953Y-83390387D01*
X105759165Y-83394538D01*
X105835461Y-83470834D01*
X105839611Y-83477045D01*
X105847138Y-83484572D01*
X105863011Y-83512066D01*
X105895406Y-83560547D01*
X105906588Y-83587542D01*
X105919058Y-83609141D01*
X105925512Y-83633228D01*
X105961479Y-83720059D01*
X106128521Y-83720059D01*
X106164488Y-83633224D01*
X106170942Y-83609141D01*
X106183409Y-83587547D01*
X106194593Y-83560547D01*
X106226994Y-83512055D01*
X106242862Y-83484572D01*
X106250385Y-83477048D01*
X106254538Y-83470834D01*
X106330834Y-83394538D01*
X106337048Y-83390385D01*
X106344572Y-83382862D01*
X106372055Y-83366994D01*
X106420547Y-83334593D01*
X106447547Y-83323409D01*
X106469141Y-83310942D01*
X106493224Y-83304488D01*
X106580059Y-83268521D01*
X106580059Y-83101479D01*
X106493228Y-83065512D01*
X106469141Y-83059058D01*
X106447542Y-83046588D01*
X106420547Y-83035406D01*
X106372066Y-83003011D01*
X106344572Y-82987138D01*
X106337045Y-82979611D01*
X106330834Y-82975461D01*
X106254538Y-82899165D01*
X106250387Y-82892953D01*
X106242862Y-82885428D01*
X106226989Y-82857935D01*
X106194594Y-82809453D01*
X106183412Y-82782459D01*
X106170942Y-82760859D01*
X106164486Y-82736766D01*
X106128522Y-82649940D01*
X105961478Y-82649940D01*
X105925514Y-82736763D01*
X105919058Y-82760859D01*
X105906584Y-82782464D01*
X105895405Y-82809453D01*
X105863017Y-82857924D01*
X105847138Y-82885428D01*
X105839609Y-82892956D01*
X105835461Y-82899165D01*
X105759165Y-82975461D01*
X105752956Y-82979609D01*
X105745428Y-82987138D01*
X105717924Y-83003017D01*
X105669453Y-83035405D01*
X105642464Y-83046584D01*
X105620859Y-83059058D01*
X105596763Y-83065514D01*
X105509940Y-83101478D01*
X105310057Y-83101478D01*
X105223228Y-83065512D01*
X105199141Y-83059058D01*
X105177542Y-83046588D01*
X105150547Y-83035406D01*
X105102066Y-83003011D01*
X105074572Y-82987138D01*
X105067045Y-82979611D01*
X105060834Y-82975461D01*
X104984538Y-82899165D01*
X104980387Y-82892953D01*
X104972862Y-82885428D01*
X104956992Y-82857940D01*
X104924593Y-82809453D01*
X104913410Y-82782454D01*
X104900942Y-82760859D01*
X104894487Y-82736769D01*
X104883304Y-82709770D01*
X104871925Y-82652568D01*
X104863714Y-82621920D01*
X104863714Y-82611282D01*
X104862255Y-82603948D01*
X104862255Y-82496051D01*
X104863714Y-82488716D01*
X104863714Y-82478080D01*
X104871925Y-82447434D01*
X104883304Y-82390229D01*
X104894488Y-82363227D01*
X104900942Y-82339141D01*
X104913408Y-82317548D01*
X104924593Y-82290546D01*
X104956996Y-82242051D01*
X104972862Y-82214572D01*
X104980385Y-82207048D01*
X104984538Y-82200834D01*
X105060834Y-82124538D01*
X105067048Y-82120385D01*
X105074572Y-82112862D01*
X105102055Y-82096994D01*
X105150547Y-82064593D01*
X105177547Y-82053409D01*
X105199141Y-82040942D01*
X105223224Y-82034488D01*
X105310059Y-81998521D01*
X105310059Y-81831479D01*
X105310057Y-81831478D01*
X105509940Y-81831478D01*
X105509940Y-81998522D01*
X105596766Y-82034486D01*
X105620859Y-82040942D01*
X105642459Y-82053412D01*
X105669453Y-82064594D01*
X105717935Y-82096989D01*
X105745428Y-82112862D01*
X105752953Y-82120387D01*
X105759165Y-82124538D01*
X105835461Y-82200834D01*
X105839611Y-82207045D01*
X105847138Y-82214572D01*
X105863011Y-82242066D01*
X105895406Y-82290547D01*
X105906588Y-82317542D01*
X105919058Y-82339141D01*
X105925512Y-82363228D01*
X105961479Y-82450059D01*
X106128521Y-82450059D01*
X106164488Y-82363224D01*
X106170942Y-82339141D01*
X106183409Y-82317547D01*
X106194593Y-82290547D01*
X106226994Y-82242055D01*
X106242862Y-82214572D01*
X106250385Y-82207048D01*
X106254538Y-82200834D01*
X106330834Y-82124538D01*
X106337048Y-82120385D01*
X106344572Y-82112862D01*
X106372055Y-82096994D01*
X106420547Y-82064593D01*
X106447547Y-82053409D01*
X106469141Y-82040942D01*
X106493224Y-82034488D01*
X106580059Y-81998521D01*
X106580059Y-81831479D01*
X106493228Y-81795512D01*
X106469141Y-81789058D01*
X106447542Y-81776588D01*
X106420547Y-81765406D01*
X106372066Y-81733011D01*
X106344572Y-81717138D01*
X106337045Y-81709611D01*
X106330834Y-81705461D01*
X106254538Y-81629165D01*
X106250387Y-81622953D01*
X106242862Y-81615428D01*
X106226989Y-81587935D01*
X106194594Y-81539453D01*
X106183412Y-81512459D01*
X106170942Y-81490859D01*
X106164486Y-81466766D01*
X106128522Y-81379940D01*
X105961478Y-81379940D01*
X105925514Y-81466763D01*
X105919058Y-81490859D01*
X105906584Y-81512464D01*
X105895405Y-81539453D01*
X105863017Y-81587924D01*
X105847138Y-81615428D01*
X105839609Y-81622956D01*
X105835461Y-81629165D01*
X105759165Y-81705461D01*
X105752956Y-81709609D01*
X105745428Y-81717138D01*
X105717924Y-81733017D01*
X105669453Y-81765405D01*
X105642464Y-81776584D01*
X105620859Y-81789058D01*
X105596763Y-81795514D01*
X105509940Y-81831478D01*
X105310057Y-81831478D01*
X105223228Y-81795512D01*
X105199141Y-81789058D01*
X105177542Y-81776588D01*
X105150547Y-81765406D01*
X105102066Y-81733011D01*
X105074572Y-81717138D01*
X105067045Y-81709611D01*
X105060834Y-81705461D01*
X104984538Y-81629165D01*
X104980387Y-81622953D01*
X104972862Y-81615428D01*
X104956992Y-81587940D01*
X104924593Y-81539453D01*
X104913410Y-81512454D01*
X104900942Y-81490859D01*
X104894487Y-81466769D01*
X104883304Y-81439770D01*
X104871925Y-81382568D01*
X104863714Y-81351920D01*
X104863714Y-81341282D01*
X104862255Y-81333948D01*
X104862255Y-81226051D01*
X104863714Y-81218716D01*
X104863714Y-81208080D01*
X104871925Y-81177434D01*
X104883304Y-81120229D01*
X104894488Y-81093227D01*
X104900942Y-81069141D01*
X104913408Y-81047548D01*
X104924593Y-81020546D01*
X104956996Y-80972051D01*
X104972862Y-80944572D01*
X104980385Y-80937048D01*
X104984538Y-80930834D01*
X105060834Y-80854538D01*
X105067048Y-80850385D01*
X105074572Y-80842862D01*
X105102051Y-80826996D01*
X105150546Y-80794593D01*
X105177548Y-80783408D01*
X105199141Y-80770942D01*
X105223227Y-80764488D01*
X105250229Y-80753304D01*
X105307434Y-80741925D01*
X105338080Y-80733714D01*
X105348716Y-80733714D01*
X105356051Y-80732255D01*
X105463949Y-80732255D01*
X105471284Y-80733714D01*
G37*
G36*
X96781546Y-82957797D02*
G01*
X96944728Y-83025389D01*
X97091588Y-83123518D01*
X97216482Y-83248412D01*
X97314611Y-83395272D01*
X97382203Y-83558454D01*
X97416661Y-83731687D01*
X97416661Y-83908313D01*
X97382203Y-84081546D01*
X97314611Y-84244728D01*
X97216482Y-84391588D01*
X97091588Y-84516482D01*
X96944728Y-84614611D01*
X96781546Y-84682203D01*
X96608313Y-84716661D01*
X96431687Y-84716661D01*
X96258454Y-84682203D01*
X96095272Y-84614611D01*
X95948412Y-84516482D01*
X95823518Y-84391588D01*
X95725389Y-84244728D01*
X95657797Y-84081546D01*
X95623339Y-83908313D01*
X95623339Y-83731687D01*
X95657797Y-83558454D01*
X95725389Y-83395272D01*
X95823518Y-83248412D01*
X95948412Y-83123518D01*
X96095272Y-83025389D01*
X96258454Y-82957797D01*
X96431687Y-82923339D01*
X96608313Y-82923339D01*
X96781546Y-82957797D01*
G37*
G36*
X99321546Y-82957797D02*
G01*
X99484728Y-83025389D01*
X99631588Y-83123518D01*
X99756482Y-83248412D01*
X99854611Y-83395272D01*
X99922203Y-83558454D01*
X99956661Y-83731687D01*
X99956661Y-83908313D01*
X99922203Y-84081546D01*
X99854611Y-84244728D01*
X99756482Y-84391588D01*
X99631588Y-84516482D01*
X99484728Y-84614611D01*
X99321546Y-84682203D01*
X99148313Y-84716661D01*
X98971687Y-84716661D01*
X98798454Y-84682203D01*
X98635272Y-84614611D01*
X98488412Y-84516482D01*
X98363518Y-84391588D01*
X98265389Y-84244728D01*
X98197797Y-84081546D01*
X98163339Y-83908313D01*
X98163339Y-83731687D01*
X98197797Y-83558454D01*
X98265389Y-83395272D01*
X98363518Y-83248412D01*
X98488412Y-83123518D01*
X98635272Y-83025389D01*
X98798454Y-82957797D01*
X98971687Y-82923339D01*
X99148313Y-82923339D01*
X99321546Y-82957797D01*
G37*
G36*
X96781546Y-80417797D02*
G01*
X96944728Y-80485389D01*
X97091588Y-80583518D01*
X97216482Y-80708412D01*
X97314611Y-80855272D01*
X97382203Y-81018454D01*
X97416661Y-81191687D01*
X97416661Y-81368313D01*
X97382203Y-81541546D01*
X97314611Y-81704728D01*
X97216482Y-81851588D01*
X97091588Y-81976482D01*
X96944728Y-82074611D01*
X96781546Y-82142203D01*
X96608313Y-82176661D01*
X96431687Y-82176661D01*
X96258454Y-82142203D01*
X96095272Y-82074611D01*
X95948412Y-81976482D01*
X95823518Y-81851588D01*
X95725389Y-81704728D01*
X95657797Y-81541546D01*
X95623339Y-81368313D01*
X95623339Y-81191687D01*
X95657797Y-81018454D01*
X95725389Y-80855272D01*
X95823518Y-80708412D01*
X95948412Y-80583518D01*
X96095272Y-80485389D01*
X96258454Y-80417797D01*
X96431687Y-80383339D01*
X96608313Y-80383339D01*
X96781546Y-80417797D01*
G37*
G36*
X99321546Y-80417797D02*
G01*
X99484728Y-80485389D01*
X99631588Y-80583518D01*
X99756482Y-80708412D01*
X99854611Y-80855272D01*
X99922203Y-81018454D01*
X99956661Y-81191687D01*
X99956661Y-81368313D01*
X99922203Y-81541546D01*
X99854611Y-81704728D01*
X99756482Y-81851588D01*
X99631588Y-81976482D01*
X99484728Y-82074611D01*
X99321546Y-82142203D01*
X99148313Y-82176661D01*
X98971687Y-82176661D01*
X98798454Y-82142203D01*
X98635272Y-82074611D01*
X98488412Y-81976482D01*
X98363518Y-81851588D01*
X98265389Y-81704728D01*
X98197797Y-81541546D01*
X98163339Y-81368313D01*
X98163339Y-81191687D01*
X98197797Y-81018454D01*
X98265389Y-80855272D01*
X98363518Y-80708412D01*
X98488412Y-80583518D01*
X98635272Y-80485389D01*
X98798454Y-80417797D01*
X98971687Y-80383339D01*
X99148313Y-80383339D01*
X99321546Y-80417797D01*
G37*
G36*
X96781546Y-77877797D02*
G01*
X96944728Y-77945389D01*
X97091588Y-78043518D01*
X97216482Y-78168412D01*
X97314611Y-78315272D01*
X97382203Y-78478454D01*
X97416661Y-78651687D01*
X97416661Y-78828313D01*
X97382203Y-79001546D01*
X97314611Y-79164728D01*
X97216482Y-79311588D01*
X97091588Y-79436482D01*
X96944728Y-79534611D01*
X96781546Y-79602203D01*
X96608313Y-79636661D01*
X96431687Y-79636661D01*
X96258454Y-79602203D01*
X96095272Y-79534611D01*
X95948412Y-79436482D01*
X95823518Y-79311588D01*
X95725389Y-79164728D01*
X95657797Y-79001546D01*
X95623339Y-78828313D01*
X95623339Y-78651687D01*
X95657797Y-78478454D01*
X95725389Y-78315272D01*
X95823518Y-78168412D01*
X95948412Y-78043518D01*
X96095272Y-77945389D01*
X96258454Y-77877797D01*
X96431687Y-77843339D01*
X96608313Y-77843339D01*
X96781546Y-77877797D01*
G37*
G36*
X99321546Y-77877797D02*
G01*
X99484728Y-77945389D01*
X99631588Y-78043518D01*
X99756482Y-78168412D01*
X99854611Y-78315272D01*
X99922203Y-78478454D01*
X99956661Y-78651687D01*
X99956661Y-78828313D01*
X99922203Y-79001546D01*
X99854611Y-79164728D01*
X99756482Y-79311588D01*
X99631588Y-79436482D01*
X99484728Y-79534611D01*
X99321546Y-79602203D01*
X99148313Y-79636661D01*
X98971687Y-79636661D01*
X98798454Y-79602203D01*
X98635272Y-79534611D01*
X98488412Y-79436482D01*
X98363518Y-79311588D01*
X98265389Y-79164728D01*
X98197797Y-79001546D01*
X98163339Y-78828313D01*
X98163339Y-78651687D01*
X98197797Y-78478454D01*
X98265389Y-78315272D01*
X98363518Y-78168412D01*
X98488412Y-78043518D01*
X98635272Y-77945389D01*
X98798454Y-77877797D01*
X98971687Y-77843339D01*
X99148313Y-77843339D01*
X99321546Y-77877797D01*
G37*
G36*
X99184517Y-73507882D02*
G01*
X99201062Y-73518938D01*
X99212118Y-73535483D01*
X99216000Y-73555000D01*
X99216000Y-75255000D01*
X99212118Y-75274517D01*
X99201062Y-75291062D01*
X99184517Y-75302118D01*
X99165000Y-75306000D01*
X97465000Y-75306000D01*
X97445483Y-75302118D01*
X97428938Y-75291062D01*
X97417882Y-75274517D01*
X97414000Y-75255000D01*
X97414000Y-73555000D01*
X97417882Y-73535483D01*
X97428938Y-73518938D01*
X97445483Y-73507882D01*
X97465000Y-73504000D01*
X99165000Y-73504000D01*
X99184517Y-73507882D01*
G37*
G36*
X101116546Y-73542797D02*
G01*
X101279728Y-73610389D01*
X101426588Y-73708518D01*
X101551482Y-73833412D01*
X101649611Y-73980272D01*
X101717203Y-74143454D01*
X101751661Y-74316687D01*
X101751661Y-74493313D01*
X101717203Y-74666546D01*
X101649611Y-74829728D01*
X101551482Y-74976588D01*
X101426588Y-75101482D01*
X101279728Y-75199611D01*
X101116546Y-75267203D01*
X100943313Y-75301661D01*
X100766687Y-75301661D01*
X100593454Y-75267203D01*
X100430272Y-75199611D01*
X100283412Y-75101482D01*
X100158518Y-74976588D01*
X100060389Y-74829728D01*
X99992797Y-74666546D01*
X99958339Y-74493313D01*
X99958339Y-74316687D01*
X99992797Y-74143454D01*
X100060389Y-73980272D01*
X100158518Y-73833412D01*
X100283412Y-73708518D01*
X100430272Y-73610389D01*
X100593454Y-73542797D01*
X100766687Y-73508339D01*
X100943313Y-73508339D01*
X101116546Y-73542797D01*
G37*
G36*
X103656546Y-73542797D02*
G01*
X103819728Y-73610389D01*
X103966588Y-73708518D01*
X104091482Y-73833412D01*
X104189611Y-73980272D01*
X104257203Y-74143454D01*
X104291661Y-74316687D01*
X104291661Y-74493313D01*
X104257203Y-74666546D01*
X104189611Y-74829728D01*
X104091482Y-74976588D01*
X103966588Y-75101482D01*
X103819728Y-75199611D01*
X103656546Y-75267203D01*
X103483313Y-75301661D01*
X103306687Y-75301661D01*
X103133454Y-75267203D01*
X102970272Y-75199611D01*
X102823412Y-75101482D01*
X102698518Y-74976588D01*
X102600389Y-74829728D01*
X102532797Y-74666546D01*
X102498339Y-74493313D01*
X102498339Y-74316687D01*
X102532797Y-74143454D01*
X102600389Y-73980272D01*
X102698518Y-73833412D01*
X102823412Y-73708518D01*
X102970272Y-73610389D01*
X103133454Y-73542797D01*
X103306687Y-73508339D01*
X103483313Y-73508339D01*
X103656546Y-73542797D01*
G37*
G36*
X106196546Y-73542797D02*
G01*
X106359728Y-73610389D01*
X106506588Y-73708518D01*
X106631482Y-73833412D01*
X106729611Y-73980272D01*
X106797203Y-74143454D01*
X106831661Y-74316687D01*
X106831661Y-74493313D01*
X106797203Y-74666546D01*
X106729611Y-74829728D01*
X106631482Y-74976588D01*
X106506588Y-75101482D01*
X106359728Y-75199611D01*
X106196546Y-75267203D01*
X106023313Y-75301661D01*
X105846687Y-75301661D01*
X105673454Y-75267203D01*
X105510272Y-75199611D01*
X105363412Y-75101482D01*
X105238518Y-74976588D01*
X105140389Y-74829728D01*
X105072797Y-74666546D01*
X105038339Y-74493313D01*
X105038339Y-74316687D01*
X105072797Y-74143454D01*
X105140389Y-73980272D01*
X105238518Y-73833412D01*
X105363412Y-73708518D01*
X105510272Y-73610389D01*
X105673454Y-73542797D01*
X105846687Y-73508339D01*
X106023313Y-73508339D01*
X106196546Y-73542797D01*
G37*
M02*
