M48
; DRILL file KiCad 10.0.2 date 2026-05-16T16:53:50
; FORMAT={-:-/ absolute / metric / decimal}
; #@! TF.CreationDate,2026-05-16T16:53:50+02:00
; #@! TF.GenerationSoftware,Kicad,Pcbnew,10.0.2
; #@! TF.FileFunction,Plated,1,2,PTH
FMAT,2
METRIC
; #@! TA.AperFunction,Plated,PTH,ViaDrill
T1C0.400
; #@! TA.AperFunction,Plated,PTH,ComponentDrill
T2C0.650
; #@! TA.AperFunction,Plated,PTH,ComponentDrill
T3C1.000
%
G90
G05
T1
X96.52Y-76.2
X96.52Y-94.615
X97.79Y-77.47
X97.79Y-82.55
X99.695Y-73.025
X100.965Y-80.01
X100.965Y-81.28
X100.965Y-86.36
X102.235Y-77.47
X102.235Y-88.265
X103.505Y-78.74
X103.505Y-85.09
X104.14Y-90.805
X104.23Y-81.28
X105.41Y-88.265
T2
X105.41Y-81.28
X105.41Y-82.55
X105.41Y-83.82
X105.41Y-85.09
X105.41Y-86.36
X106.68Y-81.28
X106.68Y-82.55
X106.68Y-83.82
X106.68Y-85.09
X106.68Y-86.36
T3
X96.52Y-78.74
X96.52Y-81.28
X96.52Y-83.82
X96.52Y-86.36
X96.52Y-88.9
X97.79Y-92.71
X98.315Y-74.405
X99.06Y-78.74
X99.06Y-81.28
X99.06Y-83.82
X99.06Y-86.36
X99.06Y-88.9
X100.33Y-92.71
X100.855Y-74.405
X103.395Y-74.405
X105.198Y-92.71
X105.935Y-74.405
X107.738Y-92.71
M30
