M48
; DRILL file {KiCad (6.0.1)} date vr 11 feb 2022 12:05:18 CET
; FORMAT={-:-/ absolute / inch / decimal}
; #@! TF.CreationDate,2022-02-11T12:05:18+01:00
; #@! TF.GenerationSoftware,Kicad,Pcbnew,(6.0.1)
; #@! TF.FileFunction,Plated,1,2,PTH
FMAT,2
INCH
; #@! TA.AperFunction,Plated,PTH,ViaDrill
T1C0.0157
; #@! TA.AperFunction,Plated,PTH,ComponentDrill
T2C0.0236
; #@! TA.AperFunction,Plated,PTH,ComponentDrill
T3C0.0256
; #@! TA.AperFunction,Plated,PTH,ComponentDrill
T4C0.0394
%
G90
G05
T1
X5.1Y-2.6
X5.15Y-3.45
X5.15Y-3.7
X5.2Y-2.7
X5.45Y-3.25
X5.45Y-3.5
X5.45Y-3.7
X5.6Y-2.9
X5.65Y-3.15
X5.65Y-3.35
X5.65Y-3.55
X5.65Y-3.65
X5.6756Y-2.9994
X5.75Y-2.7535
X5.9Y-2.8
X5.9Y-3.1
X6.1Y-2.8
X6.25Y-3.25
X6.6Y-3.1
T2
X6.25Y-3.3795
X6.25Y-3.4598
X6.25Y-3.5402
X6.35Y-3.4197
X6.35Y-3.5
X6.35Y-3.5803
T3
X6.4246Y-2.9004
X6.4246Y-2.9504
X6.4246Y-3.0004
X6.4246Y-3.0504
X6.4246Y-3.1004
X6.4746Y-2.9004
X6.4746Y-2.9504
X6.4746Y-3.0004
X6.4746Y-3.0504
X6.4746Y-3.1004
T4
X4.9Y-2.7
X4.9Y-2.8
X4.9Y-2.9
X4.9Y-3.0
X4.9Y-3.1
X4.9Y-3.2
X4.9Y-3.3
X4.9Y-3.4
X4.9Y-3.5
X4.9Y-3.6
X5.0Y-2.7
X5.0Y-2.8
X5.0Y-2.9
X5.0Y-3.0
X5.0Y-3.1
X5.0Y-3.2
X5.0Y-3.3
X5.0Y-3.4
X5.0Y-3.5
X5.0Y-3.6
X5.4Y-2.6
X5.5Y-2.6
X5.7Y-2.6
X5.75Y-3.3
X5.75Y-3.4
X5.75Y-3.5
X5.75Y-3.6
X5.75Y-3.7
X5.8Y-2.6
X5.85Y-3.3
X5.85Y-3.4
X5.85Y-3.5
X5.85Y-3.6
X5.85Y-3.7
X5.9Y-2.6
X6.0Y-2.6
X6.1Y-2.9
X6.1Y-3.0
X6.1Y-3.1
X6.2Y-2.6
X6.2Y-2.9
X6.2Y-3.0
X6.2Y-3.1
X6.3Y-2.6
X6.4Y-2.6
X6.5Y-2.6
T0
M30
