G04 #@! TF.GenerationSoftware,KiCad,Pcbnew,10.0.2*
G04 #@! TF.CreationDate,2026-05-16T14:58:47+02:00*
G04 #@! TF.ProjectId,ST1,5354312e-6b69-4636-9164-5f7063625858,rev?*
G04 #@! TF.SameCoordinates,Original*
G04 #@! TF.FileFunction,Legend,Bot*
G04 #@! TF.FilePolarity,Positive*
%FSLAX46Y46*%
G04 Gerber Fmt 4.6, Leading zero omitted, Abs format (unit mm)*
G04 Created by KiCad (PCBNEW 10.0.2) date 2026-05-16 14:58:47*
%MOMM*%
%LPD*%
G01*
G04 APERTURE LIST*
%ADD10C,0.150000*%
%ADD11C,0.120000*%
G04 APERTURE END LIST*
D10*
X109518220Y-76604819D02*
X109518220Y-75604819D01*
X109518220Y-75604819D02*
X109280125Y-75604819D01*
X109280125Y-75604819D02*
X109137268Y-75652438D01*
X109137268Y-75652438D02*
X109042030Y-75747676D01*
X109042030Y-75747676D02*
X108994411Y-75842914D01*
X108994411Y-75842914D02*
X108946792Y-76033390D01*
X108946792Y-76033390D02*
X108946792Y-76176247D01*
X108946792Y-76176247D02*
X108994411Y-76366723D01*
X108994411Y-76366723D02*
X109042030Y-76461961D01*
X109042030Y-76461961D02*
X109137268Y-76557200D01*
X109137268Y-76557200D02*
X109280125Y-76604819D01*
X109280125Y-76604819D02*
X109518220Y-76604819D01*
X108137268Y-76557200D02*
X108232506Y-76604819D01*
X108232506Y-76604819D02*
X108422982Y-76604819D01*
X108422982Y-76604819D02*
X108518220Y-76557200D01*
X108518220Y-76557200D02*
X108565839Y-76461961D01*
X108565839Y-76461961D02*
X108565839Y-76081009D01*
X108565839Y-76081009D02*
X108518220Y-75985771D01*
X108518220Y-75985771D02*
X108422982Y-75938152D01*
X108422982Y-75938152D02*
X108232506Y-75938152D01*
X108232506Y-75938152D02*
X108137268Y-75985771D01*
X108137268Y-75985771D02*
X108089649Y-76081009D01*
X108089649Y-76081009D02*
X108089649Y-76176247D01*
X108089649Y-76176247D02*
X108565839Y-76271485D01*
X107661077Y-76604819D02*
X107661077Y-75604819D01*
X107661077Y-75985771D02*
X107565839Y-75938152D01*
X107565839Y-75938152D02*
X107375363Y-75938152D01*
X107375363Y-75938152D02*
X107280125Y-75985771D01*
X107280125Y-75985771D02*
X107232506Y-76033390D01*
X107232506Y-76033390D02*
X107184887Y-76128628D01*
X107184887Y-76128628D02*
X107184887Y-76414342D01*
X107184887Y-76414342D02*
X107232506Y-76509580D01*
X107232506Y-76509580D02*
X107280125Y-76557200D01*
X107280125Y-76557200D02*
X107375363Y-76604819D01*
X107375363Y-76604819D02*
X107565839Y-76604819D01*
X107565839Y-76604819D02*
X107661077Y-76557200D01*
X106327744Y-75938152D02*
X106327744Y-76604819D01*
X106756315Y-75938152D02*
X106756315Y-76461961D01*
X106756315Y-76461961D02*
X106708696Y-76557200D01*
X106708696Y-76557200D02*
X106613458Y-76604819D01*
X106613458Y-76604819D02*
X106470601Y-76604819D01*
X106470601Y-76604819D02*
X106375363Y-76557200D01*
X106375363Y-76557200D02*
X106327744Y-76509580D01*
X105422982Y-75938152D02*
X105422982Y-76747676D01*
X105422982Y-76747676D02*
X105470601Y-76842914D01*
X105470601Y-76842914D02*
X105518220Y-76890533D01*
X105518220Y-76890533D02*
X105613458Y-76938152D01*
X105613458Y-76938152D02*
X105756315Y-76938152D01*
X105756315Y-76938152D02*
X105851553Y-76890533D01*
X105422982Y-76557200D02*
X105518220Y-76604819D01*
X105518220Y-76604819D02*
X105708696Y-76604819D01*
X105708696Y-76604819D02*
X105803934Y-76557200D01*
X105803934Y-76557200D02*
X105851553Y-76509580D01*
X105851553Y-76509580D02*
X105899172Y-76414342D01*
X105899172Y-76414342D02*
X105899172Y-76128628D01*
X105899172Y-76128628D02*
X105851553Y-76033390D01*
X105851553Y-76033390D02*
X105803934Y-75985771D01*
X105803934Y-75985771D02*
X105708696Y-75938152D01*
X105708696Y-75938152D02*
X105518220Y-75938152D01*
X105518220Y-75938152D02*
X105422982Y-75985771D01*
X104232505Y-76319104D02*
X103756315Y-76319104D01*
X104327743Y-76604819D02*
X103994410Y-75604819D01*
X103994410Y-75604819D02*
X103661077Y-76604819D01*
X102899172Y-76604819D02*
X102899172Y-75604819D01*
X102899172Y-76557200D02*
X102994410Y-76604819D01*
X102994410Y-76604819D02*
X103184886Y-76604819D01*
X103184886Y-76604819D02*
X103280124Y-76557200D01*
X103280124Y-76557200D02*
X103327743Y-76509580D01*
X103327743Y-76509580D02*
X103375362Y-76414342D01*
X103375362Y-76414342D02*
X103375362Y-76128628D01*
X103375362Y-76128628D02*
X103327743Y-76033390D01*
X103327743Y-76033390D02*
X103280124Y-75985771D01*
X103280124Y-75985771D02*
X103184886Y-75938152D01*
X103184886Y-75938152D02*
X102994410Y-75938152D01*
X102994410Y-75938152D02*
X102899172Y-75985771D01*
X101994410Y-76604819D02*
X101994410Y-76081009D01*
X101994410Y-76081009D02*
X102042029Y-75985771D01*
X102042029Y-75985771D02*
X102137267Y-75938152D01*
X102137267Y-75938152D02*
X102327743Y-75938152D01*
X102327743Y-75938152D02*
X102422981Y-75985771D01*
X101994410Y-76557200D02*
X102089648Y-76604819D01*
X102089648Y-76604819D02*
X102327743Y-76604819D01*
X102327743Y-76604819D02*
X102422981Y-76557200D01*
X102422981Y-76557200D02*
X102470600Y-76461961D01*
X102470600Y-76461961D02*
X102470600Y-76366723D01*
X102470600Y-76366723D02*
X102422981Y-76271485D01*
X102422981Y-76271485D02*
X102327743Y-76223866D01*
X102327743Y-76223866D02*
X102089648Y-76223866D01*
X102089648Y-76223866D02*
X101994410Y-76176247D01*
X101518219Y-75938152D02*
X101518219Y-76938152D01*
X101518219Y-75985771D02*
X101422981Y-75938152D01*
X101422981Y-75938152D02*
X101232505Y-75938152D01*
X101232505Y-75938152D02*
X101137267Y-75985771D01*
X101137267Y-75985771D02*
X101089648Y-76033390D01*
X101089648Y-76033390D02*
X101042029Y-76128628D01*
X101042029Y-76128628D02*
X101042029Y-76414342D01*
X101042029Y-76414342D02*
X101089648Y-76509580D01*
X101089648Y-76509580D02*
X101137267Y-76557200D01*
X101137267Y-76557200D02*
X101232505Y-76604819D01*
X101232505Y-76604819D02*
X101422981Y-76604819D01*
X101422981Y-76604819D02*
X101518219Y-76557200D01*
X100756314Y-75938152D02*
X100375362Y-75938152D01*
X100613457Y-75604819D02*
X100613457Y-76461961D01*
X100613457Y-76461961D02*
X100565838Y-76557200D01*
X100565838Y-76557200D02*
X100470600Y-76604819D01*
X100470600Y-76604819D02*
X100375362Y-76604819D01*
X99661076Y-76557200D02*
X99756314Y-76604819D01*
X99756314Y-76604819D02*
X99946790Y-76604819D01*
X99946790Y-76604819D02*
X100042028Y-76557200D01*
X100042028Y-76557200D02*
X100089647Y-76461961D01*
X100089647Y-76461961D02*
X100089647Y-76081009D01*
X100089647Y-76081009D02*
X100042028Y-75985771D01*
X100042028Y-75985771D02*
X99946790Y-75938152D01*
X99946790Y-75938152D02*
X99756314Y-75938152D01*
X99756314Y-75938152D02*
X99661076Y-75985771D01*
X99661076Y-75985771D02*
X99613457Y-76081009D01*
X99613457Y-76081009D02*
X99613457Y-76176247D01*
X99613457Y-76176247D02*
X100089647Y-76271485D01*
X99184885Y-76604819D02*
X99184885Y-75938152D01*
X99184885Y-76128628D02*
X99137266Y-76033390D01*
X99137266Y-76033390D02*
X99089647Y-75985771D01*
X99089647Y-75985771D02*
X98994409Y-75938152D01*
X98994409Y-75938152D02*
X98899171Y-75938152D01*
X109518220Y-78214763D02*
X109518220Y-77214763D01*
X109518220Y-77214763D02*
X109280125Y-77214763D01*
X109280125Y-77214763D02*
X109137268Y-77262382D01*
X109137268Y-77262382D02*
X109042030Y-77357620D01*
X109042030Y-77357620D02*
X108994411Y-77452858D01*
X108994411Y-77452858D02*
X108946792Y-77643334D01*
X108946792Y-77643334D02*
X108946792Y-77786191D01*
X108946792Y-77786191D02*
X108994411Y-77976667D01*
X108994411Y-77976667D02*
X109042030Y-78071905D01*
X109042030Y-78071905D02*
X109137268Y-78167144D01*
X109137268Y-78167144D02*
X109280125Y-78214763D01*
X109280125Y-78214763D02*
X109518220Y-78214763D01*
X107994411Y-77262382D02*
X108089649Y-77214763D01*
X108089649Y-77214763D02*
X108232506Y-77214763D01*
X108232506Y-77214763D02*
X108375363Y-77262382D01*
X108375363Y-77262382D02*
X108470601Y-77357620D01*
X108470601Y-77357620D02*
X108518220Y-77452858D01*
X108518220Y-77452858D02*
X108565839Y-77643334D01*
X108565839Y-77643334D02*
X108565839Y-77786191D01*
X108565839Y-77786191D02*
X108518220Y-77976667D01*
X108518220Y-77976667D02*
X108470601Y-78071905D01*
X108470601Y-78071905D02*
X108375363Y-78167144D01*
X108375363Y-78167144D02*
X108232506Y-78214763D01*
X108232506Y-78214763D02*
X108137268Y-78214763D01*
X108137268Y-78214763D02*
X107994411Y-78167144D01*
X107994411Y-78167144D02*
X107946792Y-78119524D01*
X107946792Y-78119524D02*
X107946792Y-77786191D01*
X107946792Y-77786191D02*
X108137268Y-77786191D01*
X106946792Y-78119524D02*
X106994411Y-78167144D01*
X106994411Y-78167144D02*
X107137268Y-78214763D01*
X107137268Y-78214763D02*
X107232506Y-78214763D01*
X107232506Y-78214763D02*
X107375363Y-78167144D01*
X107375363Y-78167144D02*
X107470601Y-78071905D01*
X107470601Y-78071905D02*
X107518220Y-77976667D01*
X107518220Y-77976667D02*
X107565839Y-77786191D01*
X107565839Y-77786191D02*
X107565839Y-77643334D01*
X107565839Y-77643334D02*
X107518220Y-77452858D01*
X107518220Y-77452858D02*
X107470601Y-77357620D01*
X107470601Y-77357620D02*
X107375363Y-77262382D01*
X107375363Y-77262382D02*
X107232506Y-77214763D01*
X107232506Y-77214763D02*
X107137268Y-77214763D01*
X107137268Y-77214763D02*
X106994411Y-77262382D01*
X106994411Y-77262382D02*
X106946792Y-77310001D01*
X106613458Y-77214763D02*
X105994411Y-77214763D01*
X105994411Y-77214763D02*
X106327744Y-77595715D01*
X106327744Y-77595715D02*
X106184887Y-77595715D01*
X106184887Y-77595715D02*
X106089649Y-77643334D01*
X106089649Y-77643334D02*
X106042030Y-77690953D01*
X106042030Y-77690953D02*
X105994411Y-77786191D01*
X105994411Y-77786191D02*
X105994411Y-78024286D01*
X105994411Y-78024286D02*
X106042030Y-78119524D01*
X106042030Y-78119524D02*
X106089649Y-78167144D01*
X106089649Y-78167144D02*
X106184887Y-78214763D01*
X106184887Y-78214763D02*
X106470601Y-78214763D01*
X106470601Y-78214763D02*
X106565839Y-78167144D01*
X106565839Y-78167144D02*
X106613458Y-78119524D01*
X105089649Y-77214763D02*
X105565839Y-77214763D01*
X105565839Y-77214763D02*
X105613458Y-77690953D01*
X105613458Y-77690953D02*
X105565839Y-77643334D01*
X105565839Y-77643334D02*
X105470601Y-77595715D01*
X105470601Y-77595715D02*
X105232506Y-77595715D01*
X105232506Y-77595715D02*
X105137268Y-77643334D01*
X105137268Y-77643334D02*
X105089649Y-77690953D01*
X105089649Y-77690953D02*
X105042030Y-77786191D01*
X105042030Y-77786191D02*
X105042030Y-78024286D01*
X105042030Y-78024286D02*
X105089649Y-78119524D01*
X105089649Y-78119524D02*
X105137268Y-78167144D01*
X105137268Y-78167144D02*
X105232506Y-78214763D01*
X105232506Y-78214763D02*
X105470601Y-78214763D01*
X105470601Y-78214763D02*
X105565839Y-78167144D01*
X105565839Y-78167144D02*
X105613458Y-78119524D01*
X103946791Y-77548096D02*
X103708696Y-78214763D01*
X103708696Y-78214763D02*
X103470601Y-77548096D01*
X103137267Y-77310001D02*
X103089648Y-77262382D01*
X103089648Y-77262382D02*
X102994410Y-77214763D01*
X102994410Y-77214763D02*
X102756315Y-77214763D01*
X102756315Y-77214763D02*
X102661077Y-77262382D01*
X102661077Y-77262382D02*
X102613458Y-77310001D01*
X102613458Y-77310001D02*
X102565839Y-77405239D01*
X102565839Y-77405239D02*
X102565839Y-77500477D01*
X102565839Y-77500477D02*
X102613458Y-77643334D01*
X102613458Y-77643334D02*
X103184886Y-78214763D01*
X103184886Y-78214763D02*
X102565839Y-78214763D01*
X102137267Y-78119524D02*
X102089648Y-78167144D01*
X102089648Y-78167144D02*
X102137267Y-78214763D01*
X102137267Y-78214763D02*
X102184886Y-78167144D01*
X102184886Y-78167144D02*
X102137267Y-78119524D01*
X102137267Y-78119524D02*
X102137267Y-78214763D01*
X101470601Y-77214763D02*
X101375363Y-77214763D01*
X101375363Y-77214763D02*
X101280125Y-77262382D01*
X101280125Y-77262382D02*
X101232506Y-77310001D01*
X101232506Y-77310001D02*
X101184887Y-77405239D01*
X101184887Y-77405239D02*
X101137268Y-77595715D01*
X101137268Y-77595715D02*
X101137268Y-77833810D01*
X101137268Y-77833810D02*
X101184887Y-78024286D01*
X101184887Y-78024286D02*
X101232506Y-78119524D01*
X101232506Y-78119524D02*
X101280125Y-78167144D01*
X101280125Y-78167144D02*
X101375363Y-78214763D01*
X101375363Y-78214763D02*
X101470601Y-78214763D01*
X101470601Y-78214763D02*
X101565839Y-78167144D01*
X101565839Y-78167144D02*
X101613458Y-78119524D01*
X101613458Y-78119524D02*
X101661077Y-78024286D01*
X101661077Y-78024286D02*
X101708696Y-77833810D01*
X101708696Y-77833810D02*
X101708696Y-77595715D01*
X101708696Y-77595715D02*
X101661077Y-77405239D01*
X101661077Y-77405239D02*
X101613458Y-77310001D01*
X101613458Y-77310001D02*
X101565839Y-77262382D01*
X101565839Y-77262382D02*
X101470601Y-77214763D01*
X109184887Y-87350617D02*
X109042030Y-87398236D01*
X109042030Y-87398236D02*
X108994411Y-87445855D01*
X108994411Y-87445855D02*
X108946792Y-87541093D01*
X108946792Y-87541093D02*
X108946792Y-87683950D01*
X108946792Y-87683950D02*
X108994411Y-87779188D01*
X108994411Y-87779188D02*
X109042030Y-87826808D01*
X109042030Y-87826808D02*
X109137268Y-87874427D01*
X109137268Y-87874427D02*
X109518220Y-87874427D01*
X109518220Y-87874427D02*
X109518220Y-86874427D01*
X109518220Y-86874427D02*
X109184887Y-86874427D01*
X109184887Y-86874427D02*
X109089649Y-86922046D01*
X109089649Y-86922046D02*
X109042030Y-86969665D01*
X109042030Y-86969665D02*
X108994411Y-87064903D01*
X108994411Y-87064903D02*
X108994411Y-87160141D01*
X108994411Y-87160141D02*
X109042030Y-87255379D01*
X109042030Y-87255379D02*
X109089649Y-87302998D01*
X109089649Y-87302998D02*
X109184887Y-87350617D01*
X109184887Y-87350617D02*
X109518220Y-87350617D01*
X108375363Y-87874427D02*
X108470601Y-87826808D01*
X108470601Y-87826808D02*
X108518220Y-87731569D01*
X108518220Y-87731569D02*
X108518220Y-86874427D01*
X107565839Y-87874427D02*
X107565839Y-87350617D01*
X107565839Y-87350617D02*
X107613458Y-87255379D01*
X107613458Y-87255379D02*
X107708696Y-87207760D01*
X107708696Y-87207760D02*
X107899172Y-87207760D01*
X107899172Y-87207760D02*
X107994410Y-87255379D01*
X107565839Y-87826808D02*
X107661077Y-87874427D01*
X107661077Y-87874427D02*
X107899172Y-87874427D01*
X107899172Y-87874427D02*
X107994410Y-87826808D01*
X107994410Y-87826808D02*
X108042029Y-87731569D01*
X108042029Y-87731569D02*
X108042029Y-87636331D01*
X108042029Y-87636331D02*
X107994410Y-87541093D01*
X107994410Y-87541093D02*
X107899172Y-87493474D01*
X107899172Y-87493474D02*
X107661077Y-87493474D01*
X107661077Y-87493474D02*
X107565839Y-87445855D01*
X106661077Y-87874427D02*
X106661077Y-87350617D01*
X106661077Y-87350617D02*
X106708696Y-87255379D01*
X106708696Y-87255379D02*
X106803934Y-87207760D01*
X106803934Y-87207760D02*
X106994410Y-87207760D01*
X106994410Y-87207760D02*
X107089648Y-87255379D01*
X106661077Y-87826808D02*
X106756315Y-87874427D01*
X106756315Y-87874427D02*
X106994410Y-87874427D01*
X106994410Y-87874427D02*
X107089648Y-87826808D01*
X107089648Y-87826808D02*
X107137267Y-87731569D01*
X107137267Y-87731569D02*
X107137267Y-87636331D01*
X107137267Y-87636331D02*
X107089648Y-87541093D01*
X107089648Y-87541093D02*
X106994410Y-87493474D01*
X106994410Y-87493474D02*
X106756315Y-87493474D01*
X106756315Y-87493474D02*
X106661077Y-87445855D01*
X106327743Y-87207760D02*
X105946791Y-87207760D01*
X106184886Y-86874427D02*
X106184886Y-87731569D01*
X106184886Y-87731569D02*
X106137267Y-87826808D01*
X106137267Y-87826808D02*
X106042029Y-87874427D01*
X106042029Y-87874427D02*
X105946791Y-87874427D01*
X105661076Y-87826808D02*
X105518219Y-87874427D01*
X105518219Y-87874427D02*
X105280124Y-87874427D01*
X105280124Y-87874427D02*
X105184886Y-87826808D01*
X105184886Y-87826808D02*
X105137267Y-87779188D01*
X105137267Y-87779188D02*
X105089648Y-87683950D01*
X105089648Y-87683950D02*
X105089648Y-87588712D01*
X105089648Y-87588712D02*
X105137267Y-87493474D01*
X105137267Y-87493474D02*
X105184886Y-87445855D01*
X105184886Y-87445855D02*
X105280124Y-87398236D01*
X105280124Y-87398236D02*
X105470600Y-87350617D01*
X105470600Y-87350617D02*
X105565838Y-87302998D01*
X105565838Y-87302998D02*
X105613457Y-87255379D01*
X105613457Y-87255379D02*
X105661076Y-87160141D01*
X105661076Y-87160141D02*
X105661076Y-87064903D01*
X105661076Y-87064903D02*
X105613457Y-86969665D01*
X105613457Y-86969665D02*
X105565838Y-86922046D01*
X105565838Y-86922046D02*
X105470600Y-86874427D01*
X105470600Y-86874427D02*
X105232505Y-86874427D01*
X105232505Y-86874427D02*
X105089648Y-86922046D01*
X104232505Y-87826808D02*
X104327743Y-87874427D01*
X104327743Y-87874427D02*
X104518219Y-87874427D01*
X104518219Y-87874427D02*
X104613457Y-87826808D01*
X104613457Y-87826808D02*
X104661076Y-87779188D01*
X104661076Y-87779188D02*
X104708695Y-87683950D01*
X104708695Y-87683950D02*
X104708695Y-87398236D01*
X104708695Y-87398236D02*
X104661076Y-87302998D01*
X104661076Y-87302998D02*
X104613457Y-87255379D01*
X104613457Y-87255379D02*
X104518219Y-87207760D01*
X104518219Y-87207760D02*
X104327743Y-87207760D01*
X104327743Y-87207760D02*
X104232505Y-87255379D01*
X103803933Y-87874427D02*
X103803933Y-86874427D01*
X103375362Y-87874427D02*
X103375362Y-87350617D01*
X103375362Y-87350617D02*
X103422981Y-87255379D01*
X103422981Y-87255379D02*
X103518219Y-87207760D01*
X103518219Y-87207760D02*
X103661076Y-87207760D01*
X103661076Y-87207760D02*
X103756314Y-87255379D01*
X103756314Y-87255379D02*
X103803933Y-87302998D01*
X102470600Y-87874427D02*
X102470600Y-87350617D01*
X102470600Y-87350617D02*
X102518219Y-87255379D01*
X102518219Y-87255379D02*
X102613457Y-87207760D01*
X102613457Y-87207760D02*
X102803933Y-87207760D01*
X102803933Y-87207760D02*
X102899171Y-87255379D01*
X102470600Y-87826808D02*
X102565838Y-87874427D01*
X102565838Y-87874427D02*
X102803933Y-87874427D01*
X102803933Y-87874427D02*
X102899171Y-87826808D01*
X102899171Y-87826808D02*
X102946790Y-87731569D01*
X102946790Y-87731569D02*
X102946790Y-87636331D01*
X102946790Y-87636331D02*
X102899171Y-87541093D01*
X102899171Y-87541093D02*
X102803933Y-87493474D01*
X102803933Y-87493474D02*
X102565838Y-87493474D01*
X102565838Y-87493474D02*
X102470600Y-87445855D01*
X101565838Y-87874427D02*
X101565838Y-87350617D01*
X101565838Y-87350617D02*
X101613457Y-87255379D01*
X101613457Y-87255379D02*
X101708695Y-87207760D01*
X101708695Y-87207760D02*
X101899171Y-87207760D01*
X101899171Y-87207760D02*
X101994409Y-87255379D01*
X101565838Y-87826808D02*
X101661076Y-87874427D01*
X101661076Y-87874427D02*
X101899171Y-87874427D01*
X101899171Y-87874427D02*
X101994409Y-87826808D01*
X101994409Y-87826808D02*
X102042028Y-87731569D01*
X102042028Y-87731569D02*
X102042028Y-87636331D01*
X102042028Y-87636331D02*
X101994409Y-87541093D01*
X101994409Y-87541093D02*
X101899171Y-87493474D01*
X101899171Y-87493474D02*
X101661076Y-87493474D01*
X101661076Y-87493474D02*
X101565838Y-87445855D01*
X101089647Y-87207760D02*
X101089647Y-88207760D01*
X101089647Y-87255379D02*
X100994409Y-87207760D01*
X100994409Y-87207760D02*
X100803933Y-87207760D01*
X100803933Y-87207760D02*
X100708695Y-87255379D01*
X100708695Y-87255379D02*
X100661076Y-87302998D01*
X100661076Y-87302998D02*
X100613457Y-87398236D01*
X100613457Y-87398236D02*
X100613457Y-87683950D01*
X100613457Y-87683950D02*
X100661076Y-87779188D01*
X100661076Y-87779188D02*
X100708695Y-87826808D01*
X100708695Y-87826808D02*
X100803933Y-87874427D01*
X100803933Y-87874427D02*
X100994409Y-87874427D01*
X100994409Y-87874427D02*
X101089647Y-87826808D01*
D11*
X86430000Y-77410000D02*
X95060000Y-77410000D01*
X86430000Y-80010000D02*
X95060000Y-80010000D01*
X86430000Y-82550000D02*
X95060000Y-82550000D01*
X86430000Y-85090000D02*
X95060000Y-85090000D01*
X86430000Y-87630000D02*
X95060000Y-87630000D01*
X86430000Y-87748095D02*
X95060000Y-87748095D01*
X86430000Y-87866190D02*
X95060000Y-87866190D01*
X86430000Y-87984286D02*
X95060000Y-87984286D01*
X86430000Y-88102381D02*
X95060000Y-88102381D01*
X86430000Y-88220476D02*
X95060000Y-88220476D01*
X86430000Y-88338571D02*
X95060000Y-88338571D01*
X86430000Y-88456667D02*
X95060000Y-88456667D01*
X86430000Y-88574762D02*
X95060000Y-88574762D01*
X86430000Y-88692857D02*
X95060000Y-88692857D01*
X86430000Y-88810952D02*
X95060000Y-88810952D01*
X86430000Y-88929048D02*
X95060000Y-88929048D01*
X86430000Y-89047143D02*
X95060000Y-89047143D01*
X86430000Y-89165238D02*
X95060000Y-89165238D01*
X86430000Y-89283333D02*
X95060000Y-89283333D01*
X86430000Y-89401429D02*
X95060000Y-89401429D01*
X86430000Y-89519524D02*
X95060000Y-89519524D01*
X86430000Y-89637619D02*
X95060000Y-89637619D01*
X86430000Y-89755714D02*
X95060000Y-89755714D01*
X86430000Y-89873810D02*
X95060000Y-89873810D01*
X86430000Y-89991905D02*
X95060000Y-89991905D01*
X86430000Y-90110000D02*
X95060000Y-90110000D01*
X86430000Y-90230000D02*
X86430000Y-77410000D01*
X86430000Y-90230000D02*
X95060000Y-90230000D01*
X95060000Y-78380000D02*
X95470000Y-78380000D01*
X95060000Y-79100000D02*
X95470000Y-79100000D01*
X95060000Y-80920000D02*
X95470000Y-80920000D01*
X95060000Y-81640000D02*
X95470000Y-81640000D01*
X95060000Y-83460000D02*
X95470000Y-83460000D01*
X95060000Y-84180000D02*
X95470000Y-84180000D01*
X95060000Y-86000000D02*
X95470000Y-86000000D01*
X95060000Y-86720000D02*
X95470000Y-86720000D01*
X95060000Y-88540000D02*
X95470000Y-88540000D01*
X95060000Y-89260000D02*
X95470000Y-89260000D01*
X95060000Y-90230000D02*
X95060000Y-77410000D01*
X97570000Y-78380000D02*
X98010000Y-78380000D01*
X97570000Y-79100000D02*
X98010000Y-79100000D01*
X97570000Y-80920000D02*
X98010000Y-80920000D01*
X97570000Y-81640000D02*
X98010000Y-81640000D01*
X97570000Y-83460000D02*
X98010000Y-83460000D01*
X97570000Y-84180000D02*
X98010000Y-84180000D01*
X97570000Y-86000000D02*
X98010000Y-86000000D01*
X97570000Y-86720000D02*
X98010000Y-86720000D01*
X97570000Y-88540000D02*
X97950000Y-88540000D01*
X97570000Y-89260000D02*
X97950000Y-89260000D01*
X99060000Y-90230000D02*
X100170000Y-90230000D01*
X100170000Y-90230000D02*
X100170000Y-88900000D01*
M02*
