G04 #@! TF.GenerationSoftware,KiCad,Pcbnew,10.0.2*
G04 #@! TF.CreationDate,2026-05-16T15:02:57+02:00*
G04 #@! TF.ProjectId,stlink-cdg35,73746c69-6e6b-42d6-9364-6733352e6b69,rev?*
G04 #@! TF.SameCoordinates,Original*
G04 #@! TF.FileFunction,Legend,Bot*
G04 #@! TF.FilePolarity,Positive*
%FSLAX46Y46*%
G04 Gerber Fmt 4.6, Leading zero omitted, Abs format (unit mm)*
G04 Created by KiCad (PCBNEW 10.0.2) date 2026-05-16 15:02:57*
%MOMM*%
%LPD*%
G01*
G04 APERTURE LIST*
%ADD10C,0.150000*%
%ADD11C,0.120000*%
G04 APERTURE END LIST*
D10*
X109518220Y-76230211D02*
X109518220Y-75230211D01*
X109518220Y-75230211D02*
X109280125Y-75230211D01*
X109280125Y-75230211D02*
X109137268Y-75277830D01*
X109137268Y-75277830D02*
X109042030Y-75373068D01*
X109042030Y-75373068D02*
X108994411Y-75468306D01*
X108994411Y-75468306D02*
X108946792Y-75658782D01*
X108946792Y-75658782D02*
X108946792Y-75801639D01*
X108946792Y-75801639D02*
X108994411Y-75992115D01*
X108994411Y-75992115D02*
X109042030Y-76087353D01*
X109042030Y-76087353D02*
X109137268Y-76182592D01*
X109137268Y-76182592D02*
X109280125Y-76230211D01*
X109280125Y-76230211D02*
X109518220Y-76230211D01*
X108137268Y-76182592D02*
X108232506Y-76230211D01*
X108232506Y-76230211D02*
X108422982Y-76230211D01*
X108422982Y-76230211D02*
X108518220Y-76182592D01*
X108518220Y-76182592D02*
X108565839Y-76087353D01*
X108565839Y-76087353D02*
X108565839Y-75706401D01*
X108565839Y-75706401D02*
X108518220Y-75611163D01*
X108518220Y-75611163D02*
X108422982Y-75563544D01*
X108422982Y-75563544D02*
X108232506Y-75563544D01*
X108232506Y-75563544D02*
X108137268Y-75611163D01*
X108137268Y-75611163D02*
X108089649Y-75706401D01*
X108089649Y-75706401D02*
X108089649Y-75801639D01*
X108089649Y-75801639D02*
X108565839Y-75896877D01*
X107661077Y-76230211D02*
X107661077Y-75230211D01*
X107661077Y-75611163D02*
X107565839Y-75563544D01*
X107565839Y-75563544D02*
X107375363Y-75563544D01*
X107375363Y-75563544D02*
X107280125Y-75611163D01*
X107280125Y-75611163D02*
X107232506Y-75658782D01*
X107232506Y-75658782D02*
X107184887Y-75754020D01*
X107184887Y-75754020D02*
X107184887Y-76039734D01*
X107184887Y-76039734D02*
X107232506Y-76134972D01*
X107232506Y-76134972D02*
X107280125Y-76182592D01*
X107280125Y-76182592D02*
X107375363Y-76230211D01*
X107375363Y-76230211D02*
X107565839Y-76230211D01*
X107565839Y-76230211D02*
X107661077Y-76182592D01*
X106327744Y-75563544D02*
X106327744Y-76230211D01*
X106756315Y-75563544D02*
X106756315Y-76087353D01*
X106756315Y-76087353D02*
X106708696Y-76182592D01*
X106708696Y-76182592D02*
X106613458Y-76230211D01*
X106613458Y-76230211D02*
X106470601Y-76230211D01*
X106470601Y-76230211D02*
X106375363Y-76182592D01*
X106375363Y-76182592D02*
X106327744Y-76134972D01*
X105422982Y-75563544D02*
X105422982Y-76373068D01*
X105422982Y-76373068D02*
X105470601Y-76468306D01*
X105470601Y-76468306D02*
X105518220Y-76515925D01*
X105518220Y-76515925D02*
X105613458Y-76563544D01*
X105613458Y-76563544D02*
X105756315Y-76563544D01*
X105756315Y-76563544D02*
X105851553Y-76515925D01*
X105422982Y-76182592D02*
X105518220Y-76230211D01*
X105518220Y-76230211D02*
X105708696Y-76230211D01*
X105708696Y-76230211D02*
X105803934Y-76182592D01*
X105803934Y-76182592D02*
X105851553Y-76134972D01*
X105851553Y-76134972D02*
X105899172Y-76039734D01*
X105899172Y-76039734D02*
X105899172Y-75754020D01*
X105899172Y-75754020D02*
X105851553Y-75658782D01*
X105851553Y-75658782D02*
X105803934Y-75611163D01*
X105803934Y-75611163D02*
X105708696Y-75563544D01*
X105708696Y-75563544D02*
X105518220Y-75563544D01*
X105518220Y-75563544D02*
X105422982Y-75611163D01*
X104232505Y-75944496D02*
X103756315Y-75944496D01*
X104327743Y-76230211D02*
X103994410Y-75230211D01*
X103994410Y-75230211D02*
X103661077Y-76230211D01*
X102899172Y-76230211D02*
X102899172Y-75230211D01*
X102899172Y-76182592D02*
X102994410Y-76230211D01*
X102994410Y-76230211D02*
X103184886Y-76230211D01*
X103184886Y-76230211D02*
X103280124Y-76182592D01*
X103280124Y-76182592D02*
X103327743Y-76134972D01*
X103327743Y-76134972D02*
X103375362Y-76039734D01*
X103375362Y-76039734D02*
X103375362Y-75754020D01*
X103375362Y-75754020D02*
X103327743Y-75658782D01*
X103327743Y-75658782D02*
X103280124Y-75611163D01*
X103280124Y-75611163D02*
X103184886Y-75563544D01*
X103184886Y-75563544D02*
X102994410Y-75563544D01*
X102994410Y-75563544D02*
X102899172Y-75611163D01*
X101994410Y-76230211D02*
X101994410Y-75706401D01*
X101994410Y-75706401D02*
X102042029Y-75611163D01*
X102042029Y-75611163D02*
X102137267Y-75563544D01*
X102137267Y-75563544D02*
X102327743Y-75563544D01*
X102327743Y-75563544D02*
X102422981Y-75611163D01*
X101994410Y-76182592D02*
X102089648Y-76230211D01*
X102089648Y-76230211D02*
X102327743Y-76230211D01*
X102327743Y-76230211D02*
X102422981Y-76182592D01*
X102422981Y-76182592D02*
X102470600Y-76087353D01*
X102470600Y-76087353D02*
X102470600Y-75992115D01*
X102470600Y-75992115D02*
X102422981Y-75896877D01*
X102422981Y-75896877D02*
X102327743Y-75849258D01*
X102327743Y-75849258D02*
X102089648Y-75849258D01*
X102089648Y-75849258D02*
X101994410Y-75801639D01*
X101518219Y-75563544D02*
X101518219Y-76563544D01*
X101518219Y-75611163D02*
X101422981Y-75563544D01*
X101422981Y-75563544D02*
X101232505Y-75563544D01*
X101232505Y-75563544D02*
X101137267Y-75611163D01*
X101137267Y-75611163D02*
X101089648Y-75658782D01*
X101089648Y-75658782D02*
X101042029Y-75754020D01*
X101042029Y-75754020D02*
X101042029Y-76039734D01*
X101042029Y-76039734D02*
X101089648Y-76134972D01*
X101089648Y-76134972D02*
X101137267Y-76182592D01*
X101137267Y-76182592D02*
X101232505Y-76230211D01*
X101232505Y-76230211D02*
X101422981Y-76230211D01*
X101422981Y-76230211D02*
X101518219Y-76182592D01*
X100756314Y-75563544D02*
X100375362Y-75563544D01*
X100613457Y-75230211D02*
X100613457Y-76087353D01*
X100613457Y-76087353D02*
X100565838Y-76182592D01*
X100565838Y-76182592D02*
X100470600Y-76230211D01*
X100470600Y-76230211D02*
X100375362Y-76230211D01*
X99661076Y-76182592D02*
X99756314Y-76230211D01*
X99756314Y-76230211D02*
X99946790Y-76230211D01*
X99946790Y-76230211D02*
X100042028Y-76182592D01*
X100042028Y-76182592D02*
X100089647Y-76087353D01*
X100089647Y-76087353D02*
X100089647Y-75706401D01*
X100089647Y-75706401D02*
X100042028Y-75611163D01*
X100042028Y-75611163D02*
X99946790Y-75563544D01*
X99946790Y-75563544D02*
X99756314Y-75563544D01*
X99756314Y-75563544D02*
X99661076Y-75611163D01*
X99661076Y-75611163D02*
X99613457Y-75706401D01*
X99613457Y-75706401D02*
X99613457Y-75801639D01*
X99613457Y-75801639D02*
X100089647Y-75896877D01*
X99184885Y-76230211D02*
X99184885Y-75563544D01*
X99184885Y-75754020D02*
X99137266Y-75658782D01*
X99137266Y-75658782D02*
X99089647Y-75611163D01*
X99089647Y-75611163D02*
X98994409Y-75563544D01*
X98994409Y-75563544D02*
X98899171Y-75563544D01*
X108946792Y-77744916D02*
X108994411Y-77792536D01*
X108994411Y-77792536D02*
X109137268Y-77840155D01*
X109137268Y-77840155D02*
X109232506Y-77840155D01*
X109232506Y-77840155D02*
X109375363Y-77792536D01*
X109375363Y-77792536D02*
X109470601Y-77697297D01*
X109470601Y-77697297D02*
X109518220Y-77602059D01*
X109518220Y-77602059D02*
X109565839Y-77411583D01*
X109565839Y-77411583D02*
X109565839Y-77268726D01*
X109565839Y-77268726D02*
X109518220Y-77078250D01*
X109518220Y-77078250D02*
X109470601Y-76983012D01*
X109470601Y-76983012D02*
X109375363Y-76887774D01*
X109375363Y-76887774D02*
X109232506Y-76840155D01*
X109232506Y-76840155D02*
X109137268Y-76840155D01*
X109137268Y-76840155D02*
X108994411Y-76887774D01*
X108994411Y-76887774D02*
X108946792Y-76935393D01*
X108518220Y-77840155D02*
X108518220Y-76840155D01*
X108518220Y-76840155D02*
X108280125Y-76840155D01*
X108280125Y-76840155D02*
X108137268Y-76887774D01*
X108137268Y-76887774D02*
X108042030Y-76983012D01*
X108042030Y-76983012D02*
X107994411Y-77078250D01*
X107994411Y-77078250D02*
X107946792Y-77268726D01*
X107946792Y-77268726D02*
X107946792Y-77411583D01*
X107946792Y-77411583D02*
X107994411Y-77602059D01*
X107994411Y-77602059D02*
X108042030Y-77697297D01*
X108042030Y-77697297D02*
X108137268Y-77792536D01*
X108137268Y-77792536D02*
X108280125Y-77840155D01*
X108280125Y-77840155D02*
X108518220Y-77840155D01*
X106994411Y-76887774D02*
X107089649Y-76840155D01*
X107089649Y-76840155D02*
X107232506Y-76840155D01*
X107232506Y-76840155D02*
X107375363Y-76887774D01*
X107375363Y-76887774D02*
X107470601Y-76983012D01*
X107470601Y-76983012D02*
X107518220Y-77078250D01*
X107518220Y-77078250D02*
X107565839Y-77268726D01*
X107565839Y-77268726D02*
X107565839Y-77411583D01*
X107565839Y-77411583D02*
X107518220Y-77602059D01*
X107518220Y-77602059D02*
X107470601Y-77697297D01*
X107470601Y-77697297D02*
X107375363Y-77792536D01*
X107375363Y-77792536D02*
X107232506Y-77840155D01*
X107232506Y-77840155D02*
X107137268Y-77840155D01*
X107137268Y-77840155D02*
X106994411Y-77792536D01*
X106994411Y-77792536D02*
X106946792Y-77744916D01*
X106946792Y-77744916D02*
X106946792Y-77411583D01*
X106946792Y-77411583D02*
X107137268Y-77411583D01*
X106613458Y-76840155D02*
X105994411Y-76840155D01*
X105994411Y-76840155D02*
X106327744Y-77221107D01*
X106327744Y-77221107D02*
X106184887Y-77221107D01*
X106184887Y-77221107D02*
X106089649Y-77268726D01*
X106089649Y-77268726D02*
X106042030Y-77316345D01*
X106042030Y-77316345D02*
X105994411Y-77411583D01*
X105994411Y-77411583D02*
X105994411Y-77649678D01*
X105994411Y-77649678D02*
X106042030Y-77744916D01*
X106042030Y-77744916D02*
X106089649Y-77792536D01*
X106089649Y-77792536D02*
X106184887Y-77840155D01*
X106184887Y-77840155D02*
X106470601Y-77840155D01*
X106470601Y-77840155D02*
X106565839Y-77792536D01*
X106565839Y-77792536D02*
X106613458Y-77744916D01*
X105089649Y-76840155D02*
X105565839Y-76840155D01*
X105565839Y-76840155D02*
X105613458Y-77316345D01*
X105613458Y-77316345D02*
X105565839Y-77268726D01*
X105565839Y-77268726D02*
X105470601Y-77221107D01*
X105470601Y-77221107D02*
X105232506Y-77221107D01*
X105232506Y-77221107D02*
X105137268Y-77268726D01*
X105137268Y-77268726D02*
X105089649Y-77316345D01*
X105089649Y-77316345D02*
X105042030Y-77411583D01*
X105042030Y-77411583D02*
X105042030Y-77649678D01*
X105042030Y-77649678D02*
X105089649Y-77744916D01*
X105089649Y-77744916D02*
X105137268Y-77792536D01*
X105137268Y-77792536D02*
X105232506Y-77840155D01*
X105232506Y-77840155D02*
X105470601Y-77840155D01*
X105470601Y-77840155D02*
X105565839Y-77792536D01*
X105565839Y-77792536D02*
X105613458Y-77744916D01*
X103946791Y-77173488D02*
X103708696Y-77840155D01*
X103708696Y-77840155D02*
X103470601Y-77173488D01*
X103137267Y-76935393D02*
X103089648Y-76887774D01*
X103089648Y-76887774D02*
X102994410Y-76840155D01*
X102994410Y-76840155D02*
X102756315Y-76840155D01*
X102756315Y-76840155D02*
X102661077Y-76887774D01*
X102661077Y-76887774D02*
X102613458Y-76935393D01*
X102613458Y-76935393D02*
X102565839Y-77030631D01*
X102565839Y-77030631D02*
X102565839Y-77125869D01*
X102565839Y-77125869D02*
X102613458Y-77268726D01*
X102613458Y-77268726D02*
X103184886Y-77840155D01*
X103184886Y-77840155D02*
X102565839Y-77840155D01*
X102137267Y-77744916D02*
X102089648Y-77792536D01*
X102089648Y-77792536D02*
X102137267Y-77840155D01*
X102137267Y-77840155D02*
X102184886Y-77792536D01*
X102184886Y-77792536D02*
X102137267Y-77744916D01*
X102137267Y-77744916D02*
X102137267Y-77840155D01*
X101470601Y-76840155D02*
X101375363Y-76840155D01*
X101375363Y-76840155D02*
X101280125Y-76887774D01*
X101280125Y-76887774D02*
X101232506Y-76935393D01*
X101232506Y-76935393D02*
X101184887Y-77030631D01*
X101184887Y-77030631D02*
X101137268Y-77221107D01*
X101137268Y-77221107D02*
X101137268Y-77459202D01*
X101137268Y-77459202D02*
X101184887Y-77649678D01*
X101184887Y-77649678D02*
X101232506Y-77744916D01*
X101232506Y-77744916D02*
X101280125Y-77792536D01*
X101280125Y-77792536D02*
X101375363Y-77840155D01*
X101375363Y-77840155D02*
X101470601Y-77840155D01*
X101470601Y-77840155D02*
X101565839Y-77792536D01*
X101565839Y-77792536D02*
X101613458Y-77744916D01*
X101613458Y-77744916D02*
X101661077Y-77649678D01*
X101661077Y-77649678D02*
X101708696Y-77459202D01*
X101708696Y-77459202D02*
X101708696Y-77221107D01*
X101708696Y-77221107D02*
X101661077Y-77030631D01*
X101661077Y-77030631D02*
X101613458Y-76935393D01*
X101613458Y-76935393D02*
X101565839Y-76887774D01*
X101565839Y-76887774D02*
X101470601Y-76840155D01*
X109184887Y-86976009D02*
X109042030Y-87023628D01*
X109042030Y-87023628D02*
X108994411Y-87071247D01*
X108994411Y-87071247D02*
X108946792Y-87166485D01*
X108946792Y-87166485D02*
X108946792Y-87309342D01*
X108946792Y-87309342D02*
X108994411Y-87404580D01*
X108994411Y-87404580D02*
X109042030Y-87452200D01*
X109042030Y-87452200D02*
X109137268Y-87499819D01*
X109137268Y-87499819D02*
X109518220Y-87499819D01*
X109518220Y-87499819D02*
X109518220Y-86499819D01*
X109518220Y-86499819D02*
X109184887Y-86499819D01*
X109184887Y-86499819D02*
X109089649Y-86547438D01*
X109089649Y-86547438D02*
X109042030Y-86595057D01*
X109042030Y-86595057D02*
X108994411Y-86690295D01*
X108994411Y-86690295D02*
X108994411Y-86785533D01*
X108994411Y-86785533D02*
X109042030Y-86880771D01*
X109042030Y-86880771D02*
X109089649Y-86928390D01*
X109089649Y-86928390D02*
X109184887Y-86976009D01*
X109184887Y-86976009D02*
X109518220Y-86976009D01*
X108375363Y-87499819D02*
X108470601Y-87452200D01*
X108470601Y-87452200D02*
X108518220Y-87356961D01*
X108518220Y-87356961D02*
X108518220Y-86499819D01*
X107565839Y-87499819D02*
X107565839Y-86976009D01*
X107565839Y-86976009D02*
X107613458Y-86880771D01*
X107613458Y-86880771D02*
X107708696Y-86833152D01*
X107708696Y-86833152D02*
X107899172Y-86833152D01*
X107899172Y-86833152D02*
X107994410Y-86880771D01*
X107565839Y-87452200D02*
X107661077Y-87499819D01*
X107661077Y-87499819D02*
X107899172Y-87499819D01*
X107899172Y-87499819D02*
X107994410Y-87452200D01*
X107994410Y-87452200D02*
X108042029Y-87356961D01*
X108042029Y-87356961D02*
X108042029Y-87261723D01*
X108042029Y-87261723D02*
X107994410Y-87166485D01*
X107994410Y-87166485D02*
X107899172Y-87118866D01*
X107899172Y-87118866D02*
X107661077Y-87118866D01*
X107661077Y-87118866D02*
X107565839Y-87071247D01*
X106661077Y-87499819D02*
X106661077Y-86976009D01*
X106661077Y-86976009D02*
X106708696Y-86880771D01*
X106708696Y-86880771D02*
X106803934Y-86833152D01*
X106803934Y-86833152D02*
X106994410Y-86833152D01*
X106994410Y-86833152D02*
X107089648Y-86880771D01*
X106661077Y-87452200D02*
X106756315Y-87499819D01*
X106756315Y-87499819D02*
X106994410Y-87499819D01*
X106994410Y-87499819D02*
X107089648Y-87452200D01*
X107089648Y-87452200D02*
X107137267Y-87356961D01*
X107137267Y-87356961D02*
X107137267Y-87261723D01*
X107137267Y-87261723D02*
X107089648Y-87166485D01*
X107089648Y-87166485D02*
X106994410Y-87118866D01*
X106994410Y-87118866D02*
X106756315Y-87118866D01*
X106756315Y-87118866D02*
X106661077Y-87071247D01*
X106327743Y-86833152D02*
X105946791Y-86833152D01*
X106184886Y-86499819D02*
X106184886Y-87356961D01*
X106184886Y-87356961D02*
X106137267Y-87452200D01*
X106137267Y-87452200D02*
X106042029Y-87499819D01*
X106042029Y-87499819D02*
X105946791Y-87499819D01*
X105661076Y-87452200D02*
X105518219Y-87499819D01*
X105518219Y-87499819D02*
X105280124Y-87499819D01*
X105280124Y-87499819D02*
X105184886Y-87452200D01*
X105184886Y-87452200D02*
X105137267Y-87404580D01*
X105137267Y-87404580D02*
X105089648Y-87309342D01*
X105089648Y-87309342D02*
X105089648Y-87214104D01*
X105089648Y-87214104D02*
X105137267Y-87118866D01*
X105137267Y-87118866D02*
X105184886Y-87071247D01*
X105184886Y-87071247D02*
X105280124Y-87023628D01*
X105280124Y-87023628D02*
X105470600Y-86976009D01*
X105470600Y-86976009D02*
X105565838Y-86928390D01*
X105565838Y-86928390D02*
X105613457Y-86880771D01*
X105613457Y-86880771D02*
X105661076Y-86785533D01*
X105661076Y-86785533D02*
X105661076Y-86690295D01*
X105661076Y-86690295D02*
X105613457Y-86595057D01*
X105613457Y-86595057D02*
X105565838Y-86547438D01*
X105565838Y-86547438D02*
X105470600Y-86499819D01*
X105470600Y-86499819D02*
X105232505Y-86499819D01*
X105232505Y-86499819D02*
X105089648Y-86547438D01*
X104232505Y-87452200D02*
X104327743Y-87499819D01*
X104327743Y-87499819D02*
X104518219Y-87499819D01*
X104518219Y-87499819D02*
X104613457Y-87452200D01*
X104613457Y-87452200D02*
X104661076Y-87404580D01*
X104661076Y-87404580D02*
X104708695Y-87309342D01*
X104708695Y-87309342D02*
X104708695Y-87023628D01*
X104708695Y-87023628D02*
X104661076Y-86928390D01*
X104661076Y-86928390D02*
X104613457Y-86880771D01*
X104613457Y-86880771D02*
X104518219Y-86833152D01*
X104518219Y-86833152D02*
X104327743Y-86833152D01*
X104327743Y-86833152D02*
X104232505Y-86880771D01*
X103803933Y-87499819D02*
X103803933Y-86499819D01*
X103375362Y-87499819D02*
X103375362Y-86976009D01*
X103375362Y-86976009D02*
X103422981Y-86880771D01*
X103422981Y-86880771D02*
X103518219Y-86833152D01*
X103518219Y-86833152D02*
X103661076Y-86833152D01*
X103661076Y-86833152D02*
X103756314Y-86880771D01*
X103756314Y-86880771D02*
X103803933Y-86928390D01*
X102470600Y-87499819D02*
X102470600Y-86976009D01*
X102470600Y-86976009D02*
X102518219Y-86880771D01*
X102518219Y-86880771D02*
X102613457Y-86833152D01*
X102613457Y-86833152D02*
X102803933Y-86833152D01*
X102803933Y-86833152D02*
X102899171Y-86880771D01*
X102470600Y-87452200D02*
X102565838Y-87499819D01*
X102565838Y-87499819D02*
X102803933Y-87499819D01*
X102803933Y-87499819D02*
X102899171Y-87452200D01*
X102899171Y-87452200D02*
X102946790Y-87356961D01*
X102946790Y-87356961D02*
X102946790Y-87261723D01*
X102946790Y-87261723D02*
X102899171Y-87166485D01*
X102899171Y-87166485D02*
X102803933Y-87118866D01*
X102803933Y-87118866D02*
X102565838Y-87118866D01*
X102565838Y-87118866D02*
X102470600Y-87071247D01*
X101565838Y-87499819D02*
X101565838Y-86976009D01*
X101565838Y-86976009D02*
X101613457Y-86880771D01*
X101613457Y-86880771D02*
X101708695Y-86833152D01*
X101708695Y-86833152D02*
X101899171Y-86833152D01*
X101899171Y-86833152D02*
X101994409Y-86880771D01*
X101565838Y-87452200D02*
X101661076Y-87499819D01*
X101661076Y-87499819D02*
X101899171Y-87499819D01*
X101899171Y-87499819D02*
X101994409Y-87452200D01*
X101994409Y-87452200D02*
X102042028Y-87356961D01*
X102042028Y-87356961D02*
X102042028Y-87261723D01*
X102042028Y-87261723D02*
X101994409Y-87166485D01*
X101994409Y-87166485D02*
X101899171Y-87118866D01*
X101899171Y-87118866D02*
X101661076Y-87118866D01*
X101661076Y-87118866D02*
X101565838Y-87071247D01*
X101089647Y-86833152D02*
X101089647Y-87833152D01*
X101089647Y-86880771D02*
X100994409Y-86833152D01*
X100994409Y-86833152D02*
X100803933Y-86833152D01*
X100803933Y-86833152D02*
X100708695Y-86880771D01*
X100708695Y-86880771D02*
X100661076Y-86928390D01*
X100661076Y-86928390D02*
X100613457Y-87023628D01*
X100613457Y-87023628D02*
X100613457Y-87309342D01*
X100613457Y-87309342D02*
X100661076Y-87404580D01*
X100661076Y-87404580D02*
X100708695Y-87452200D01*
X100708695Y-87452200D02*
X100803933Y-87499819D01*
X100803933Y-87499819D02*
X100994409Y-87499819D01*
X100994409Y-87499819D02*
X101089647Y-87452200D01*
D11*
X86430000Y-77410000D02*
X95060000Y-77410000D01*
X86430000Y-80010000D02*
X95060000Y-80010000D01*
X86430000Y-82550000D02*
X95060000Y-82550000D01*
X86430000Y-85090000D02*
X95060000Y-85090000D01*
X86430000Y-87630000D02*
X95060000Y-87630000D01*
X86430000Y-87748095D02*
X95060000Y-87748095D01*
X86430000Y-87866190D02*
X95060000Y-87866190D01*
X86430000Y-87984286D02*
X95060000Y-87984286D01*
X86430000Y-88102381D02*
X95060000Y-88102381D01*
X86430000Y-88220476D02*
X95060000Y-88220476D01*
X86430000Y-88338571D02*
X95060000Y-88338571D01*
X86430000Y-88456667D02*
X95060000Y-88456667D01*
X86430000Y-88574762D02*
X95060000Y-88574762D01*
X86430000Y-88692857D02*
X95060000Y-88692857D01*
X86430000Y-88810952D02*
X95060000Y-88810952D01*
X86430000Y-88929048D02*
X95060000Y-88929048D01*
X86430000Y-89047143D02*
X95060000Y-89047143D01*
X86430000Y-89165238D02*
X95060000Y-89165238D01*
X86430000Y-89283333D02*
X95060000Y-89283333D01*
X86430000Y-89401429D02*
X95060000Y-89401429D01*
X86430000Y-89519524D02*
X95060000Y-89519524D01*
X86430000Y-89637619D02*
X95060000Y-89637619D01*
X86430000Y-89755714D02*
X95060000Y-89755714D01*
X86430000Y-89873810D02*
X95060000Y-89873810D01*
X86430000Y-89991905D02*
X95060000Y-89991905D01*
X86430000Y-90110000D02*
X95060000Y-90110000D01*
X86430000Y-90230000D02*
X86430000Y-77410000D01*
X86430000Y-90230000D02*
X95060000Y-90230000D01*
X95060000Y-78380000D02*
X95470000Y-78380000D01*
X95060000Y-79100000D02*
X95470000Y-79100000D01*
X95060000Y-80920000D02*
X95470000Y-80920000D01*
X95060000Y-81640000D02*
X95470000Y-81640000D01*
X95060000Y-83460000D02*
X95470000Y-83460000D01*
X95060000Y-84180000D02*
X95470000Y-84180000D01*
X95060000Y-86000000D02*
X95470000Y-86000000D01*
X95060000Y-86720000D02*
X95470000Y-86720000D01*
X95060000Y-88540000D02*
X95470000Y-88540000D01*
X95060000Y-89260000D02*
X95470000Y-89260000D01*
X95060000Y-90230000D02*
X95060000Y-77410000D01*
X97570000Y-78380000D02*
X98010000Y-78380000D01*
X97570000Y-79100000D02*
X98010000Y-79100000D01*
X97570000Y-80920000D02*
X98010000Y-80920000D01*
X97570000Y-81640000D02*
X98010000Y-81640000D01*
X97570000Y-83460000D02*
X98010000Y-83460000D01*
X97570000Y-84180000D02*
X98010000Y-84180000D01*
X97570000Y-86000000D02*
X98010000Y-86000000D01*
X97570000Y-86720000D02*
X98010000Y-86720000D01*
X97570000Y-88540000D02*
X97950000Y-88540000D01*
X97570000Y-89260000D02*
X97950000Y-89260000D01*
X99060000Y-90230000D02*
X100170000Y-90230000D01*
X100170000Y-90230000D02*
X100170000Y-88900000D01*
M02*
