G04 #@! TF.GenerationSoftware,KiCad,Pcbnew,10.0.2*
G04 #@! TF.CreationDate,2026-05-16T15:02:56+02:00*
G04 #@! TF.ProjectId,stlink-cdg35,73746c69-6e6b-42d6-9364-6733352e6b69,rev?*
G04 #@! TF.SameCoordinates,Original*
G04 #@! TF.FileFunction,Copper,L1,Top*
G04 #@! TF.FilePolarity,Positive*
%FSLAX46Y46*%
G04 Gerber Fmt 4.6, Leading zero omitted, Abs format (unit mm)*
G04 Created by KiCad (PCBNEW 10.0.2) date 2026-05-16 15:02:56*
%MOMM*%
%LPD*%
G01*
G04 APERTURE LIST*
G04 #@! TA.AperFunction,ComponentPad*
%ADD10R,1.000000X1.000000*%
G04 #@! TD*
G04 #@! TA.AperFunction,ComponentPad*
%ADD11C,1.000000*%
G04 #@! TD*
G04 #@! TA.AperFunction,ComponentPad*
%ADD12R,1.700000X1.700000*%
G04 #@! TD*
G04 #@! TA.AperFunction,ComponentPad*
%ADD13C,1.700000*%
G04 #@! TD*
G04 #@! TA.AperFunction,Conductor*
%ADD14C,0.250000*%
G04 #@! TD*
G04 APERTURE END LIST*
D10*
X106680000Y-84455000D03*
D11*
X105410000Y-84455000D03*
X106680000Y-83185000D03*
X105410000Y-83185000D03*
X106680000Y-81915000D03*
X105410000Y-81915000D03*
X106680000Y-80645000D03*
X105410000Y-80645000D03*
X106680000Y-79375000D03*
X105410000Y-79375000D03*
D12*
X107738163Y-90232355D03*
D13*
X105198163Y-90232355D03*
D12*
X99060000Y-88900000D03*
D13*
X96520000Y-88900000D03*
X99060000Y-86360000D03*
X96520000Y-86360000D03*
X99060000Y-83820000D03*
X96520000Y-83820000D03*
X99060000Y-81280000D03*
X96520000Y-81280000D03*
X99060000Y-78740000D03*
X96520000Y-78740000D03*
D14*
X107738163Y-85513163D02*
X106680000Y-84455000D01*
X107738163Y-90232355D02*
X107738163Y-85513163D01*
X101600000Y-83185000D02*
X102870000Y-84455000D01*
X101600000Y-81915000D02*
X101600000Y-83185000D01*
X99060000Y-81280000D02*
X100965000Y-81280000D01*
X102870000Y-84455000D02*
X105410000Y-84455000D01*
X100965000Y-81280000D02*
X101600000Y-81915000D01*
X106680000Y-80645000D02*
X106680000Y-79375000D01*
X107505000Y-81470000D02*
X106680000Y-80645000D01*
X97695000Y-82455000D02*
X97695000Y-78443299D01*
X104870000Y-77565000D02*
X98573299Y-77565000D01*
X106680000Y-83185000D02*
X107505000Y-82360000D01*
X96520000Y-83820000D02*
X99060000Y-83820000D01*
X99060000Y-83820000D02*
X97695000Y-82455000D01*
X107505000Y-82360000D02*
X107505000Y-81470000D01*
X98573299Y-77565000D02*
X97695000Y-78443299D01*
X106680000Y-79375000D02*
X104870000Y-77565000D01*
X103505000Y-83185000D02*
X105410000Y-83185000D01*
X99060000Y-78740000D02*
X100965000Y-78740000D01*
X102235000Y-81915000D02*
X103505000Y-83185000D01*
X100965000Y-78740000D02*
X102235000Y-80010000D01*
X102235000Y-80010000D02*
X102235000Y-81915000D01*
X99060000Y-86360000D02*
X101325808Y-86360000D01*
X101325808Y-86360000D02*
X105198163Y-90232355D01*
X96520000Y-86360000D02*
X99060000Y-86360000D01*
X99060000Y-88900000D02*
X96520000Y-88900000D01*
M02*
