M48
; DRILL file KiCad 10.0.2 date 2026-05-16T15:02:59
; FORMAT={-:-/ absolute / metric / decimal}
; #@! TF.CreationDate,2026-05-16T15:02:59+02:00
; #@! TF.GenerationSoftware,Kicad,Pcbnew,10.0.2
; #@! TF.FileFunction,Plated,1,2,PTH
FMAT,2
METRIC
; #@! TA.AperFunction,Plated,PTH,ComponentDrill
T1C0.650
; #@! TA.AperFunction,Plated,PTH,ComponentDrill
T2C1.000
%
G90
G05
T1
X105.41Y-79.375
X105.41Y-80.645
X105.41Y-81.915
X105.41Y-83.185
X105.41Y-84.455
X106.68Y-79.375
X106.68Y-80.645
X106.68Y-81.915
X106.68Y-83.185
X106.68Y-84.455
T2
X96.52Y-78.74
X96.52Y-81.28
X96.52Y-83.82
X96.52Y-86.36
X96.52Y-88.9
X99.06Y-78.74
X99.06Y-81.28
X99.06Y-83.82
X99.06Y-86.36
X99.06Y-88.9
X105.198Y-90.232
X107.738Y-90.232
M30
