G04 #@! TF.GenerationSoftware,KiCad,Pcbnew,10.0.2*
G04 #@! TF.CreationDate,2026-05-16T15:02:57+02:00*
G04 #@! TF.ProjectId,stlink-cdg35,73746c69-6e6b-42d6-9364-6733352e6b69,rev?*
G04 #@! TF.SameCoordinates,Original*
G04 #@! TF.FileFunction,Legend,Top*
G04 #@! TF.FilePolarity,Positive*
%FSLAX46Y46*%
G04 Gerber Fmt 4.6, Leading zero omitted, Abs format (unit mm)*
G04 Created by KiCad (PCBNEW 10.0.2) date 2026-05-16 15:02:57*
%MOMM*%
%LPD*%
G01*
G04 APERTURE LIST*
%ADD10C,0.150000*%
%ADD11C,0.300000*%
%ADD12C,0.120000*%
G04 APERTURE END LIST*
D10*
X104140000Y-76200000D02*
X107950000Y-76200000D01*
X107950000Y-87630000D01*
X104140000Y-87630000D01*
X104140000Y-76200000D01*
G36*
X104140000Y-76200000D02*
G01*
X107950000Y-76200000D01*
X107950000Y-87630000D01*
X104140000Y-87630000D01*
X104140000Y-76200000D01*
G37*
X107950000Y-80645000D02*
X109855000Y-80645000D01*
X109855000Y-83185000D01*
X107950000Y-83185000D01*
X107950000Y-80645000D01*
G36*
X107950000Y-80645000D02*
G01*
X109855000Y-80645000D01*
X109855000Y-83185000D01*
X107950000Y-83185000D01*
X107950000Y-80645000D01*
G37*
D11*
X102699285Y-79275471D02*
X102627857Y-79346900D01*
X102627857Y-79346900D02*
X102413571Y-79418328D01*
X102413571Y-79418328D02*
X102270714Y-79418328D01*
X102270714Y-79418328D02*
X102056428Y-79346900D01*
X102056428Y-79346900D02*
X101913571Y-79204042D01*
X101913571Y-79204042D02*
X101842142Y-79061185D01*
X101842142Y-79061185D02*
X101770714Y-78775471D01*
X101770714Y-78775471D02*
X101770714Y-78561185D01*
X101770714Y-78561185D02*
X101842142Y-78275471D01*
X101842142Y-78275471D02*
X101913571Y-78132614D01*
X101913571Y-78132614D02*
X102056428Y-77989757D01*
X102056428Y-77989757D02*
X102270714Y-77918328D01*
X102270714Y-77918328D02*
X102413571Y-77918328D01*
X102413571Y-77918328D02*
X102627857Y-77989757D01*
X102627857Y-77989757D02*
X102699285Y-78061185D01*
X101842142Y-81958328D02*
X101842142Y-80458328D01*
X101842142Y-80458328D02*
X102199285Y-80458328D01*
X102199285Y-80458328D02*
X102413571Y-80529757D01*
X102413571Y-80529757D02*
X102556428Y-80672614D01*
X102556428Y-80672614D02*
X102627857Y-80815471D01*
X102627857Y-80815471D02*
X102699285Y-81101185D01*
X102699285Y-81101185D02*
X102699285Y-81315471D01*
X102699285Y-81315471D02*
X102627857Y-81601185D01*
X102627857Y-81601185D02*
X102556428Y-81744042D01*
X102556428Y-81744042D02*
X102413571Y-81886900D01*
X102413571Y-81886900D02*
X102199285Y-81958328D01*
X102199285Y-81958328D02*
X101842142Y-81958328D01*
X102627857Y-83069757D02*
X102485000Y-82998328D01*
X102485000Y-82998328D02*
X102270714Y-82998328D01*
X102270714Y-82998328D02*
X102056428Y-83069757D01*
X102056428Y-83069757D02*
X101913571Y-83212614D01*
X101913571Y-83212614D02*
X101842142Y-83355471D01*
X101842142Y-83355471D02*
X101770714Y-83641185D01*
X101770714Y-83641185D02*
X101770714Y-83855471D01*
X101770714Y-83855471D02*
X101842142Y-84141185D01*
X101842142Y-84141185D02*
X101913571Y-84284042D01*
X101913571Y-84284042D02*
X102056428Y-84426900D01*
X102056428Y-84426900D02*
X102270714Y-84498328D01*
X102270714Y-84498328D02*
X102413571Y-84498328D01*
X102413571Y-84498328D02*
X102627857Y-84426900D01*
X102627857Y-84426900D02*
X102699285Y-84355471D01*
X102699285Y-84355471D02*
X102699285Y-83855471D01*
X102699285Y-83855471D02*
X102413571Y-83855471D01*
X101735000Y-85538328D02*
X102663572Y-85538328D01*
X102663572Y-85538328D02*
X102163572Y-86109757D01*
X102163572Y-86109757D02*
X102377857Y-86109757D01*
X102377857Y-86109757D02*
X102520715Y-86181185D01*
X102520715Y-86181185D02*
X102592143Y-86252614D01*
X102592143Y-86252614D02*
X102663572Y-86395471D01*
X102663572Y-86395471D02*
X102663572Y-86752614D01*
X102663572Y-86752614D02*
X102592143Y-86895471D01*
X102592143Y-86895471D02*
X102520715Y-86966900D01*
X102520715Y-86966900D02*
X102377857Y-87038328D01*
X102377857Y-87038328D02*
X101949286Y-87038328D01*
X101949286Y-87038328D02*
X101806429Y-86966900D01*
X101806429Y-86966900D02*
X101735000Y-86895471D01*
X102592143Y-88078328D02*
X101877857Y-88078328D01*
X101877857Y-88078328D02*
X101806429Y-88792614D01*
X101806429Y-88792614D02*
X101877857Y-88721185D01*
X101877857Y-88721185D02*
X102020715Y-88649757D01*
X102020715Y-88649757D02*
X102377857Y-88649757D01*
X102377857Y-88649757D02*
X102520715Y-88721185D01*
X102520715Y-88721185D02*
X102592143Y-88792614D01*
X102592143Y-88792614D02*
X102663572Y-88935471D01*
X102663572Y-88935471D02*
X102663572Y-89292614D01*
X102663572Y-89292614D02*
X102592143Y-89435471D01*
X102592143Y-89435471D02*
X102520715Y-89506900D01*
X102520715Y-89506900D02*
X102377857Y-89578328D01*
X102377857Y-89578328D02*
X102020715Y-89578328D01*
X102020715Y-89578328D02*
X101877857Y-89506900D01*
X101877857Y-89506900D02*
X101806429Y-89435471D01*
D12*
X104230000Y-85200000D02*
X104230000Y-78630000D01*
X105092077Y-78630000D02*
X104230000Y-78630000D01*
X105092077Y-85200000D02*
X104230000Y-85200000D01*
X106362077Y-78630000D02*
X105727923Y-78630000D01*
X107860000Y-78630000D02*
X106997923Y-78630000D01*
X107860000Y-83645000D02*
X107346708Y-83645000D01*
X107860000Y-83645000D02*
X107860000Y-78630000D01*
X107860000Y-84455000D02*
X107860000Y-85265000D01*
X107860000Y-85265000D02*
X106680000Y-85265000D01*
X103818163Y-88852355D02*
X103818163Y-91612355D01*
X106468163Y-88852355D02*
X103818163Y-88852355D01*
X106468163Y-88852355D02*
X106468163Y-91612355D01*
X106468163Y-91612355D02*
X103818163Y-91612355D01*
X107738163Y-88852355D02*
X109118163Y-88852355D01*
X109118163Y-88852355D02*
X109118163Y-90232355D01*
M02*
