G04 #@! TF.GenerationSoftware,KiCad,Pcbnew,(6.0.2)*
G04 #@! TF.CreationDate,2022-03-04T18:35:00+01:00*
G04 #@! TF.ProjectId,LINK,4c494e4b-2e6b-4696-9361-645f70636258,rev?*
G04 #@! TF.SameCoordinates,Original*
G04 #@! TF.FileFunction,Legend,Top*
G04 #@! TF.FilePolarity,Positive*
%FSLAX46Y46*%
G04 Gerber Fmt 4.6, Leading zero omitted, Abs format (unit mm)*
G04 Created by KiCad (PCBNEW (6.0.2)) date 2022-03-04 18:35:00*
%MOMM*%
%LPD*%
G01*
G04 APERTURE LIST*
%ADD10C,0.150000*%
%ADD11C,0.187500*%
%ADD12C,0.250000*%
%ADD13C,0.300000*%
%ADD14C,0.120000*%
G04 APERTURE END LIST*
D10*
X158810000Y-74900000D02*
X160655000Y-74900000D01*
X160655000Y-74900000D02*
X160655000Y-77470000D01*
X160655000Y-77470000D02*
X158810000Y-77470000D01*
X158810000Y-77470000D02*
X158810000Y-74900000D01*
X165735000Y-74930000D02*
X167005000Y-74930000D01*
X167005000Y-74930000D02*
X167005000Y-77470000D01*
X167005000Y-77470000D02*
X165735000Y-77470000D01*
X165735000Y-77470000D02*
X165735000Y-74930000D01*
D11*
X150163571Y-72733589D02*
X150199285Y-72626446D01*
X150199285Y-72447875D01*
X150163571Y-72376446D01*
X150127857Y-72340732D01*
X150056428Y-72305017D01*
X149985000Y-72305017D01*
X149913571Y-72340732D01*
X149877857Y-72376446D01*
X149842142Y-72447875D01*
X149806428Y-72590732D01*
X149770714Y-72662160D01*
X149735000Y-72697875D01*
X149663571Y-72733589D01*
X149592142Y-72733589D01*
X149520714Y-72697875D01*
X149485000Y-72662160D01*
X149449285Y-72590732D01*
X149449285Y-72412160D01*
X149485000Y-72305017D01*
X149449285Y-72055017D02*
X150199285Y-71876446D01*
X149663571Y-71733589D01*
X150199285Y-71590732D01*
X149449285Y-71412160D01*
X150199285Y-71126446D02*
X149449285Y-71126446D01*
X149449285Y-70947875D01*
X149485000Y-70840732D01*
X149556428Y-70769303D01*
X149627857Y-70733589D01*
X149770714Y-70697875D01*
X149877857Y-70697875D01*
X150020714Y-70733589D01*
X150092142Y-70769303D01*
X150163571Y-70840732D01*
X150199285Y-70947875D01*
X150199285Y-71126446D01*
X150127857Y-69947875D02*
X150163571Y-69983589D01*
X150199285Y-70090732D01*
X150199285Y-70162160D01*
X150163571Y-70269303D01*
X150092142Y-70340732D01*
X150020714Y-70376446D01*
X149877857Y-70412160D01*
X149770714Y-70412160D01*
X149627857Y-70376446D01*
X149556428Y-70340732D01*
X149485000Y-70269303D01*
X149449285Y-70162160D01*
X149449285Y-70090732D01*
X149485000Y-69983589D01*
X149520714Y-69947875D01*
X150199285Y-69269303D02*
X150199285Y-69626446D01*
X149449285Y-69626446D01*
X150199285Y-69019303D02*
X149449285Y-69019303D01*
X150199285Y-68590732D02*
X149770714Y-68912160D01*
X149449285Y-68590732D02*
X149877857Y-69019303D01*
D12*
X151852380Y-71250404D02*
X152852380Y-70917071D01*
X151852380Y-70583738D01*
X152757142Y-69678976D02*
X152804761Y-69726595D01*
X152852380Y-69869452D01*
X152852380Y-69964690D01*
X152804761Y-70107547D01*
X152709523Y-70202785D01*
X152614285Y-70250404D01*
X152423809Y-70298023D01*
X152280952Y-70298023D01*
X152090476Y-70250404D01*
X151995238Y-70202785D01*
X151900000Y-70107547D01*
X151852380Y-69964690D01*
X151852380Y-69869452D01*
X151900000Y-69726595D01*
X151947619Y-69678976D01*
X152757142Y-68678976D02*
X152804761Y-68726595D01*
X152852380Y-68869452D01*
X152852380Y-68964690D01*
X152804761Y-69107547D01*
X152709523Y-69202785D01*
X152614285Y-69250404D01*
X152423809Y-69298023D01*
X152280952Y-69298023D01*
X152090476Y-69250404D01*
X151995238Y-69202785D01*
X151900000Y-69107547D01*
X151852380Y-68964690D01*
X151852380Y-68869452D01*
X151900000Y-68726595D01*
X151947619Y-68678976D01*
X156932380Y-71250404D02*
X157932380Y-70917071D01*
X156932380Y-70583738D01*
X157837142Y-69678976D02*
X157884761Y-69726595D01*
X157932380Y-69869452D01*
X157932380Y-69964690D01*
X157884761Y-70107547D01*
X157789523Y-70202785D01*
X157694285Y-70250404D01*
X157503809Y-70298023D01*
X157360952Y-70298023D01*
X157170476Y-70250404D01*
X157075238Y-70202785D01*
X156980000Y-70107547D01*
X156932380Y-69964690D01*
X156932380Y-69869452D01*
X156980000Y-69726595D01*
X157027619Y-69678976D01*
X157837142Y-68678976D02*
X157884761Y-68726595D01*
X157932380Y-68869452D01*
X157932380Y-68964690D01*
X157884761Y-69107547D01*
X157789523Y-69202785D01*
X157694285Y-69250404D01*
X157503809Y-69298023D01*
X157360952Y-69298023D01*
X157170476Y-69250404D01*
X157075238Y-69202785D01*
X156980000Y-69107547D01*
X156932380Y-68964690D01*
X156932380Y-68869452D01*
X156980000Y-68726595D01*
X157027619Y-68678976D01*
X164600000Y-70774214D02*
X164552380Y-70869452D01*
X164552380Y-71012309D01*
X164600000Y-71155166D01*
X164695238Y-71250404D01*
X164790476Y-71298023D01*
X164980952Y-71345642D01*
X165123809Y-71345642D01*
X165314285Y-71298023D01*
X165409523Y-71250404D01*
X165504761Y-71155166D01*
X165552380Y-71012309D01*
X165552380Y-70917071D01*
X165504761Y-70774214D01*
X165457142Y-70726595D01*
X165123809Y-70726595D01*
X165123809Y-70917071D01*
X165552380Y-70298023D02*
X164552380Y-70298023D01*
X165552380Y-69726595D01*
X164552380Y-69726595D01*
X165552380Y-69250404D02*
X164552380Y-69250404D01*
X164552380Y-69012309D01*
X164600000Y-68869452D01*
X164695238Y-68774214D01*
X164790476Y-68726595D01*
X164980952Y-68678976D01*
X165123809Y-68678976D01*
X165314285Y-68726595D01*
X165409523Y-68774214D01*
X165504761Y-68869452D01*
X165552380Y-69012309D01*
X165552380Y-69250404D01*
X163012380Y-70488500D02*
X162536190Y-70821833D01*
X163012380Y-71059928D02*
X162012380Y-71059928D01*
X162012380Y-70678976D01*
X162060000Y-70583738D01*
X162107619Y-70536119D01*
X162202857Y-70488500D01*
X162345714Y-70488500D01*
X162440952Y-70536119D01*
X162488571Y-70583738D01*
X162536190Y-70678976D01*
X162536190Y-71059928D01*
X163012380Y-70155166D02*
X162345714Y-69631357D01*
X162345714Y-70155166D02*
X163012380Y-69631357D01*
X163012380Y-69250404D02*
X162012380Y-69250404D01*
X162012380Y-69012309D01*
X162060000Y-68869452D01*
X162155238Y-68774214D01*
X162250476Y-68726595D01*
X162440952Y-68678976D01*
X162583809Y-68678976D01*
X162774285Y-68726595D01*
X162869523Y-68774214D01*
X162964761Y-68869452D01*
X163012380Y-69012309D01*
X163012380Y-69250404D01*
X159472380Y-70964690D02*
X159472380Y-70393261D01*
X160472380Y-70678976D02*
X159472380Y-70678976D01*
X160472380Y-70155166D02*
X159805714Y-69631357D01*
X159805714Y-70155166D02*
X160472380Y-69631357D01*
X160472380Y-69250404D02*
X159472380Y-69250404D01*
X159472380Y-69012309D01*
X159520000Y-68869452D01*
X159615238Y-68774214D01*
X159710476Y-68726595D01*
X159900952Y-68678976D01*
X160043809Y-68678976D01*
X160234285Y-68726595D01*
X160329523Y-68774214D01*
X160424761Y-68869452D01*
X160472380Y-69012309D01*
X160472380Y-69250404D01*
D10*
X132008571Y-70214761D02*
X132008571Y-70548095D01*
X132532380Y-70548095D02*
X131532380Y-70548095D01*
X131532380Y-70071904D01*
X131532380Y-69833809D02*
X131532380Y-69262380D01*
X132532380Y-69548095D02*
X131532380Y-69548095D01*
X132532380Y-68929047D02*
X131532380Y-68929047D01*
X131532380Y-68690952D01*
X131580000Y-68548095D01*
X131675238Y-68452857D01*
X131770476Y-68405238D01*
X131960952Y-68357619D01*
X132103809Y-68357619D01*
X132294285Y-68405238D01*
X132389523Y-68452857D01*
X132484761Y-68548095D01*
X132532380Y-68690952D01*
X132532380Y-68929047D01*
X132532380Y-67929047D02*
X131532380Y-67929047D01*
X132484761Y-66738571D02*
X132532380Y-66595714D01*
X132532380Y-66357619D01*
X132484761Y-66262380D01*
X132437142Y-66214761D01*
X132341904Y-66167142D01*
X132246666Y-66167142D01*
X132151428Y-66214761D01*
X132103809Y-66262380D01*
X132056190Y-66357619D01*
X132008571Y-66548095D01*
X131960952Y-66643333D01*
X131913333Y-66690952D01*
X131818095Y-66738571D01*
X131722857Y-66738571D01*
X131627619Y-66690952D01*
X131580000Y-66643333D01*
X131532380Y-66548095D01*
X131532380Y-66310000D01*
X131580000Y-66167142D01*
X131532380Y-65833809D02*
X132532380Y-65595714D01*
X131818095Y-65405238D01*
X132532380Y-65214761D01*
X131532380Y-64976666D01*
X132532380Y-64595714D02*
X131532380Y-64595714D01*
X131532380Y-64357619D01*
X131580000Y-64214761D01*
X131675238Y-64119523D01*
X131770476Y-64071904D01*
X131960952Y-64024285D01*
X132103809Y-64024285D01*
X132294285Y-64071904D01*
X132389523Y-64119523D01*
X132484761Y-64214761D01*
X132532380Y-64357619D01*
X132532380Y-64595714D01*
D13*
X150828571Y-90618571D02*
X151757142Y-90618571D01*
X151257142Y-91190000D01*
X151471428Y-91190000D01*
X151614285Y-91261428D01*
X151685714Y-91332857D01*
X151757142Y-91475714D01*
X151757142Y-91832857D01*
X151685714Y-91975714D01*
X151614285Y-92047142D01*
X151471428Y-92118571D01*
X151042857Y-92118571D01*
X150900000Y-92047142D01*
X150828571Y-91975714D01*
X152471428Y-92047142D02*
X152471428Y-92118571D01*
X152400000Y-92261428D01*
X152328571Y-92332857D01*
X152971428Y-90618571D02*
X153900000Y-90618571D01*
X153400000Y-91190000D01*
X153614285Y-91190000D01*
X153757142Y-91261428D01*
X153828571Y-91332857D01*
X153900000Y-91475714D01*
X153900000Y-91832857D01*
X153828571Y-91975714D01*
X153757142Y-92047142D01*
X153614285Y-92118571D01*
X153185714Y-92118571D01*
X153042857Y-92047142D01*
X152971428Y-91975714D01*
D11*
X145083571Y-71769303D02*
X145119285Y-71662160D01*
X145119285Y-71483589D01*
X145083571Y-71412160D01*
X145047857Y-71376446D01*
X144976428Y-71340732D01*
X144905000Y-71340732D01*
X144833571Y-71376446D01*
X144797857Y-71412160D01*
X144762142Y-71483589D01*
X144726428Y-71626446D01*
X144690714Y-71697875D01*
X144655000Y-71733589D01*
X144583571Y-71769303D01*
X144512142Y-71769303D01*
X144440714Y-71733589D01*
X144405000Y-71697875D01*
X144369285Y-71626446D01*
X144369285Y-71447875D01*
X144405000Y-71340732D01*
X144369285Y-71090732D02*
X145119285Y-70912160D01*
X144583571Y-70769303D01*
X145119285Y-70626446D01*
X144369285Y-70447875D01*
X145119285Y-70162160D02*
X144369285Y-70162160D01*
X144369285Y-69983589D01*
X144405000Y-69876446D01*
X144476428Y-69805017D01*
X144547857Y-69769303D01*
X144690714Y-69733589D01*
X144797857Y-69733589D01*
X144940714Y-69769303D01*
X145012142Y-69805017D01*
X145083571Y-69876446D01*
X145119285Y-69983589D01*
X145119285Y-70162160D01*
X145119285Y-69412160D02*
X144369285Y-69412160D01*
X144369285Y-68912160D02*
X144369285Y-68769303D01*
X144405000Y-68697875D01*
X144476428Y-68626446D01*
X144619285Y-68590732D01*
X144869285Y-68590732D01*
X145012142Y-68626446D01*
X145083571Y-68697875D01*
X145119285Y-68769303D01*
X145119285Y-68912160D01*
X145083571Y-68983589D01*
X145012142Y-69055017D01*
X144869285Y-69090732D01*
X144619285Y-69090732D01*
X144476428Y-69055017D01*
X144405000Y-68983589D01*
X144369285Y-68912160D01*
D12*
X132167380Y-81287619D02*
X133167380Y-80954285D01*
X132167380Y-80620952D01*
X132500714Y-80430476D02*
X132500714Y-80049523D01*
X132167380Y-80287619D02*
X133024523Y-80287619D01*
X133119761Y-80240000D01*
X133167380Y-80144761D01*
X133167380Y-80049523D01*
X133167380Y-79287619D02*
X132643571Y-79287619D01*
X132548333Y-79335238D01*
X132500714Y-79430476D01*
X132500714Y-79620952D01*
X132548333Y-79716190D01*
X133119761Y-79287619D02*
X133167380Y-79382857D01*
X133167380Y-79620952D01*
X133119761Y-79716190D01*
X133024523Y-79763809D01*
X132929285Y-79763809D01*
X132834047Y-79716190D01*
X132786428Y-79620952D01*
X132786428Y-79382857D01*
X132738809Y-79287619D01*
X133167380Y-78811428D02*
X132500714Y-78811428D01*
X132691190Y-78811428D02*
X132595952Y-78763809D01*
X132548333Y-78716190D01*
X132500714Y-78620952D01*
X132500714Y-78525714D01*
X132500714Y-77763809D02*
X133310238Y-77763809D01*
X133405476Y-77811428D01*
X133453095Y-77859047D01*
X133500714Y-77954285D01*
X133500714Y-78097142D01*
X133453095Y-78192380D01*
X133119761Y-77763809D02*
X133167380Y-77859047D01*
X133167380Y-78049523D01*
X133119761Y-78144761D01*
X133072142Y-78192380D01*
X132976904Y-78240000D01*
X132691190Y-78240000D01*
X132595952Y-78192380D01*
X132548333Y-78144761D01*
X132500714Y-78049523D01*
X132500714Y-77859047D01*
X132548333Y-77763809D01*
X133119761Y-76906666D02*
X133167380Y-77001904D01*
X133167380Y-77192380D01*
X133119761Y-77287619D01*
X133024523Y-77335238D01*
X132643571Y-77335238D01*
X132548333Y-77287619D01*
X132500714Y-77192380D01*
X132500714Y-77001904D01*
X132548333Y-76906666D01*
X132643571Y-76859047D01*
X132738809Y-76859047D01*
X132834047Y-77335238D01*
X132500714Y-76573333D02*
X132500714Y-76192380D01*
X132167380Y-76430476D02*
X133024523Y-76430476D01*
X133119761Y-76382857D01*
X133167380Y-76287619D01*
X133167380Y-76192380D01*
D10*
X133667619Y-70572380D02*
X133858095Y-70572380D01*
X133953333Y-70620000D01*
X134048571Y-70715238D01*
X134096190Y-70905714D01*
X134096190Y-71239047D01*
X134048571Y-71429523D01*
X133953333Y-71524761D01*
X133858095Y-71572380D01*
X133667619Y-71572380D01*
X133572380Y-71524761D01*
X133477142Y-71429523D01*
X133429523Y-71239047D01*
X133429523Y-70905714D01*
X133477142Y-70715238D01*
X133572380Y-70620000D01*
X133667619Y-70572380D01*
X134858095Y-71048571D02*
X134524761Y-71048571D01*
X134524761Y-71572380D02*
X134524761Y-70572380D01*
X135000952Y-70572380D01*
X135715238Y-71048571D02*
X135381904Y-71048571D01*
X135381904Y-71572380D02*
X135381904Y-70572380D01*
X135858095Y-70572380D01*
D13*
X150828571Y-88078571D02*
X151757142Y-88078571D01*
X151257142Y-88650000D01*
X151471428Y-88650000D01*
X151614285Y-88721428D01*
X151685714Y-88792857D01*
X151757142Y-88935714D01*
X151757142Y-89292857D01*
X151685714Y-89435714D01*
X151614285Y-89507142D01*
X151471428Y-89578571D01*
X151042857Y-89578571D01*
X150900000Y-89507142D01*
X150828571Y-89435714D01*
X152471428Y-89507142D02*
X152471428Y-89578571D01*
X152400000Y-89721428D01*
X152328571Y-89792857D01*
X153400000Y-88078571D02*
X153542857Y-88078571D01*
X153685714Y-88150000D01*
X153757142Y-88221428D01*
X153828571Y-88364285D01*
X153900000Y-88650000D01*
X153900000Y-89007142D01*
X153828571Y-89292857D01*
X153757142Y-89435714D01*
X153685714Y-89507142D01*
X153542857Y-89578571D01*
X153400000Y-89578571D01*
X153257142Y-89507142D01*
X153185714Y-89435714D01*
X153114285Y-89292857D01*
X153042857Y-89007142D01*
X153042857Y-88650000D01*
X153114285Y-88364285D01*
X153185714Y-88221428D01*
X153257142Y-88150000D01*
X153400000Y-88078571D01*
D10*
X139080952Y-70572380D02*
X139271428Y-70572380D01*
X139366666Y-70620000D01*
X139461904Y-70715238D01*
X139509523Y-70905714D01*
X139509523Y-71239047D01*
X139461904Y-71429523D01*
X139366666Y-71524761D01*
X139271428Y-71572380D01*
X139080952Y-71572380D01*
X138985714Y-71524761D01*
X138890476Y-71429523D01*
X138842857Y-71239047D01*
X138842857Y-70905714D01*
X138890476Y-70715238D01*
X138985714Y-70620000D01*
X139080952Y-70572380D01*
X139938095Y-71572380D02*
X139938095Y-70572380D01*
X140509523Y-71572380D01*
X140509523Y-70572380D01*
D13*
X151685714Y-93158571D02*
X150971428Y-93158571D01*
X150900000Y-93872857D01*
X150971428Y-93801428D01*
X151114285Y-93730000D01*
X151471428Y-93730000D01*
X151614285Y-93801428D01*
X151685714Y-93872857D01*
X151757142Y-94015714D01*
X151757142Y-94372857D01*
X151685714Y-94515714D01*
X151614285Y-94587142D01*
X151471428Y-94658571D01*
X151114285Y-94658571D01*
X150971428Y-94587142D01*
X150900000Y-94515714D01*
X152471428Y-94587142D02*
X152471428Y-94658571D01*
X152400000Y-94801428D01*
X152328571Y-94872857D01*
X153400000Y-93158571D02*
X153542857Y-93158571D01*
X153685714Y-93230000D01*
X153757142Y-93301428D01*
X153828571Y-93444285D01*
X153900000Y-93730000D01*
X153900000Y-94087142D01*
X153828571Y-94372857D01*
X153757142Y-94515714D01*
X153685714Y-94587142D01*
X153542857Y-94658571D01*
X153400000Y-94658571D01*
X153257142Y-94587142D01*
X153185714Y-94515714D01*
X153114285Y-94372857D01*
X153042857Y-94087142D01*
X153042857Y-93730000D01*
X153114285Y-93444285D01*
X153185714Y-93301428D01*
X153257142Y-93230000D01*
X153400000Y-93158571D01*
X150900000Y-85681428D02*
X150971428Y-85610000D01*
X151114285Y-85538571D01*
X151471428Y-85538571D01*
X151614285Y-85610000D01*
X151685714Y-85681428D01*
X151757142Y-85824285D01*
X151757142Y-85967142D01*
X151685714Y-86181428D01*
X150828571Y-87038571D01*
X151757142Y-87038571D01*
X152471428Y-86967142D02*
X152471428Y-87038571D01*
X152400000Y-87181428D01*
X152328571Y-87252857D01*
X153328571Y-86181428D02*
X153185714Y-86110000D01*
X153114285Y-86038571D01*
X153042857Y-85895714D01*
X153042857Y-85824285D01*
X153114285Y-85681428D01*
X153185714Y-85610000D01*
X153328571Y-85538571D01*
X153614285Y-85538571D01*
X153757142Y-85610000D01*
X153828571Y-85681428D01*
X153900000Y-85824285D01*
X153900000Y-85895714D01*
X153828571Y-86038571D01*
X153757142Y-86110000D01*
X153614285Y-86181428D01*
X153328571Y-86181428D01*
X153185714Y-86252857D01*
X153114285Y-86324285D01*
X153042857Y-86467142D01*
X153042857Y-86752857D01*
X153114285Y-86895714D01*
X153185714Y-86967142D01*
X153328571Y-87038571D01*
X153614285Y-87038571D01*
X153757142Y-86967142D01*
X153828571Y-86895714D01*
X153900000Y-86752857D01*
X153900000Y-86467142D01*
X153828571Y-86324285D01*
X153757142Y-86252857D01*
X153614285Y-86181428D01*
D12*
X146820000Y-70774214D02*
X146772380Y-70869452D01*
X146772380Y-71012309D01*
X146820000Y-71155166D01*
X146915238Y-71250404D01*
X147010476Y-71298023D01*
X147200952Y-71345642D01*
X147343809Y-71345642D01*
X147534285Y-71298023D01*
X147629523Y-71250404D01*
X147724761Y-71155166D01*
X147772380Y-71012309D01*
X147772380Y-70917071D01*
X147724761Y-70774214D01*
X147677142Y-70726595D01*
X147343809Y-70726595D01*
X147343809Y-70917071D01*
X147772380Y-70298023D02*
X146772380Y-70298023D01*
X147772380Y-69726595D01*
X146772380Y-69726595D01*
X147772380Y-69250404D02*
X146772380Y-69250404D01*
X146772380Y-69012309D01*
X146820000Y-68869452D01*
X146915238Y-68774214D01*
X147010476Y-68726595D01*
X147200952Y-68678976D01*
X147343809Y-68678976D01*
X147534285Y-68726595D01*
X147629523Y-68774214D01*
X147724761Y-68869452D01*
X147772380Y-69012309D01*
X147772380Y-69250404D01*
X132167380Y-89098095D02*
X133167380Y-88764761D01*
X132167380Y-88431428D01*
X133119761Y-88145714D02*
X133167380Y-88050476D01*
X133167380Y-87860000D01*
X133119761Y-87764761D01*
X133024523Y-87717142D01*
X132976904Y-87717142D01*
X132881666Y-87764761D01*
X132834047Y-87860000D01*
X132834047Y-88002857D01*
X132786428Y-88098095D01*
X132691190Y-88145714D01*
X132643571Y-88145714D01*
X132548333Y-88098095D01*
X132500714Y-88002857D01*
X132500714Y-87860000D01*
X132548333Y-87764761D01*
X132500714Y-86860000D02*
X133167380Y-86860000D01*
X132500714Y-87288571D02*
X133024523Y-87288571D01*
X133119761Y-87240952D01*
X133167380Y-87145714D01*
X133167380Y-87002857D01*
X133119761Y-86907619D01*
X133072142Y-86860000D01*
X132500714Y-86383809D02*
X133500714Y-86383809D01*
X132548333Y-86383809D02*
X132500714Y-86288571D01*
X132500714Y-86098095D01*
X132548333Y-86002857D01*
X132595952Y-85955238D01*
X132691190Y-85907619D01*
X132976904Y-85907619D01*
X133072142Y-85955238D01*
X133119761Y-86002857D01*
X133167380Y-86098095D01*
X133167380Y-86288571D01*
X133119761Y-86383809D01*
X132500714Y-85479047D02*
X133500714Y-85479047D01*
X132548333Y-85479047D02*
X132500714Y-85383809D01*
X132500714Y-85193333D01*
X132548333Y-85098095D01*
X132595952Y-85050476D01*
X132691190Y-85002857D01*
X132976904Y-85002857D01*
X133072142Y-85050476D01*
X133119761Y-85098095D01*
X133167380Y-85193333D01*
X133167380Y-85383809D01*
X133119761Y-85479047D01*
X133167380Y-84431428D02*
X133119761Y-84526666D01*
X133024523Y-84574285D01*
X132167380Y-84574285D01*
X132500714Y-84145714D02*
X133167380Y-83907619D01*
X132500714Y-83669523D02*
X133167380Y-83907619D01*
X133405476Y-84002857D01*
X133453095Y-84050476D01*
X133500714Y-84145714D01*
D13*
X151757142Y-84498571D02*
X150900000Y-84498571D01*
X151328571Y-84498571D02*
X151328571Y-82998571D01*
X151185714Y-83212857D01*
X151042857Y-83355714D01*
X150900000Y-83427142D01*
X152471428Y-84427142D02*
X152471428Y-84498571D01*
X152400000Y-84641428D01*
X152328571Y-84712857D01*
X153328571Y-83641428D02*
X153185714Y-83570000D01*
X153114285Y-83498571D01*
X153042857Y-83355714D01*
X153042857Y-83284285D01*
X153114285Y-83141428D01*
X153185714Y-83070000D01*
X153328571Y-82998571D01*
X153614285Y-82998571D01*
X153757142Y-83070000D01*
X153828571Y-83141428D01*
X153900000Y-83284285D01*
X153900000Y-83355714D01*
X153828571Y-83498571D01*
X153757142Y-83570000D01*
X153614285Y-83641428D01*
X153328571Y-83641428D01*
X153185714Y-83712857D01*
X153114285Y-83784285D01*
X153042857Y-83927142D01*
X153042857Y-84212857D01*
X153114285Y-84355714D01*
X153185714Y-84427142D01*
X153328571Y-84498571D01*
X153614285Y-84498571D01*
X153757142Y-84427142D01*
X153828571Y-84355714D01*
X153900000Y-84212857D01*
X153900000Y-83927142D01*
X153828571Y-83784285D01*
X153757142Y-83712857D01*
X153614285Y-83641428D01*
D10*
X135707380Y-73826666D02*
X135231190Y-74160000D01*
X135707380Y-74398095D02*
X134707380Y-74398095D01*
X134707380Y-74017142D01*
X134755000Y-73921904D01*
X134802619Y-73874285D01*
X134897857Y-73826666D01*
X135040714Y-73826666D01*
X135135952Y-73874285D01*
X135183571Y-73921904D01*
X135231190Y-74017142D01*
X135231190Y-74398095D01*
X134707380Y-73493333D02*
X134707380Y-72874285D01*
X135088333Y-73207619D01*
X135088333Y-73064761D01*
X135135952Y-72969523D01*
X135183571Y-72921904D01*
X135278809Y-72874285D01*
X135516904Y-72874285D01*
X135612142Y-72921904D01*
X135659761Y-72969523D01*
X135707380Y-73064761D01*
X135707380Y-73350476D01*
X135659761Y-73445714D01*
X135612142Y-73493333D01*
X135707380Y-86668095D02*
X134707380Y-86668095D01*
X134707380Y-86430000D01*
X134755000Y-86287142D01*
X134850238Y-86191904D01*
X134945476Y-86144285D01*
X135135952Y-86096666D01*
X135278809Y-86096666D01*
X135469285Y-86144285D01*
X135564523Y-86191904D01*
X135659761Y-86287142D01*
X135707380Y-86430000D01*
X135707380Y-86668095D01*
X135707380Y-85144285D02*
X135707380Y-85715714D01*
X135707380Y-85430000D02*
X134707380Y-85430000D01*
X134850238Y-85525238D01*
X134945476Y-85620476D01*
X134993095Y-85715714D01*
X135707380Y-79478095D02*
X134707380Y-79478095D01*
X134707380Y-79240000D01*
X134755000Y-79097142D01*
X134850238Y-79001904D01*
X134945476Y-78954285D01*
X135135952Y-78906666D01*
X135278809Y-78906666D01*
X135469285Y-78954285D01*
X135564523Y-79001904D01*
X135659761Y-79097142D01*
X135707380Y-79240000D01*
X135707380Y-79478095D01*
X134802619Y-78525714D02*
X134755000Y-78478095D01*
X134707380Y-78382857D01*
X134707380Y-78144761D01*
X134755000Y-78049523D01*
X134802619Y-78001904D01*
X134897857Y-77954285D01*
X134993095Y-77954285D01*
X135135952Y-78001904D01*
X135707380Y-78573333D01*
X135707380Y-77954285D01*
X131167142Y-91606666D02*
X131214761Y-91654285D01*
X131262380Y-91797142D01*
X131262380Y-91892380D01*
X131214761Y-92035238D01*
X131119523Y-92130476D01*
X131024285Y-92178095D01*
X130833809Y-92225714D01*
X130690952Y-92225714D01*
X130500476Y-92178095D01*
X130405238Y-92130476D01*
X130310000Y-92035238D01*
X130262380Y-91892380D01*
X130262380Y-91797142D01*
X130310000Y-91654285D01*
X130357619Y-91606666D01*
X131262380Y-90654285D02*
X131262380Y-91225714D01*
X131262380Y-90940000D02*
X130262380Y-90940000D01*
X130405238Y-91035238D01*
X130500476Y-91130476D01*
X130548095Y-91225714D01*
X131167142Y-73826666D02*
X131214761Y-73874285D01*
X131262380Y-74017142D01*
X131262380Y-74112380D01*
X131214761Y-74255238D01*
X131119523Y-74350476D01*
X131024285Y-74398095D01*
X130833809Y-74445714D01*
X130690952Y-74445714D01*
X130500476Y-74398095D01*
X130405238Y-74350476D01*
X130310000Y-74255238D01*
X130262380Y-74112380D01*
X130262380Y-74017142D01*
X130310000Y-73874285D01*
X130357619Y-73826666D01*
X130357619Y-73445714D02*
X130310000Y-73398095D01*
X130262380Y-73302857D01*
X130262380Y-73064761D01*
X130310000Y-72969523D01*
X130357619Y-72921904D01*
X130452857Y-72874285D01*
X130548095Y-72874285D01*
X130690952Y-72921904D01*
X131262380Y-73493333D01*
X131262380Y-72874285D01*
X135707380Y-91389166D02*
X135231190Y-91722500D01*
X135707380Y-91960595D02*
X134707380Y-91960595D01*
X134707380Y-91579642D01*
X134755000Y-91484404D01*
X134802619Y-91436785D01*
X134897857Y-91389166D01*
X135040714Y-91389166D01*
X135135952Y-91436785D01*
X135183571Y-91484404D01*
X135231190Y-91579642D01*
X135231190Y-91960595D01*
X134802619Y-91008214D02*
X134755000Y-90960595D01*
X134707380Y-90865357D01*
X134707380Y-90627261D01*
X134755000Y-90532023D01*
X134802619Y-90484404D01*
X134897857Y-90436785D01*
X134993095Y-90436785D01*
X135135952Y-90484404D01*
X135707380Y-91055833D01*
X135707380Y-90436785D01*
X166917619Y-88566666D02*
X166203333Y-88566666D01*
X166060476Y-88519047D01*
X165965238Y-88423809D01*
X165917619Y-88280952D01*
X165917619Y-88185714D01*
X166917619Y-89471428D02*
X166917619Y-89280952D01*
X166870000Y-89185714D01*
X166822380Y-89138095D01*
X166679523Y-89042857D01*
X166489047Y-88995238D01*
X166108095Y-88995238D01*
X166012857Y-89042857D01*
X165965238Y-89090476D01*
X165917619Y-89185714D01*
X165917619Y-89376190D01*
X165965238Y-89471428D01*
X166012857Y-89519047D01*
X166108095Y-89566666D01*
X166346190Y-89566666D01*
X166441428Y-89519047D01*
X166489047Y-89471428D01*
X166536666Y-89376190D01*
X166536666Y-89185714D01*
X166489047Y-89090476D01*
X166441428Y-89042857D01*
X166346190Y-88995238D01*
X140208095Y-94662380D02*
X140208095Y-95471904D01*
X140255714Y-95567142D01*
X140303333Y-95614761D01*
X140398571Y-95662380D01*
X140589047Y-95662380D01*
X140684285Y-95614761D01*
X140731904Y-95567142D01*
X140779523Y-95471904D01*
X140779523Y-94662380D01*
X141684285Y-94995714D02*
X141684285Y-95662380D01*
X141446190Y-94614761D02*
X141208095Y-95329047D01*
X141827142Y-95329047D01*
X140208095Y-89582380D02*
X140208095Y-90391904D01*
X140255714Y-90487142D01*
X140303333Y-90534761D01*
X140398571Y-90582380D01*
X140589047Y-90582380D01*
X140684285Y-90534761D01*
X140731904Y-90487142D01*
X140779523Y-90391904D01*
X140779523Y-89582380D01*
X141160476Y-89582380D02*
X141779523Y-89582380D01*
X141446190Y-89963333D01*
X141589047Y-89963333D01*
X141684285Y-90010952D01*
X141731904Y-90058571D01*
X141779523Y-90153809D01*
X141779523Y-90391904D01*
X141731904Y-90487142D01*
X141684285Y-90534761D01*
X141589047Y-90582380D01*
X141303333Y-90582380D01*
X141208095Y-90534761D01*
X141160476Y-90487142D01*
X140208095Y-84502380D02*
X140208095Y-85311904D01*
X140255714Y-85407142D01*
X140303333Y-85454761D01*
X140398571Y-85502380D01*
X140589047Y-85502380D01*
X140684285Y-85454761D01*
X140731904Y-85407142D01*
X140779523Y-85311904D01*
X140779523Y-84502380D01*
X141208095Y-84597619D02*
X141255714Y-84550000D01*
X141350952Y-84502380D01*
X141589047Y-84502380D01*
X141684285Y-84550000D01*
X141731904Y-84597619D01*
X141779523Y-84692857D01*
X141779523Y-84788095D01*
X141731904Y-84930952D01*
X141160476Y-85502380D01*
X141779523Y-85502380D01*
X140208095Y-79462380D02*
X140208095Y-80271904D01*
X140255714Y-80367142D01*
X140303333Y-80414761D01*
X140398571Y-80462380D01*
X140589047Y-80462380D01*
X140684285Y-80414761D01*
X140731904Y-80367142D01*
X140779523Y-80271904D01*
X140779523Y-79462380D01*
X141779523Y-80462380D02*
X141208095Y-80462380D01*
X141493809Y-80462380D02*
X141493809Y-79462380D01*
X141398571Y-79605238D01*
X141303333Y-79700476D01*
X141208095Y-79748095D01*
X147153333Y-79572380D02*
X146820000Y-79096190D01*
X146581904Y-79572380D02*
X146581904Y-78572380D01*
X146962857Y-78572380D01*
X147058095Y-78620000D01*
X147105714Y-78667619D01*
X147153333Y-78762857D01*
X147153333Y-78905714D01*
X147105714Y-79000952D01*
X147058095Y-79048571D01*
X146962857Y-79096190D01*
X146581904Y-79096190D01*
X148105714Y-79572380D02*
X147534285Y-79572380D01*
X147820000Y-79572380D02*
X147820000Y-78572380D01*
X147724761Y-78715238D01*
X147629523Y-78810476D01*
X147534285Y-78858095D01*
D14*
X136425000Y-73432936D02*
X136425000Y-73887064D01*
X137895000Y-73432936D02*
X137895000Y-73887064D01*
X136200000Y-84500000D02*
X136200000Y-87360000D01*
X138120000Y-84500000D02*
X136200000Y-84500000D01*
X138120000Y-87360000D02*
X138120000Y-84500000D01*
X136200000Y-80600000D02*
X138120000Y-80600000D01*
X136200000Y-77740000D02*
X136200000Y-80600000D01*
X138120000Y-80600000D02*
X138120000Y-77740000D01*
X153730000Y-67370000D02*
X153730000Y-64710000D01*
X144780000Y-67370000D02*
X143450000Y-67370000D01*
X146050000Y-67370000D02*
X153730000Y-67370000D01*
X143450000Y-67370000D02*
X143450000Y-66040000D01*
X146050000Y-67370000D02*
X146050000Y-64710000D01*
X146050000Y-64710000D02*
X153730000Y-64710000D01*
X165585000Y-78750000D02*
X165585000Y-79510000D01*
X162877470Y-72975000D02*
X162055000Y-72975000D01*
X165585000Y-79510000D02*
X164455000Y-79510000D01*
X162877470Y-79445000D02*
X162055000Y-79445000D01*
X164147470Y-72975000D02*
X163492530Y-72975000D01*
X165585000Y-77990000D02*
X165018471Y-77990000D01*
X163695000Y-78043471D02*
X163695000Y-78186529D01*
X163695000Y-79445000D02*
X163492530Y-79445000D01*
X163891529Y-77990000D02*
X163748471Y-77990000D01*
X165585000Y-77990000D02*
X165585000Y-72975000D01*
X165585000Y-72975000D02*
X164762530Y-72975000D01*
X163695000Y-79313471D02*
X163695000Y-79445000D01*
X162055000Y-79445000D02*
X162055000Y-72975000D01*
X131980000Y-91701252D02*
X131980000Y-91178748D01*
X133450000Y-91701252D02*
X133450000Y-91178748D01*
X131980000Y-73398748D02*
X131980000Y-73921252D01*
X133450000Y-73398748D02*
X133450000Y-73921252D01*
X158750000Y-67370000D02*
X158750000Y-64710000D01*
X158750000Y-64710000D02*
X166430000Y-64710000D01*
X156150000Y-67370000D02*
X156150000Y-66040000D01*
X157480000Y-67370000D02*
X156150000Y-67370000D01*
X166430000Y-67370000D02*
X166430000Y-64710000D01*
X158750000Y-67370000D02*
X166430000Y-67370000D01*
X136425000Y-91667064D02*
X136425000Y-91212936D01*
X137895000Y-91667064D02*
X137895000Y-91212936D01*
X168750000Y-94900000D02*
X163750000Y-94900000D01*
X157750000Y-94900000D02*
X157750000Y-82900000D01*
X157750000Y-82900000D02*
X163750000Y-82900000D01*
X168750000Y-82900000D02*
X168750000Y-94900000D01*
X163750000Y-82900000D02*
X168750000Y-82900000D01*
X163750000Y-94900000D02*
X157750000Y-94900000D01*
X158810000Y-80070000D02*
X157480000Y-80070000D01*
X158810000Y-77470000D02*
X156210000Y-77470000D01*
X156210000Y-77470000D02*
X156210000Y-80070000D01*
X158810000Y-72330000D02*
X153610000Y-72330000D01*
X156210000Y-80070000D02*
X153610000Y-80070000D01*
X158810000Y-77470000D02*
X158810000Y-72330000D01*
X153610000Y-80070000D02*
X153610000Y-72330000D01*
X158810000Y-78740000D02*
X158810000Y-80070000D01*
X144720000Y-83820000D02*
X144720000Y-82490000D01*
X149920000Y-82490000D02*
X149920000Y-95310000D01*
X147320000Y-85090000D02*
X147320000Y-82490000D01*
X144720000Y-85090000D02*
X147320000Y-85090000D01*
X147320000Y-82490000D02*
X149920000Y-82490000D01*
X144720000Y-82490000D02*
X146050000Y-82490000D01*
X144720000Y-85090000D02*
X144720000Y-95310000D01*
X144720000Y-95310000D02*
X149920000Y-95310000D01*
X140210000Y-94290000D02*
X140210000Y-93360000D01*
X140210000Y-94290000D02*
X142370000Y-94290000D01*
X140210000Y-91130000D02*
X141670000Y-91130000D01*
X140210000Y-91130000D02*
X140210000Y-92060000D01*
X140210000Y-89210000D02*
X140210000Y-88280000D01*
X140210000Y-86050000D02*
X140210000Y-86980000D01*
X140210000Y-89210000D02*
X142370000Y-89210000D01*
X140210000Y-86050000D02*
X141670000Y-86050000D01*
X140210000Y-84130000D02*
X140210000Y-83200000D01*
X140210000Y-80970000D02*
X140210000Y-81900000D01*
X140210000Y-84130000D02*
X142370000Y-84130000D01*
X140210000Y-80970000D02*
X141670000Y-80970000D01*
X140210000Y-75890000D02*
X141670000Y-75890000D01*
X140210000Y-79050000D02*
X142370000Y-79050000D01*
X140210000Y-75890000D02*
X140210000Y-76820000D01*
X140210000Y-79050000D02*
X140210000Y-78120000D01*
X135905000Y-69915000D02*
X135905000Y-67315000D01*
X133305000Y-69915000D02*
X133305000Y-68585000D01*
X135905000Y-69915000D02*
X141045000Y-69915000D01*
X133305000Y-64715000D02*
X141045000Y-64715000D01*
X135905000Y-67315000D02*
X133305000Y-67315000D01*
X141045000Y-69915000D02*
X141045000Y-64715000D01*
X133305000Y-67315000D02*
X133305000Y-64715000D01*
X134635000Y-69915000D02*
X133305000Y-69915000D01*
X147547064Y-78205000D02*
X147092936Y-78205000D01*
X147547064Y-76735000D02*
X147092936Y-76735000D01*
M02*
