M48
; DRILL file {KiCad (6.0.2)} date vr 04 mrt 2022 18:35:04 CET
; FORMAT={-:-/ absolute / inch / decimal}
; #@! TF.CreationDate,2022-03-04T18:35:04+01:00
; #@! TF.GenerationSoftware,Kicad,Pcbnew,(6.0.2)
; #@! TF.FileFunction,Plated,1,2,PTH
FMAT,2
INCH
; #@! TA.AperFunction,Plated,PTH,ViaDrill
T1C0.0157
; #@! TA.AperFunction,Plated,PTH,ComponentDrill
T2C0.0256
; #@! TA.AperFunction,Plated,PTH,ComponentDrill
T3C0.0315
; #@! TA.AperFunction,Plated,PTH,ComponentDrill
T4C0.0394
%
G90
G05
T1
X5.125Y-2.65
X5.15Y-3.15
X5.3Y-3.1
X5.325Y-3.5
X5.4Y-3.2
X5.4Y-3.275
X5.425Y-3.725
X5.475Y-2.975
X5.65Y-3.2
X5.65Y-3.525
X5.6715Y-3.025
X5.7Y-3.075
X5.9Y-2.925
X5.9Y-3.05
X5.9Y-3.65
X5.975Y-3.0
X5.975Y-3.15
X5.975Y-3.225
X6.025Y-3.375
X6.0715Y-3.45
X6.1Y-3.525
X6.1285Y-3.4972
X6.3Y-2.925
X6.475Y-3.375
T2
X6.4246Y-2.9004
X6.4246Y-2.9504
X6.4246Y-3.0004
X6.4246Y-3.0504
X6.4246Y-3.1004
X6.4746Y-2.9004
X6.4746Y-2.9504
X6.4746Y-3.0004
X6.4746Y-3.0504
X6.4746Y-3.1004
T3
X6.25Y-3.3795
X6.25Y-3.4598
X6.25Y-3.5402
X6.35Y-3.4197
X6.35Y-3.5
X6.35Y-3.5803
T4
X4.9Y-2.7
X4.9Y-2.8
X4.9Y-2.9
X4.9Y-3.0
X4.9Y-3.1
X4.9Y-3.2
X4.9Y-3.3
X4.9Y-3.4
X4.9Y-3.5
X4.9Y-3.6
X5.0Y-2.7
X5.0Y-2.8
X5.0Y-2.9
X5.0Y-3.0
X5.0Y-3.1
X5.0Y-3.2
X5.0Y-3.3
X5.0Y-3.4
X5.0Y-3.5
X5.0Y-3.6
X5.3006Y-2.6002
X5.3006Y-2.7002
X5.4006Y-2.6002
X5.4006Y-2.7002
X5.5006Y-2.6002
X5.5006Y-2.7002
X5.7Y-2.6
X5.75Y-3.3
X5.75Y-3.4
X5.75Y-3.5
X5.75Y-3.6
X5.75Y-3.7
X5.8Y-2.6
X5.85Y-3.3
X5.85Y-3.4
X5.85Y-3.5
X5.85Y-3.6
X5.85Y-3.7
X5.9Y-2.6
X6.0Y-2.6
X6.1Y-2.9
X6.1Y-3.0
X6.1Y-3.1
X6.2Y-2.6
X6.2Y-2.9
X6.2Y-3.0
X6.2Y-3.1
X6.3Y-2.6
X6.4Y-2.6
X6.5Y-2.6
T0
M30
