G04 #@! TF.GenerationSoftware,KiCad,Pcbnew,(6.0.2)*
G04 #@! TF.CreationDate,2022-03-04T18:35:01+01:00*
G04 #@! TF.ProjectId,LINK,4c494e4b-2e6b-4696-9361-645f70636258,rev?*
G04 #@! TF.SameCoordinates,Original*
G04 #@! TF.FileFunction,Legend,Bot*
G04 #@! TF.FilePolarity,Positive*
%FSLAX46Y46*%
G04 Gerber Fmt 4.6, Leading zero omitted, Abs format (unit mm)*
G04 Created by KiCad (PCBNEW (6.0.2)) date 2022-03-04 18:35:01*
%MOMM*%
%LPD*%
G01*
G04 APERTURE LIST*
%ADD10C,0.300000*%
%ADD11C,0.120000*%
G04 APERTURE END LIST*
D10*
X166282142Y-93388571D02*
X166996428Y-93388571D01*
X166996428Y-91888571D01*
X165782142Y-93388571D02*
X165782142Y-91888571D01*
X165067857Y-93388571D02*
X165067857Y-91888571D01*
X164210714Y-93388571D01*
X164210714Y-91888571D01*
X163496428Y-93388571D02*
X163496428Y-91888571D01*
X162639285Y-93388571D02*
X163282142Y-92531428D01*
X162639285Y-91888571D02*
X163496428Y-92745714D01*
X160996428Y-92388571D02*
X160639285Y-93388571D01*
X160282142Y-92388571D01*
X159782142Y-92031428D02*
X159710714Y-91960000D01*
X159567857Y-91888571D01*
X159210714Y-91888571D01*
X159067857Y-91960000D01*
X158996428Y-92031428D01*
X158925000Y-92174285D01*
X158925000Y-92317142D01*
X158996428Y-92531428D01*
X159853571Y-93388571D01*
X158925000Y-93388571D01*
X158282142Y-93245714D02*
X158210714Y-93317142D01*
X158282142Y-93388571D01*
X158353571Y-93317142D01*
X158282142Y-93245714D01*
X158282142Y-93388571D01*
X157710714Y-91888571D02*
X156782142Y-91888571D01*
X157282142Y-92460000D01*
X157067857Y-92460000D01*
X156925000Y-92531428D01*
X156853571Y-92602857D01*
X156782142Y-92745714D01*
X156782142Y-93102857D01*
X156853571Y-93245714D01*
X156925000Y-93317142D01*
X157067857Y-93388571D01*
X157496428Y-93388571D01*
X157639285Y-93317142D01*
X157710714Y-93245714D01*
D11*
X125510000Y-86720000D02*
X125950000Y-86720000D01*
X123000000Y-84180000D02*
X123410000Y-84180000D01*
X114370000Y-82550000D02*
X123000000Y-82550000D01*
X114370000Y-92650000D02*
X123000000Y-92650000D01*
X127000000Y-92770000D02*
X128110000Y-92770000D01*
X114370000Y-87630000D02*
X123000000Y-87630000D01*
X114370000Y-80010000D02*
X123000000Y-80010000D01*
X123000000Y-92770000D02*
X123000000Y-67250000D01*
X114370000Y-90760480D02*
X123000000Y-90760480D01*
X123000000Y-86720000D02*
X123410000Y-86720000D01*
X114370000Y-72390000D02*
X123000000Y-72390000D01*
X114370000Y-74930000D02*
X123000000Y-74930000D01*
X114370000Y-67250000D02*
X123000000Y-67250000D01*
X125510000Y-78380000D02*
X125950000Y-78380000D01*
X114370000Y-91705240D02*
X123000000Y-91705240D01*
X123000000Y-83460000D02*
X123410000Y-83460000D01*
X114370000Y-90642385D02*
X123000000Y-90642385D01*
X114370000Y-91350955D02*
X123000000Y-91350955D01*
X125510000Y-79100000D02*
X125950000Y-79100000D01*
X114370000Y-85090000D02*
X123000000Y-85090000D01*
X125510000Y-81640000D02*
X125950000Y-81640000D01*
X114370000Y-90288100D02*
X123000000Y-90288100D01*
X114370000Y-77470000D02*
X123000000Y-77470000D01*
X125510000Y-71480000D02*
X125950000Y-71480000D01*
X125510000Y-83460000D02*
X125950000Y-83460000D01*
X125510000Y-84180000D02*
X125950000Y-84180000D01*
X114370000Y-91232860D02*
X123000000Y-91232860D01*
X114370000Y-91114765D02*
X123000000Y-91114765D01*
X114370000Y-92177620D02*
X123000000Y-92177620D01*
X125510000Y-68940000D02*
X125950000Y-68940000D01*
X123000000Y-79100000D02*
X123410000Y-79100000D01*
X125510000Y-73300000D02*
X125950000Y-73300000D01*
X114370000Y-92770000D02*
X114370000Y-67250000D01*
X123000000Y-91800000D02*
X123410000Y-91800000D01*
X114370000Y-90878575D02*
X123000000Y-90878575D01*
X125510000Y-89260000D02*
X125950000Y-89260000D01*
X125510000Y-68220000D02*
X125950000Y-68220000D01*
X114370000Y-92295715D02*
X123000000Y-92295715D01*
X125510000Y-70760000D02*
X125950000Y-70760000D01*
X125510000Y-91080000D02*
X125890000Y-91080000D01*
X114370000Y-92059525D02*
X123000000Y-92059525D01*
X125510000Y-74020000D02*
X125950000Y-74020000D01*
X114370000Y-92531905D02*
X123000000Y-92531905D01*
X123000000Y-76560000D02*
X123410000Y-76560000D01*
X114370000Y-92413810D02*
X123000000Y-92413810D01*
X125510000Y-91800000D02*
X125890000Y-91800000D01*
X123000000Y-73300000D02*
X123410000Y-73300000D01*
X114370000Y-90524290D02*
X123000000Y-90524290D01*
X123000000Y-81640000D02*
X123410000Y-81640000D01*
X123000000Y-80920000D02*
X123410000Y-80920000D01*
X123000000Y-89260000D02*
X123410000Y-89260000D01*
X125510000Y-88540000D02*
X125950000Y-88540000D01*
X114370000Y-90170000D02*
X123000000Y-90170000D01*
X123000000Y-71480000D02*
X123410000Y-71480000D01*
X114370000Y-91823335D02*
X123000000Y-91823335D01*
X128110000Y-92770000D02*
X128110000Y-91440000D01*
X123000000Y-68220000D02*
X123410000Y-68220000D01*
X123000000Y-74020000D02*
X123410000Y-74020000D01*
X114370000Y-91469050D02*
X123000000Y-91469050D01*
X123000000Y-75840000D02*
X123410000Y-75840000D01*
X114370000Y-90406195D02*
X123000000Y-90406195D01*
X125510000Y-80920000D02*
X125950000Y-80920000D01*
X123000000Y-91080000D02*
X123410000Y-91080000D01*
X114370000Y-69850000D02*
X123000000Y-69850000D01*
X125510000Y-75840000D02*
X125950000Y-75840000D01*
X123000000Y-86000000D02*
X123410000Y-86000000D01*
X114370000Y-92770000D02*
X123000000Y-92770000D01*
X125510000Y-76560000D02*
X125950000Y-76560000D01*
X114370000Y-91587145D02*
X123000000Y-91587145D01*
X123000000Y-70760000D02*
X123410000Y-70760000D01*
X114370000Y-91941430D02*
X123000000Y-91941430D01*
X123000000Y-68940000D02*
X123410000Y-68940000D01*
X114370000Y-90996670D02*
X123000000Y-90996670D01*
X123000000Y-88540000D02*
X123410000Y-88540000D01*
X123000000Y-78380000D02*
X123410000Y-78380000D01*
X125510000Y-86000000D02*
X125950000Y-86000000D01*
M02*
