G04 #@! TF.GenerationSoftware,KiCad,Pcbnew,10.0.2*
G04 #@! TF.CreationDate,2026-05-16T15:08:39+02:00*
G04 #@! TF.ProjectId,Baite20,42616974-6532-4302-9e6b-696361645f70,rev?*
G04 #@! TF.SameCoordinates,Original*
G04 #@! TF.FileFunction,Copper,L2,Bot*
G04 #@! TF.FilePolarity,Positive*
%FSLAX46Y46*%
G04 Gerber Fmt 4.6, Leading zero omitted, Abs format (unit mm)*
G04 Created by KiCad (PCBNEW 10.0.2) date 2026-05-16 15:08:39*
%MOMM*%
%LPD*%
G01*
G04 APERTURE LIST*
G04 #@! TA.AperFunction,ComponentPad*
%ADD10R,1.000000X1.000000*%
G04 #@! TD*
G04 #@! TA.AperFunction,ComponentPad*
%ADD11C,1.000000*%
G04 #@! TD*
G04 #@! TA.AperFunction,ComponentPad*
%ADD12R,1.700000X1.700000*%
G04 #@! TD*
G04 #@! TA.AperFunction,ComponentPad*
%ADD13C,1.700000*%
G04 #@! TD*
G04 #@! TA.AperFunction,Conductor*
%ADD14C,0.250000*%
G04 #@! TD*
G04 APERTURE END LIST*
D10*
X106680000Y-84455000D03*
D11*
X105410000Y-84455000D03*
X106680000Y-83185000D03*
X105410000Y-83185000D03*
X106680000Y-81915000D03*
X105410000Y-81915000D03*
X106680000Y-80645000D03*
X105410000Y-80645000D03*
X106680000Y-79375000D03*
X105410000Y-79375000D03*
D12*
X107738163Y-90232355D03*
D13*
X105198163Y-90232355D03*
D12*
X99060000Y-88900000D03*
D13*
X96520000Y-88900000D03*
X99060000Y-86360000D03*
X96520000Y-86360000D03*
X99060000Y-83820000D03*
X96520000Y-83820000D03*
X99060000Y-81280000D03*
X96520000Y-81280000D03*
X99060000Y-78740000D03*
X96520000Y-78740000D03*
D14*
X96520000Y-86360000D02*
X96520000Y-87238299D01*
X107505000Y-85280000D02*
X107505000Y-83630000D01*
X97885000Y-88603299D02*
X97885000Y-90075000D01*
X102710000Y-90075000D02*
X107505000Y-85280000D01*
X107060000Y-83185000D02*
X106680000Y-83185000D01*
X107505000Y-83630000D02*
X107060000Y-83185000D01*
X97885000Y-90075000D02*
X102710000Y-90075000D01*
X96520000Y-87238299D02*
X97885000Y-88603299D01*
X101600000Y-82550000D02*
X101600000Y-85090000D01*
X101600000Y-85090000D02*
X100330000Y-86360000D01*
X105410000Y-81915000D02*
X102235000Y-81915000D01*
X102235000Y-81915000D02*
X101600000Y-82550000D01*
X100330000Y-86360000D02*
X99060000Y-86360000D01*
X97790000Y-87630000D02*
X99060000Y-88900000D01*
X99451701Y-85090000D02*
X98668299Y-85090000D01*
X102868604Y-80645000D02*
X100330000Y-83183604D01*
X100330000Y-83183604D02*
X100330000Y-84211701D01*
X97790000Y-85968299D02*
X97790000Y-87630000D01*
X105410000Y-80645000D02*
X102868604Y-80645000D01*
X100330000Y-84211701D02*
X99451701Y-85090000D01*
X98668299Y-85090000D02*
X97790000Y-85968299D01*
X105410000Y-79375000D02*
X104870000Y-79915000D01*
X104870000Y-79915000D02*
X97695000Y-79915000D01*
X97695000Y-79915000D02*
X96520000Y-78740000D01*
G04 #@! TA.AperFunction,Conductor*
G36*
X110332539Y-75050185D02*
G01*
X110378294Y-75102989D01*
X110389500Y-75154500D01*
X110389500Y-92485500D01*
X110369815Y-92552539D01*
X110317011Y-92598294D01*
X110265500Y-92609500D01*
X95474500Y-92609500D01*
X95407461Y-92589815D01*
X95361706Y-92537011D01*
X95350500Y-92485500D01*
X95350500Y-89951072D01*
X95370185Y-89884033D01*
X95422989Y-89838278D01*
X95492147Y-89828334D01*
X95555703Y-89857359D01*
X95562181Y-89863391D01*
X95634996Y-89936206D01*
X95807991Y-90061894D01*
X95901438Y-90109507D01*
X95998516Y-90158972D01*
X95998519Y-90158973D01*
X96100200Y-90192010D01*
X96201884Y-90225049D01*
X96413084Y-90258500D01*
X96413085Y-90258500D01*
X96626915Y-90258500D01*
X96626916Y-90258500D01*
X96838116Y-90225049D01*
X97041483Y-90158972D01*
X97232009Y-90061894D01*
X97405004Y-89936206D01*
X97510184Y-89831025D01*
X97571503Y-89797543D01*
X97641195Y-89802527D01*
X97697129Y-89844398D01*
X97714043Y-89875375D01*
X97759110Y-89996203D01*
X97759111Y-89996204D01*
X97846739Y-90113261D01*
X97963796Y-90200889D01*
X98100799Y-90251989D01*
X98128050Y-90254918D01*
X98161345Y-90258499D01*
X98161362Y-90258500D01*
X99958638Y-90258500D01*
X99958654Y-90258499D01*
X99985692Y-90255591D01*
X100019201Y-90251989D01*
X100156204Y-90200889D01*
X100256993Y-90125439D01*
X103839663Y-90125439D01*
X103839663Y-90339270D01*
X103873114Y-90550472D01*
X103939189Y-90753835D01*
X103939190Y-90753838D01*
X104016663Y-90905885D01*
X104036269Y-90944364D01*
X104161957Y-91117359D01*
X104313159Y-91268561D01*
X104486154Y-91394249D01*
X104579601Y-91441862D01*
X104676679Y-91491327D01*
X104676682Y-91491328D01*
X104778363Y-91524365D01*
X104880047Y-91557404D01*
X105091247Y-91590855D01*
X105091248Y-91590855D01*
X105305078Y-91590855D01*
X105305079Y-91590855D01*
X105516279Y-91557404D01*
X105719646Y-91491327D01*
X105910172Y-91394249D01*
X106083167Y-91268561D01*
X106188347Y-91163380D01*
X106249666Y-91129898D01*
X106319358Y-91134882D01*
X106375292Y-91176753D01*
X106392206Y-91207730D01*
X106437273Y-91328558D01*
X106437274Y-91328559D01*
X106524902Y-91445616D01*
X106641959Y-91533244D01*
X106778962Y-91584344D01*
X106806213Y-91587273D01*
X106839508Y-91590854D01*
X106839525Y-91590855D01*
X108636801Y-91590855D01*
X108636817Y-91590854D01*
X108663855Y-91587946D01*
X108697364Y-91584344D01*
X108834367Y-91533244D01*
X108951424Y-91445616D01*
X109039052Y-91328559D01*
X109090152Y-91191556D01*
X109093754Y-91158047D01*
X109096662Y-91131009D01*
X109096663Y-91130992D01*
X109096663Y-89333717D01*
X109096662Y-89333700D01*
X109093181Y-89301326D01*
X109090152Y-89273154D01*
X109084119Y-89256980D01*
X109061430Y-89196149D01*
X109039052Y-89136151D01*
X108951424Y-89019094D01*
X108834367Y-88931466D01*
X108697366Y-88880366D01*
X108636817Y-88873855D01*
X108636801Y-88873855D01*
X106839525Y-88873855D01*
X106839508Y-88873855D01*
X106778960Y-88880366D01*
X106778958Y-88880366D01*
X106641958Y-88931466D01*
X106524902Y-89019094D01*
X106437274Y-89136150D01*
X106392206Y-89256980D01*
X106350334Y-89312913D01*
X106284870Y-89337329D01*
X106216597Y-89322477D01*
X106188344Y-89301326D01*
X106083169Y-89196151D01*
X106083167Y-89196149D01*
X105910172Y-89070461D01*
X105719646Y-88973382D01*
X105719643Y-88973381D01*
X105516280Y-88907306D01*
X105410679Y-88890580D01*
X105305079Y-88873855D01*
X105091247Y-88873855D01*
X105020847Y-88885005D01*
X104880045Y-88907306D01*
X104676682Y-88973381D01*
X104676679Y-88973382D01*
X104486153Y-89070461D01*
X104313156Y-89196151D01*
X104161959Y-89347348D01*
X104036269Y-89520345D01*
X103939190Y-89710871D01*
X103939189Y-89710874D01*
X103873114Y-89914237D01*
X103839663Y-90125439D01*
X100256993Y-90125439D01*
X100273261Y-90113261D01*
X100360889Y-89996204D01*
X100411989Y-89859201D01*
X100415591Y-89825692D01*
X100418499Y-89798654D01*
X100418500Y-89798637D01*
X100418500Y-88001362D01*
X100418499Y-88001345D01*
X100415138Y-87970094D01*
X100411989Y-87940799D01*
X100410426Y-87936609D01*
X100381022Y-87857774D01*
X100360889Y-87803796D01*
X100273261Y-87686739D01*
X100156204Y-87599111D01*
X100156202Y-87599110D01*
X100156204Y-87599110D01*
X100035375Y-87554043D01*
X99979441Y-87512172D01*
X99955025Y-87446707D01*
X99969877Y-87378434D01*
X99991022Y-87350187D01*
X100096206Y-87245004D01*
X100221894Y-87072009D01*
X100227398Y-87061205D01*
X100275371Y-87010410D01*
X100337883Y-86993500D01*
X100392395Y-86993500D01*
X100392396Y-86993499D01*
X100514785Y-86969155D01*
X100630075Y-86921400D01*
X100733833Y-86852071D01*
X102092071Y-85493833D01*
X102161400Y-85390075D01*
X102209155Y-85274785D01*
X102233500Y-85152394D01*
X102233500Y-85027606D01*
X102233500Y-82863766D01*
X102253185Y-82796727D01*
X102269819Y-82776085D01*
X102461086Y-82584819D01*
X102522409Y-82551334D01*
X102548767Y-82548500D01*
X104396475Y-82548500D01*
X104463514Y-82568185D01*
X104509269Y-82620989D01*
X104519213Y-82690147D01*
X104511036Y-82719953D01*
X104440256Y-82890830D01*
X104440254Y-82890838D01*
X104401500Y-83085666D01*
X104401500Y-83284333D01*
X104440254Y-83479161D01*
X104440256Y-83479169D01*
X104516277Y-83662701D01*
X104516282Y-83662710D01*
X104575349Y-83751109D01*
X104596227Y-83817786D01*
X104577743Y-83885167D01*
X104575349Y-83888891D01*
X104516282Y-83977289D01*
X104516277Y-83977298D01*
X104440256Y-84160830D01*
X104440254Y-84160838D01*
X104401500Y-84355666D01*
X104401500Y-84554333D01*
X104440254Y-84749161D01*
X104440256Y-84749169D01*
X104516277Y-84932701D01*
X104516282Y-84932710D01*
X104626646Y-85097880D01*
X104626649Y-85097884D01*
X104767115Y-85238350D01*
X104767119Y-85238353D01*
X104932289Y-85348717D01*
X104932295Y-85348720D01*
X104932296Y-85348721D01*
X105115831Y-85424744D01*
X105277933Y-85456988D01*
X105310666Y-85463499D01*
X105310670Y-85463500D01*
X105310671Y-85463500D01*
X105509330Y-85463500D01*
X105509331Y-85463499D01*
X105704169Y-85424744D01*
X105802977Y-85383815D01*
X105872445Y-85376347D01*
X105924739Y-85399109D01*
X105933796Y-85405889D01*
X106070799Y-85456989D01*
X106098050Y-85459918D01*
X106131345Y-85463499D01*
X106131362Y-85463500D01*
X107228638Y-85463500D01*
X107228654Y-85463499D01*
X107255692Y-85460591D01*
X107289201Y-85456989D01*
X107426204Y-85405889D01*
X107543261Y-85318261D01*
X107630889Y-85201204D01*
X107681989Y-85064201D01*
X107686384Y-85023318D01*
X107688499Y-85003654D01*
X107688500Y-85003637D01*
X107688500Y-83906362D01*
X107688499Y-83906345D01*
X107685157Y-83875270D01*
X107681989Y-83845799D01*
X107672366Y-83820000D01*
X107632488Y-83713084D01*
X107630889Y-83708796D01*
X107630887Y-83708793D01*
X107618187Y-83691827D01*
X107593770Y-83626363D01*
X107602893Y-83570064D01*
X107641570Y-83476689D01*
X107641572Y-83476681D01*
X107679999Y-83283495D01*
X107680000Y-83283492D01*
X107680000Y-83086508D01*
X107679999Y-83086504D01*
X107641572Y-82893318D01*
X107641569Y-82893306D01*
X107566192Y-82711328D01*
X107509538Y-82626541D01*
X107488660Y-82559863D01*
X107507144Y-82492483D01*
X107509480Y-82488846D01*
X107573721Y-82392704D01*
X107649744Y-82209169D01*
X107688500Y-82014329D01*
X107688500Y-81815671D01*
X107649744Y-81620831D01*
X107580221Y-81452989D01*
X107573722Y-81437298D01*
X107548924Y-81400185D01*
X107509537Y-81341238D01*
X107488660Y-81274564D01*
X107507144Y-81207184D01*
X107509539Y-81203458D01*
X107566189Y-81118676D01*
X107566191Y-81118673D01*
X107641569Y-80936693D01*
X107641572Y-80936681D01*
X107679999Y-80743495D01*
X107680000Y-80743492D01*
X107680000Y-80546508D01*
X107679999Y-80546504D01*
X107641572Y-80353318D01*
X107641569Y-80353306D01*
X107566192Y-80171328D01*
X107542571Y-80135978D01*
X107005000Y-80673551D01*
X107005000Y-80602213D01*
X106982851Y-80519555D01*
X106940064Y-80445446D01*
X106879554Y-80384936D01*
X106805445Y-80342149D01*
X106722787Y-80320000D01*
X106637213Y-80320000D01*
X106554555Y-80342149D01*
X106480446Y-80384936D01*
X106419936Y-80445446D01*
X106404040Y-80472977D01*
X106386528Y-80384936D01*
X106379744Y-80350831D01*
X106363999Y-80312820D01*
X106356531Y-80243354D01*
X106387805Y-80180875D01*
X106447894Y-80145222D01*
X106517719Y-80147715D01*
X106566242Y-80177688D01*
X106680000Y-80291446D01*
X106961446Y-80010001D01*
X106961446Y-80009999D01*
X106680001Y-79728553D01*
X106566242Y-79842311D01*
X106504919Y-79875795D01*
X106435227Y-79870811D01*
X106379294Y-79828939D01*
X106354877Y-79763475D01*
X106364000Y-79707176D01*
X106379744Y-79669169D01*
X106404040Y-79547022D01*
X106419936Y-79574554D01*
X106480446Y-79635064D01*
X106554555Y-79677851D01*
X106637213Y-79700000D01*
X106722787Y-79700000D01*
X106805445Y-79677851D01*
X106879554Y-79635064D01*
X106940064Y-79574554D01*
X106982851Y-79500445D01*
X107005000Y-79417787D01*
X107005000Y-79374999D01*
X107033553Y-79374999D01*
X107033553Y-79375000D01*
X107542571Y-79884019D01*
X107542573Y-79884019D01*
X107566187Y-79848680D01*
X107566190Y-79848676D01*
X107641569Y-79666693D01*
X107641572Y-79666681D01*
X107679999Y-79473495D01*
X107680000Y-79473492D01*
X107680000Y-79276508D01*
X107679999Y-79276504D01*
X107641572Y-79083318D01*
X107641569Y-79083306D01*
X107566192Y-78901328D01*
X107542572Y-78865979D01*
X107033553Y-79374999D01*
X107005000Y-79374999D01*
X107005000Y-79332213D01*
X106982851Y-79249555D01*
X106940064Y-79175446D01*
X106879554Y-79114936D01*
X106805445Y-79072149D01*
X106722787Y-79050000D01*
X106651446Y-79050000D01*
X107189019Y-78512426D01*
X107153675Y-78488809D01*
X107153673Y-78488808D01*
X106971693Y-78413430D01*
X106971681Y-78413427D01*
X106778495Y-78375000D01*
X106581504Y-78375000D01*
X106388318Y-78413427D01*
X106388306Y-78413430D01*
X106206328Y-78488807D01*
X106206315Y-78488814D01*
X106121540Y-78545460D01*
X106054862Y-78566338D01*
X105987482Y-78547853D01*
X105983758Y-78545460D01*
X105887710Y-78481282D01*
X105887701Y-78481277D01*
X105704169Y-78405256D01*
X105704161Y-78405254D01*
X105509333Y-78366500D01*
X105509329Y-78366500D01*
X105310671Y-78366500D01*
X105310666Y-78366500D01*
X105115838Y-78405254D01*
X105115830Y-78405256D01*
X104932298Y-78481277D01*
X104932289Y-78481282D01*
X104767119Y-78591646D01*
X104767115Y-78591649D01*
X104626649Y-78732115D01*
X104626646Y-78732119D01*
X104516282Y-78897289D01*
X104516277Y-78897298D01*
X104440256Y-79080830D01*
X104440254Y-79080838D01*
X104420193Y-79181691D01*
X104387808Y-79243602D01*
X104327092Y-79278176D01*
X104298576Y-79281500D01*
X100483139Y-79281500D01*
X100416100Y-79261815D01*
X100370345Y-79209011D01*
X100360401Y-79139853D01*
X100365208Y-79119182D01*
X100377666Y-79080838D01*
X100385049Y-79058116D01*
X100418500Y-78846916D01*
X100418500Y-78633084D01*
X100385049Y-78421884D01*
X100318972Y-78218517D01*
X100318972Y-78218516D01*
X100239483Y-78062512D01*
X100221894Y-78027991D01*
X100096206Y-77854996D01*
X99945004Y-77703794D01*
X99772009Y-77578106D01*
X99581483Y-77481027D01*
X99581480Y-77481026D01*
X99378117Y-77414951D01*
X99272516Y-77398225D01*
X99166916Y-77381500D01*
X98953084Y-77381500D01*
X98882684Y-77392650D01*
X98741882Y-77414951D01*
X98538519Y-77481026D01*
X98538516Y-77481027D01*
X98347990Y-77578106D01*
X98174993Y-77703796D01*
X98023796Y-77854993D01*
X97898105Y-78027991D01*
X97895727Y-78031873D01*
X97843914Y-78078748D01*
X97774984Y-78090169D01*
X97710822Y-78062512D01*
X97684273Y-78031873D01*
X97681894Y-78027991D01*
X97681893Y-78027990D01*
X97556206Y-77854996D01*
X97405004Y-77703794D01*
X97232009Y-77578106D01*
X97041483Y-77481027D01*
X97041480Y-77481026D01*
X96838117Y-77414951D01*
X96732516Y-77398225D01*
X96626916Y-77381500D01*
X96413084Y-77381500D01*
X96342684Y-77392650D01*
X96201882Y-77414951D01*
X95998519Y-77481026D01*
X95998516Y-77481027D01*
X95807990Y-77578106D01*
X95634993Y-77703796D01*
X95562181Y-77776609D01*
X95500858Y-77810094D01*
X95431166Y-77805110D01*
X95375233Y-77763238D01*
X95350816Y-77697774D01*
X95350500Y-77688928D01*
X95350500Y-75154500D01*
X95370185Y-75087461D01*
X95422989Y-75041706D01*
X95474500Y-75030500D01*
X110265500Y-75030500D01*
X110332539Y-75050185D01*
G37*
G04 #@! TD.AperFunction*
G04 #@! TA.AperFunction,Conductor*
G36*
X96054075Y-86552993D02*
G01*
X96119901Y-86667007D01*
X96212993Y-86760099D01*
X96327007Y-86825925D01*
X96390589Y-86842962D01*
X95758282Y-87475269D01*
X95758282Y-87475270D01*
X95812449Y-87514624D01*
X95812682Y-87514743D01*
X95812755Y-87514812D01*
X95816604Y-87517171D01*
X95816108Y-87517979D01*
X95863479Y-87562716D01*
X95880275Y-87630537D01*
X95857739Y-87696672D01*
X95812693Y-87735709D01*
X95807994Y-87738103D01*
X95634993Y-87863796D01*
X95562181Y-87936609D01*
X95500858Y-87970094D01*
X95431166Y-87965110D01*
X95375233Y-87923238D01*
X95350816Y-87857774D01*
X95350500Y-87848928D01*
X95350500Y-87227307D01*
X95370185Y-87160268D01*
X95386819Y-87139626D01*
X96037037Y-86489408D01*
X96054075Y-86552993D01*
G37*
G04 #@! TD.AperFunction*
G04 #@! TA.AperFunction,Conductor*
G36*
X95121617Y-81400185D02*
G01*
X95167372Y-81452989D01*
X95177051Y-81485102D01*
X95194951Y-81598117D01*
X95261026Y-81801480D01*
X95261027Y-81801483D01*
X95332245Y-81941254D01*
X95358106Y-81992009D01*
X95483794Y-82165004D01*
X95634996Y-82316206D01*
X95740280Y-82392699D01*
X95807991Y-82441894D01*
X95811873Y-82444273D01*
X95858748Y-82496086D01*
X95870169Y-82565016D01*
X95842512Y-82629178D01*
X95811873Y-82655727D01*
X95807991Y-82658105D01*
X95634993Y-82783796D01*
X95483796Y-82934993D01*
X95358106Y-83107990D01*
X95261027Y-83298516D01*
X95261026Y-83298519D01*
X95194951Y-83501882D01*
X95164867Y-83691827D01*
X95161500Y-83713084D01*
X95161500Y-83926916D01*
X95169480Y-83977298D01*
X95194951Y-84138117D01*
X95261026Y-84341480D01*
X95261027Y-84341483D01*
X95332245Y-84481254D01*
X95358106Y-84532009D01*
X95483794Y-84705004D01*
X95634996Y-84856206D01*
X95807991Y-84981894D01*
X95812680Y-84984283D01*
X95863478Y-85032254D01*
X95880276Y-85100074D01*
X95857742Y-85166210D01*
X95816205Y-85202209D01*
X95816590Y-85202838D01*
X95812804Y-85205157D01*
X95812702Y-85205246D01*
X95812449Y-85205374D01*
X95812440Y-85205380D01*
X95758282Y-85244727D01*
X95758282Y-85244728D01*
X96390591Y-85877037D01*
X96327007Y-85894075D01*
X96212993Y-85959901D01*
X96119901Y-86052993D01*
X96054075Y-86167007D01*
X96037037Y-86230591D01*
X95404728Y-85598282D01*
X95404727Y-85598282D01*
X95365380Y-85652439D01*
X95268904Y-85841782D01*
X95203242Y-86043869D01*
X95203242Y-86043872D01*
X95185657Y-86154898D01*
X95155728Y-86218033D01*
X95096416Y-86254964D01*
X95063184Y-86259500D01*
X86584500Y-86259500D01*
X86517461Y-86239815D01*
X86471706Y-86187011D01*
X86460500Y-86135500D01*
X86460500Y-81504500D01*
X86480185Y-81437461D01*
X86532989Y-81391706D01*
X86584500Y-81380500D01*
X95054578Y-81380500D01*
X95121617Y-81400185D01*
G37*
G04 #@! TD.AperFunction*
M02*
