G04 #@! TF.GenerationSoftware,KiCad,Pcbnew,10.0.2*
G04 #@! TF.CreationDate,2026-05-16T15:08:39+02:00*
G04 #@! TF.ProjectId,Baite20,42616974-6532-4302-9e6b-696361645f70,rev?*
G04 #@! TF.SameCoordinates,Original*
G04 #@! TF.FileFunction,Legend,Top*
G04 #@! TF.FilePolarity,Positive*
%FSLAX46Y46*%
G04 Gerber Fmt 4.6, Leading zero omitted, Abs format (unit mm)*
G04 Created by KiCad (PCBNEW 10.0.2) date 2026-05-16 15:08:39*
%MOMM*%
%LPD*%
G01*
G04 APERTURE LIST*
%ADD10C,0.150000*%
%ADD11C,0.120000*%
G04 APERTURE END LIST*
D10*
X102216009Y-90134887D02*
X102263628Y-89992030D01*
X102263628Y-89992030D02*
X102311247Y-89944411D01*
X102311247Y-89944411D02*
X102406485Y-89896792D01*
X102406485Y-89896792D02*
X102549342Y-89896792D01*
X102549342Y-89896792D02*
X102644580Y-89944411D01*
X102644580Y-89944411D02*
X102692200Y-89992030D01*
X102692200Y-89992030D02*
X102739819Y-90087268D01*
X102739819Y-90087268D02*
X102739819Y-90468220D01*
X102739819Y-90468220D02*
X101739819Y-90468220D01*
X101739819Y-90468220D02*
X101739819Y-90134887D01*
X101739819Y-90134887D02*
X101787438Y-90039649D01*
X101787438Y-90039649D02*
X101835057Y-89992030D01*
X101835057Y-89992030D02*
X101930295Y-89944411D01*
X101930295Y-89944411D02*
X102025533Y-89944411D01*
X102025533Y-89944411D02*
X102120771Y-89992030D01*
X102120771Y-89992030D02*
X102168390Y-90039649D01*
X102168390Y-90039649D02*
X102216009Y-90134887D01*
X102216009Y-90134887D02*
X102216009Y-90468220D01*
X102739819Y-89039649D02*
X102216009Y-89039649D01*
X102216009Y-89039649D02*
X102120771Y-89087268D01*
X102120771Y-89087268D02*
X102073152Y-89182506D01*
X102073152Y-89182506D02*
X102073152Y-89372982D01*
X102073152Y-89372982D02*
X102120771Y-89468220D01*
X102692200Y-89039649D02*
X102739819Y-89134887D01*
X102739819Y-89134887D02*
X102739819Y-89372982D01*
X102739819Y-89372982D02*
X102692200Y-89468220D01*
X102692200Y-89468220D02*
X102596961Y-89515839D01*
X102596961Y-89515839D02*
X102501723Y-89515839D01*
X102501723Y-89515839D02*
X102406485Y-89468220D01*
X102406485Y-89468220D02*
X102358866Y-89372982D01*
X102358866Y-89372982D02*
X102358866Y-89134887D01*
X102358866Y-89134887D02*
X102311247Y-89039649D01*
X102739819Y-88563458D02*
X102073152Y-88563458D01*
X101739819Y-88563458D02*
X101787438Y-88611077D01*
X101787438Y-88611077D02*
X101835057Y-88563458D01*
X101835057Y-88563458D02*
X101787438Y-88515839D01*
X101787438Y-88515839D02*
X101739819Y-88563458D01*
X101739819Y-88563458D02*
X101835057Y-88563458D01*
X102073152Y-88230125D02*
X102073152Y-87849173D01*
X101739819Y-88087268D02*
X102596961Y-88087268D01*
X102596961Y-88087268D02*
X102692200Y-88039649D01*
X102692200Y-88039649D02*
X102739819Y-87944411D01*
X102739819Y-87944411D02*
X102739819Y-87849173D01*
X102692200Y-87134887D02*
X102739819Y-87230125D01*
X102739819Y-87230125D02*
X102739819Y-87420601D01*
X102739819Y-87420601D02*
X102692200Y-87515839D01*
X102692200Y-87515839D02*
X102596961Y-87563458D01*
X102596961Y-87563458D02*
X102216009Y-87563458D01*
X102216009Y-87563458D02*
X102120771Y-87515839D01*
X102120771Y-87515839D02*
X102073152Y-87420601D01*
X102073152Y-87420601D02*
X102073152Y-87230125D01*
X102073152Y-87230125D02*
X102120771Y-87134887D01*
X102120771Y-87134887D02*
X102216009Y-87087268D01*
X102216009Y-87087268D02*
X102311247Y-87087268D01*
X102311247Y-87087268D02*
X102406485Y-87563458D01*
X102692200Y-85944410D02*
X102739819Y-85801553D01*
X102739819Y-85801553D02*
X102739819Y-85563458D01*
X102739819Y-85563458D02*
X102692200Y-85468220D01*
X102692200Y-85468220D02*
X102644580Y-85420601D01*
X102644580Y-85420601D02*
X102549342Y-85372982D01*
X102549342Y-85372982D02*
X102454104Y-85372982D01*
X102454104Y-85372982D02*
X102358866Y-85420601D01*
X102358866Y-85420601D02*
X102311247Y-85468220D01*
X102311247Y-85468220D02*
X102263628Y-85563458D01*
X102263628Y-85563458D02*
X102216009Y-85753934D01*
X102216009Y-85753934D02*
X102168390Y-85849172D01*
X102168390Y-85849172D02*
X102120771Y-85896791D01*
X102120771Y-85896791D02*
X102025533Y-85944410D01*
X102025533Y-85944410D02*
X101930295Y-85944410D01*
X101930295Y-85944410D02*
X101835057Y-85896791D01*
X101835057Y-85896791D02*
X101787438Y-85849172D01*
X101787438Y-85849172D02*
X101739819Y-85753934D01*
X101739819Y-85753934D02*
X101739819Y-85515839D01*
X101739819Y-85515839D02*
X101787438Y-85372982D01*
X101739819Y-85087267D02*
X101739819Y-84515839D01*
X102739819Y-84801553D02*
X101739819Y-84801553D01*
X102358866Y-84182505D02*
X102358866Y-83420601D01*
X102739819Y-82468220D02*
X102739819Y-82944410D01*
X102739819Y-82944410D02*
X101739819Y-82944410D01*
X102739819Y-82134886D02*
X102073152Y-82134886D01*
X101739819Y-82134886D02*
X101787438Y-82182505D01*
X101787438Y-82182505D02*
X101835057Y-82134886D01*
X101835057Y-82134886D02*
X101787438Y-82087267D01*
X101787438Y-82087267D02*
X101739819Y-82134886D01*
X101739819Y-82134886D02*
X101835057Y-82134886D01*
X102073152Y-81658696D02*
X102739819Y-81658696D01*
X102168390Y-81658696D02*
X102120771Y-81611077D01*
X102120771Y-81611077D02*
X102073152Y-81515839D01*
X102073152Y-81515839D02*
X102073152Y-81372982D01*
X102073152Y-81372982D02*
X102120771Y-81277744D01*
X102120771Y-81277744D02*
X102216009Y-81230125D01*
X102216009Y-81230125D02*
X102739819Y-81230125D01*
X102739819Y-80753934D02*
X101739819Y-80753934D01*
X102358866Y-80658696D02*
X102739819Y-80372982D01*
X102073152Y-80372982D02*
X102454104Y-80753934D01*
X101835057Y-79230124D02*
X101787438Y-79182505D01*
X101787438Y-79182505D02*
X101739819Y-79087267D01*
X101739819Y-79087267D02*
X101739819Y-78849172D01*
X101739819Y-78849172D02*
X101787438Y-78753934D01*
X101787438Y-78753934D02*
X101835057Y-78706315D01*
X101835057Y-78706315D02*
X101930295Y-78658696D01*
X101930295Y-78658696D02*
X102025533Y-78658696D01*
X102025533Y-78658696D02*
X102168390Y-78706315D01*
X102168390Y-78706315D02*
X102739819Y-79277743D01*
X102739819Y-79277743D02*
X102739819Y-78658696D01*
X102644580Y-78230124D02*
X102692200Y-78182505D01*
X102692200Y-78182505D02*
X102739819Y-78230124D01*
X102739819Y-78230124D02*
X102692200Y-78277743D01*
X102692200Y-78277743D02*
X102644580Y-78230124D01*
X102644580Y-78230124D02*
X102739819Y-78230124D01*
X101739819Y-77563458D02*
X101739819Y-77468220D01*
X101739819Y-77468220D02*
X101787438Y-77372982D01*
X101787438Y-77372982D02*
X101835057Y-77325363D01*
X101835057Y-77325363D02*
X101930295Y-77277744D01*
X101930295Y-77277744D02*
X102120771Y-77230125D01*
X102120771Y-77230125D02*
X102358866Y-77230125D01*
X102358866Y-77230125D02*
X102549342Y-77277744D01*
X102549342Y-77277744D02*
X102644580Y-77325363D01*
X102644580Y-77325363D02*
X102692200Y-77372982D01*
X102692200Y-77372982D02*
X102739819Y-77468220D01*
X102739819Y-77468220D02*
X102739819Y-77563458D01*
X102739819Y-77563458D02*
X102692200Y-77658696D01*
X102692200Y-77658696D02*
X102644580Y-77706315D01*
X102644580Y-77706315D02*
X102549342Y-77753934D01*
X102549342Y-77753934D02*
X102358866Y-77801553D01*
X102358866Y-77801553D02*
X102120771Y-77801553D01*
X102120771Y-77801553D02*
X101930295Y-77753934D01*
X101930295Y-77753934D02*
X101835057Y-77706315D01*
X101835057Y-77706315D02*
X101787438Y-77658696D01*
X101787438Y-77658696D02*
X101739819Y-77563458D01*
X104140000Y-76200000D02*
X107950000Y-76200000D01*
X107950000Y-87630000D01*
X104140000Y-87630000D01*
X104140000Y-76200000D01*
G36*
X104140000Y-76200000D02*
G01*
X107950000Y-76200000D01*
X107950000Y-87630000D01*
X104140000Y-87630000D01*
X104140000Y-76200000D01*
G37*
X107950000Y-80645000D02*
X109855000Y-80645000D01*
X109855000Y-83185000D01*
X107950000Y-83185000D01*
X107950000Y-80645000D01*
G36*
X107950000Y-80645000D02*
G01*
X109855000Y-80645000D01*
X109855000Y-83185000D01*
X107950000Y-83185000D01*
X107950000Y-80645000D01*
G37*
D11*
X104230000Y-85200000D02*
X104230000Y-78630000D01*
X105092077Y-78630000D02*
X104230000Y-78630000D01*
X105092077Y-85200000D02*
X104230000Y-85200000D01*
X106362077Y-78630000D02*
X105727923Y-78630000D01*
X107860000Y-78630000D02*
X106997923Y-78630000D01*
X107860000Y-83645000D02*
X107346708Y-83645000D01*
X107860000Y-83645000D02*
X107860000Y-78630000D01*
X107860000Y-84455000D02*
X107860000Y-85265000D01*
X107860000Y-85265000D02*
X106680000Y-85265000D01*
X103818163Y-88852355D02*
X103818163Y-91612355D01*
X106468163Y-88852355D02*
X103818163Y-88852355D01*
X106468163Y-88852355D02*
X106468163Y-91612355D01*
X106468163Y-91612355D02*
X103818163Y-91612355D01*
X107738163Y-88852355D02*
X109118163Y-88852355D01*
X109118163Y-88852355D02*
X109118163Y-90232355D01*
M02*
