G04 #@! TF.GenerationSoftware,KiCad,Pcbnew,10.0.2*
G04 #@! TF.CreationDate,2026-05-16T15:08:40+02:00*
G04 #@! TF.ProjectId,Baite20,42616974-6532-4302-9e6b-696361645f70,rev?*
G04 #@! TF.SameCoordinates,Original*
G04 #@! TF.FileFunction,Legend,Bot*
G04 #@! TF.FilePolarity,Positive*
%FSLAX46Y46*%
G04 Gerber Fmt 4.6, Leading zero omitted, Abs format (unit mm)*
G04 Created by KiCad (PCBNEW 10.0.2) date 2026-05-16 15:08:40*
%MOMM*%
%LPD*%
G01*
G04 APERTURE LIST*
%ADD10C,0.150000*%
%ADD11C,0.120000*%
G04 APERTURE END LIST*
D10*
X109518220Y-76865211D02*
X109518220Y-75865211D01*
X109518220Y-75865211D02*
X109280125Y-75865211D01*
X109280125Y-75865211D02*
X109137268Y-75912830D01*
X109137268Y-75912830D02*
X109042030Y-76008068D01*
X109042030Y-76008068D02*
X108994411Y-76103306D01*
X108994411Y-76103306D02*
X108946792Y-76293782D01*
X108946792Y-76293782D02*
X108946792Y-76436639D01*
X108946792Y-76436639D02*
X108994411Y-76627115D01*
X108994411Y-76627115D02*
X109042030Y-76722353D01*
X109042030Y-76722353D02*
X109137268Y-76817592D01*
X109137268Y-76817592D02*
X109280125Y-76865211D01*
X109280125Y-76865211D02*
X109518220Y-76865211D01*
X108137268Y-76817592D02*
X108232506Y-76865211D01*
X108232506Y-76865211D02*
X108422982Y-76865211D01*
X108422982Y-76865211D02*
X108518220Y-76817592D01*
X108518220Y-76817592D02*
X108565839Y-76722353D01*
X108565839Y-76722353D02*
X108565839Y-76341401D01*
X108565839Y-76341401D02*
X108518220Y-76246163D01*
X108518220Y-76246163D02*
X108422982Y-76198544D01*
X108422982Y-76198544D02*
X108232506Y-76198544D01*
X108232506Y-76198544D02*
X108137268Y-76246163D01*
X108137268Y-76246163D02*
X108089649Y-76341401D01*
X108089649Y-76341401D02*
X108089649Y-76436639D01*
X108089649Y-76436639D02*
X108565839Y-76531877D01*
X107661077Y-76865211D02*
X107661077Y-75865211D01*
X107661077Y-76246163D02*
X107565839Y-76198544D01*
X107565839Y-76198544D02*
X107375363Y-76198544D01*
X107375363Y-76198544D02*
X107280125Y-76246163D01*
X107280125Y-76246163D02*
X107232506Y-76293782D01*
X107232506Y-76293782D02*
X107184887Y-76389020D01*
X107184887Y-76389020D02*
X107184887Y-76674734D01*
X107184887Y-76674734D02*
X107232506Y-76769972D01*
X107232506Y-76769972D02*
X107280125Y-76817592D01*
X107280125Y-76817592D02*
X107375363Y-76865211D01*
X107375363Y-76865211D02*
X107565839Y-76865211D01*
X107565839Y-76865211D02*
X107661077Y-76817592D01*
X106327744Y-76198544D02*
X106327744Y-76865211D01*
X106756315Y-76198544D02*
X106756315Y-76722353D01*
X106756315Y-76722353D02*
X106708696Y-76817592D01*
X106708696Y-76817592D02*
X106613458Y-76865211D01*
X106613458Y-76865211D02*
X106470601Y-76865211D01*
X106470601Y-76865211D02*
X106375363Y-76817592D01*
X106375363Y-76817592D02*
X106327744Y-76769972D01*
X105422982Y-76198544D02*
X105422982Y-77008068D01*
X105422982Y-77008068D02*
X105470601Y-77103306D01*
X105470601Y-77103306D02*
X105518220Y-77150925D01*
X105518220Y-77150925D02*
X105613458Y-77198544D01*
X105613458Y-77198544D02*
X105756315Y-77198544D01*
X105756315Y-77198544D02*
X105851553Y-77150925D01*
X105422982Y-76817592D02*
X105518220Y-76865211D01*
X105518220Y-76865211D02*
X105708696Y-76865211D01*
X105708696Y-76865211D02*
X105803934Y-76817592D01*
X105803934Y-76817592D02*
X105851553Y-76769972D01*
X105851553Y-76769972D02*
X105899172Y-76674734D01*
X105899172Y-76674734D02*
X105899172Y-76389020D01*
X105899172Y-76389020D02*
X105851553Y-76293782D01*
X105851553Y-76293782D02*
X105803934Y-76246163D01*
X105803934Y-76246163D02*
X105708696Y-76198544D01*
X105708696Y-76198544D02*
X105518220Y-76198544D01*
X105518220Y-76198544D02*
X105422982Y-76246163D01*
X104232505Y-76579496D02*
X103756315Y-76579496D01*
X104327743Y-76865211D02*
X103994410Y-75865211D01*
X103994410Y-75865211D02*
X103661077Y-76865211D01*
X102899172Y-76865211D02*
X102899172Y-75865211D01*
X102899172Y-76817592D02*
X102994410Y-76865211D01*
X102994410Y-76865211D02*
X103184886Y-76865211D01*
X103184886Y-76865211D02*
X103280124Y-76817592D01*
X103280124Y-76817592D02*
X103327743Y-76769972D01*
X103327743Y-76769972D02*
X103375362Y-76674734D01*
X103375362Y-76674734D02*
X103375362Y-76389020D01*
X103375362Y-76389020D02*
X103327743Y-76293782D01*
X103327743Y-76293782D02*
X103280124Y-76246163D01*
X103280124Y-76246163D02*
X103184886Y-76198544D01*
X103184886Y-76198544D02*
X102994410Y-76198544D01*
X102994410Y-76198544D02*
X102899172Y-76246163D01*
X101994410Y-76865211D02*
X101994410Y-76341401D01*
X101994410Y-76341401D02*
X102042029Y-76246163D01*
X102042029Y-76246163D02*
X102137267Y-76198544D01*
X102137267Y-76198544D02*
X102327743Y-76198544D01*
X102327743Y-76198544D02*
X102422981Y-76246163D01*
X101994410Y-76817592D02*
X102089648Y-76865211D01*
X102089648Y-76865211D02*
X102327743Y-76865211D01*
X102327743Y-76865211D02*
X102422981Y-76817592D01*
X102422981Y-76817592D02*
X102470600Y-76722353D01*
X102470600Y-76722353D02*
X102470600Y-76627115D01*
X102470600Y-76627115D02*
X102422981Y-76531877D01*
X102422981Y-76531877D02*
X102327743Y-76484258D01*
X102327743Y-76484258D02*
X102089648Y-76484258D01*
X102089648Y-76484258D02*
X101994410Y-76436639D01*
X101518219Y-76198544D02*
X101518219Y-77198544D01*
X101518219Y-76246163D02*
X101422981Y-76198544D01*
X101422981Y-76198544D02*
X101232505Y-76198544D01*
X101232505Y-76198544D02*
X101137267Y-76246163D01*
X101137267Y-76246163D02*
X101089648Y-76293782D01*
X101089648Y-76293782D02*
X101042029Y-76389020D01*
X101042029Y-76389020D02*
X101042029Y-76674734D01*
X101042029Y-76674734D02*
X101089648Y-76769972D01*
X101089648Y-76769972D02*
X101137267Y-76817592D01*
X101137267Y-76817592D02*
X101232505Y-76865211D01*
X101232505Y-76865211D02*
X101422981Y-76865211D01*
X101422981Y-76865211D02*
X101518219Y-76817592D01*
X100756314Y-76198544D02*
X100375362Y-76198544D01*
X100613457Y-75865211D02*
X100613457Y-76722353D01*
X100613457Y-76722353D02*
X100565838Y-76817592D01*
X100565838Y-76817592D02*
X100470600Y-76865211D01*
X100470600Y-76865211D02*
X100375362Y-76865211D01*
X99661076Y-76817592D02*
X99756314Y-76865211D01*
X99756314Y-76865211D02*
X99946790Y-76865211D01*
X99946790Y-76865211D02*
X100042028Y-76817592D01*
X100042028Y-76817592D02*
X100089647Y-76722353D01*
X100089647Y-76722353D02*
X100089647Y-76341401D01*
X100089647Y-76341401D02*
X100042028Y-76246163D01*
X100042028Y-76246163D02*
X99946790Y-76198544D01*
X99946790Y-76198544D02*
X99756314Y-76198544D01*
X99756314Y-76198544D02*
X99661076Y-76246163D01*
X99661076Y-76246163D02*
X99613457Y-76341401D01*
X99613457Y-76341401D02*
X99613457Y-76436639D01*
X99613457Y-76436639D02*
X100089647Y-76531877D01*
X99184885Y-76865211D02*
X99184885Y-76198544D01*
X99184885Y-76389020D02*
X99137266Y-76293782D01*
X99137266Y-76293782D02*
X99089647Y-76246163D01*
X99089647Y-76246163D02*
X98994409Y-76198544D01*
X98994409Y-76198544D02*
X98899171Y-76198544D01*
X109184887Y-77951345D02*
X109042030Y-77998964D01*
X109042030Y-77998964D02*
X108994411Y-78046583D01*
X108994411Y-78046583D02*
X108946792Y-78141821D01*
X108946792Y-78141821D02*
X108946792Y-78284678D01*
X108946792Y-78284678D02*
X108994411Y-78379916D01*
X108994411Y-78379916D02*
X109042030Y-78427536D01*
X109042030Y-78427536D02*
X109137268Y-78475155D01*
X109137268Y-78475155D02*
X109518220Y-78475155D01*
X109518220Y-78475155D02*
X109518220Y-77475155D01*
X109518220Y-77475155D02*
X109184887Y-77475155D01*
X109184887Y-77475155D02*
X109089649Y-77522774D01*
X109089649Y-77522774D02*
X109042030Y-77570393D01*
X109042030Y-77570393D02*
X108994411Y-77665631D01*
X108994411Y-77665631D02*
X108994411Y-77760869D01*
X108994411Y-77760869D02*
X109042030Y-77856107D01*
X109042030Y-77856107D02*
X109089649Y-77903726D01*
X109089649Y-77903726D02*
X109184887Y-77951345D01*
X109184887Y-77951345D02*
X109518220Y-77951345D01*
X108565839Y-78189440D02*
X108089649Y-78189440D01*
X108661077Y-78475155D02*
X108327744Y-77475155D01*
X108327744Y-77475155D02*
X107994411Y-78475155D01*
X107661077Y-78475155D02*
X107661077Y-77475155D01*
X107327744Y-77475155D02*
X106756316Y-77475155D01*
X107042030Y-78475155D02*
X107042030Y-77475155D01*
X106422982Y-77951345D02*
X106089649Y-77951345D01*
X105946792Y-78475155D02*
X106422982Y-78475155D01*
X106422982Y-78475155D02*
X106422982Y-77475155D01*
X106422982Y-77475155D02*
X105946792Y-77475155D01*
X105565839Y-77570393D02*
X105518220Y-77522774D01*
X105518220Y-77522774D02*
X105422982Y-77475155D01*
X105422982Y-77475155D02*
X105184887Y-77475155D01*
X105184887Y-77475155D02*
X105089649Y-77522774D01*
X105089649Y-77522774D02*
X105042030Y-77570393D01*
X105042030Y-77570393D02*
X104994411Y-77665631D01*
X104994411Y-77665631D02*
X104994411Y-77760869D01*
X104994411Y-77760869D02*
X105042030Y-77903726D01*
X105042030Y-77903726D02*
X105613458Y-78475155D01*
X105613458Y-78475155D02*
X104994411Y-78475155D01*
X104375363Y-77475155D02*
X104280125Y-77475155D01*
X104280125Y-77475155D02*
X104184887Y-77522774D01*
X104184887Y-77522774D02*
X104137268Y-77570393D01*
X104137268Y-77570393D02*
X104089649Y-77665631D01*
X104089649Y-77665631D02*
X104042030Y-77856107D01*
X104042030Y-77856107D02*
X104042030Y-78094202D01*
X104042030Y-78094202D02*
X104089649Y-78284678D01*
X104089649Y-78284678D02*
X104137268Y-78379916D01*
X104137268Y-78379916D02*
X104184887Y-78427536D01*
X104184887Y-78427536D02*
X104280125Y-78475155D01*
X104280125Y-78475155D02*
X104375363Y-78475155D01*
X104375363Y-78475155D02*
X104470601Y-78427536D01*
X104470601Y-78427536D02*
X104518220Y-78379916D01*
X104518220Y-78379916D02*
X104565839Y-78284678D01*
X104565839Y-78284678D02*
X104613458Y-78094202D01*
X104613458Y-78094202D02*
X104613458Y-77856107D01*
X104613458Y-77856107D02*
X104565839Y-77665631D01*
X104565839Y-77665631D02*
X104518220Y-77570393D01*
X104518220Y-77570393D02*
X104470601Y-77522774D01*
X104470601Y-77522774D02*
X104375363Y-77475155D01*
X102946791Y-77808488D02*
X102708696Y-78475155D01*
X102708696Y-78475155D02*
X102470601Y-77808488D01*
X102137267Y-77570393D02*
X102089648Y-77522774D01*
X102089648Y-77522774D02*
X101994410Y-77475155D01*
X101994410Y-77475155D02*
X101756315Y-77475155D01*
X101756315Y-77475155D02*
X101661077Y-77522774D01*
X101661077Y-77522774D02*
X101613458Y-77570393D01*
X101613458Y-77570393D02*
X101565839Y-77665631D01*
X101565839Y-77665631D02*
X101565839Y-77760869D01*
X101565839Y-77760869D02*
X101613458Y-77903726D01*
X101613458Y-77903726D02*
X102184886Y-78475155D01*
X102184886Y-78475155D02*
X101565839Y-78475155D01*
X101137267Y-78379916D02*
X101089648Y-78427536D01*
X101089648Y-78427536D02*
X101137267Y-78475155D01*
X101137267Y-78475155D02*
X101184886Y-78427536D01*
X101184886Y-78427536D02*
X101137267Y-78379916D01*
X101137267Y-78379916D02*
X101137267Y-78475155D01*
X100470601Y-77475155D02*
X100375363Y-77475155D01*
X100375363Y-77475155D02*
X100280125Y-77522774D01*
X100280125Y-77522774D02*
X100232506Y-77570393D01*
X100232506Y-77570393D02*
X100184887Y-77665631D01*
X100184887Y-77665631D02*
X100137268Y-77856107D01*
X100137268Y-77856107D02*
X100137268Y-78094202D01*
X100137268Y-78094202D02*
X100184887Y-78284678D01*
X100184887Y-78284678D02*
X100232506Y-78379916D01*
X100232506Y-78379916D02*
X100280125Y-78427536D01*
X100280125Y-78427536D02*
X100375363Y-78475155D01*
X100375363Y-78475155D02*
X100470601Y-78475155D01*
X100470601Y-78475155D02*
X100565839Y-78427536D01*
X100565839Y-78427536D02*
X100613458Y-78379916D01*
X100613458Y-78379916D02*
X100661077Y-78284678D01*
X100661077Y-78284678D02*
X100708696Y-78094202D01*
X100708696Y-78094202D02*
X100708696Y-77856107D01*
X100708696Y-77856107D02*
X100661077Y-77665631D01*
X100661077Y-77665631D02*
X100613458Y-77570393D01*
X100613458Y-77570393D02*
X100565839Y-77522774D01*
X100565839Y-77522774D02*
X100470601Y-77475155D01*
X109184887Y-87611009D02*
X109042030Y-87658628D01*
X109042030Y-87658628D02*
X108994411Y-87706247D01*
X108994411Y-87706247D02*
X108946792Y-87801485D01*
X108946792Y-87801485D02*
X108946792Y-87944342D01*
X108946792Y-87944342D02*
X108994411Y-88039580D01*
X108994411Y-88039580D02*
X109042030Y-88087200D01*
X109042030Y-88087200D02*
X109137268Y-88134819D01*
X109137268Y-88134819D02*
X109518220Y-88134819D01*
X109518220Y-88134819D02*
X109518220Y-87134819D01*
X109518220Y-87134819D02*
X109184887Y-87134819D01*
X109184887Y-87134819D02*
X109089649Y-87182438D01*
X109089649Y-87182438D02*
X109042030Y-87230057D01*
X109042030Y-87230057D02*
X108994411Y-87325295D01*
X108994411Y-87325295D02*
X108994411Y-87420533D01*
X108994411Y-87420533D02*
X109042030Y-87515771D01*
X109042030Y-87515771D02*
X109089649Y-87563390D01*
X109089649Y-87563390D02*
X109184887Y-87611009D01*
X109184887Y-87611009D02*
X109518220Y-87611009D01*
X108375363Y-88134819D02*
X108470601Y-88087200D01*
X108470601Y-88087200D02*
X108518220Y-87991961D01*
X108518220Y-87991961D02*
X108518220Y-87134819D01*
X107565839Y-88134819D02*
X107565839Y-87611009D01*
X107565839Y-87611009D02*
X107613458Y-87515771D01*
X107613458Y-87515771D02*
X107708696Y-87468152D01*
X107708696Y-87468152D02*
X107899172Y-87468152D01*
X107899172Y-87468152D02*
X107994410Y-87515771D01*
X107565839Y-88087200D02*
X107661077Y-88134819D01*
X107661077Y-88134819D02*
X107899172Y-88134819D01*
X107899172Y-88134819D02*
X107994410Y-88087200D01*
X107994410Y-88087200D02*
X108042029Y-87991961D01*
X108042029Y-87991961D02*
X108042029Y-87896723D01*
X108042029Y-87896723D02*
X107994410Y-87801485D01*
X107994410Y-87801485D02*
X107899172Y-87753866D01*
X107899172Y-87753866D02*
X107661077Y-87753866D01*
X107661077Y-87753866D02*
X107565839Y-87706247D01*
X106661077Y-88134819D02*
X106661077Y-87611009D01*
X106661077Y-87611009D02*
X106708696Y-87515771D01*
X106708696Y-87515771D02*
X106803934Y-87468152D01*
X106803934Y-87468152D02*
X106994410Y-87468152D01*
X106994410Y-87468152D02*
X107089648Y-87515771D01*
X106661077Y-88087200D02*
X106756315Y-88134819D01*
X106756315Y-88134819D02*
X106994410Y-88134819D01*
X106994410Y-88134819D02*
X107089648Y-88087200D01*
X107089648Y-88087200D02*
X107137267Y-87991961D01*
X107137267Y-87991961D02*
X107137267Y-87896723D01*
X107137267Y-87896723D02*
X107089648Y-87801485D01*
X107089648Y-87801485D02*
X106994410Y-87753866D01*
X106994410Y-87753866D02*
X106756315Y-87753866D01*
X106756315Y-87753866D02*
X106661077Y-87706247D01*
X106327743Y-87468152D02*
X105946791Y-87468152D01*
X106184886Y-87134819D02*
X106184886Y-87991961D01*
X106184886Y-87991961D02*
X106137267Y-88087200D01*
X106137267Y-88087200D02*
X106042029Y-88134819D01*
X106042029Y-88134819D02*
X105946791Y-88134819D01*
X105661076Y-88087200D02*
X105518219Y-88134819D01*
X105518219Y-88134819D02*
X105280124Y-88134819D01*
X105280124Y-88134819D02*
X105184886Y-88087200D01*
X105184886Y-88087200D02*
X105137267Y-88039580D01*
X105137267Y-88039580D02*
X105089648Y-87944342D01*
X105089648Y-87944342D02*
X105089648Y-87849104D01*
X105089648Y-87849104D02*
X105137267Y-87753866D01*
X105137267Y-87753866D02*
X105184886Y-87706247D01*
X105184886Y-87706247D02*
X105280124Y-87658628D01*
X105280124Y-87658628D02*
X105470600Y-87611009D01*
X105470600Y-87611009D02*
X105565838Y-87563390D01*
X105565838Y-87563390D02*
X105613457Y-87515771D01*
X105613457Y-87515771D02*
X105661076Y-87420533D01*
X105661076Y-87420533D02*
X105661076Y-87325295D01*
X105661076Y-87325295D02*
X105613457Y-87230057D01*
X105613457Y-87230057D02*
X105565838Y-87182438D01*
X105565838Y-87182438D02*
X105470600Y-87134819D01*
X105470600Y-87134819D02*
X105232505Y-87134819D01*
X105232505Y-87134819D02*
X105089648Y-87182438D01*
X104232505Y-88087200D02*
X104327743Y-88134819D01*
X104327743Y-88134819D02*
X104518219Y-88134819D01*
X104518219Y-88134819D02*
X104613457Y-88087200D01*
X104613457Y-88087200D02*
X104661076Y-88039580D01*
X104661076Y-88039580D02*
X104708695Y-87944342D01*
X104708695Y-87944342D02*
X104708695Y-87658628D01*
X104708695Y-87658628D02*
X104661076Y-87563390D01*
X104661076Y-87563390D02*
X104613457Y-87515771D01*
X104613457Y-87515771D02*
X104518219Y-87468152D01*
X104518219Y-87468152D02*
X104327743Y-87468152D01*
X104327743Y-87468152D02*
X104232505Y-87515771D01*
X103803933Y-88134819D02*
X103803933Y-87134819D01*
X103375362Y-88134819D02*
X103375362Y-87611009D01*
X103375362Y-87611009D02*
X103422981Y-87515771D01*
X103422981Y-87515771D02*
X103518219Y-87468152D01*
X103518219Y-87468152D02*
X103661076Y-87468152D01*
X103661076Y-87468152D02*
X103756314Y-87515771D01*
X103756314Y-87515771D02*
X103803933Y-87563390D01*
X102470600Y-88134819D02*
X102470600Y-87611009D01*
X102470600Y-87611009D02*
X102518219Y-87515771D01*
X102518219Y-87515771D02*
X102613457Y-87468152D01*
X102613457Y-87468152D02*
X102803933Y-87468152D01*
X102803933Y-87468152D02*
X102899171Y-87515771D01*
X102470600Y-88087200D02*
X102565838Y-88134819D01*
X102565838Y-88134819D02*
X102803933Y-88134819D01*
X102803933Y-88134819D02*
X102899171Y-88087200D01*
X102899171Y-88087200D02*
X102946790Y-87991961D01*
X102946790Y-87991961D02*
X102946790Y-87896723D01*
X102946790Y-87896723D02*
X102899171Y-87801485D01*
X102899171Y-87801485D02*
X102803933Y-87753866D01*
X102803933Y-87753866D02*
X102565838Y-87753866D01*
X102565838Y-87753866D02*
X102470600Y-87706247D01*
X101565838Y-88134819D02*
X101565838Y-87611009D01*
X101565838Y-87611009D02*
X101613457Y-87515771D01*
X101613457Y-87515771D02*
X101708695Y-87468152D01*
X101708695Y-87468152D02*
X101899171Y-87468152D01*
X101899171Y-87468152D02*
X101994409Y-87515771D01*
X101565838Y-88087200D02*
X101661076Y-88134819D01*
X101661076Y-88134819D02*
X101899171Y-88134819D01*
X101899171Y-88134819D02*
X101994409Y-88087200D01*
X101994409Y-88087200D02*
X102042028Y-87991961D01*
X102042028Y-87991961D02*
X102042028Y-87896723D01*
X102042028Y-87896723D02*
X101994409Y-87801485D01*
X101994409Y-87801485D02*
X101899171Y-87753866D01*
X101899171Y-87753866D02*
X101661076Y-87753866D01*
X101661076Y-87753866D02*
X101565838Y-87706247D01*
X101089647Y-87468152D02*
X101089647Y-88468152D01*
X101089647Y-87515771D02*
X100994409Y-87468152D01*
X100994409Y-87468152D02*
X100803933Y-87468152D01*
X100803933Y-87468152D02*
X100708695Y-87515771D01*
X100708695Y-87515771D02*
X100661076Y-87563390D01*
X100661076Y-87563390D02*
X100613457Y-87658628D01*
X100613457Y-87658628D02*
X100613457Y-87944342D01*
X100613457Y-87944342D02*
X100661076Y-88039580D01*
X100661076Y-88039580D02*
X100708695Y-88087200D01*
X100708695Y-88087200D02*
X100803933Y-88134819D01*
X100803933Y-88134819D02*
X100994409Y-88134819D01*
X100994409Y-88134819D02*
X101089647Y-88087200D01*
D11*
X86430000Y-77410000D02*
X95060000Y-77410000D01*
X86430000Y-80010000D02*
X95060000Y-80010000D01*
X86430000Y-82550000D02*
X95060000Y-82550000D01*
X86430000Y-85090000D02*
X95060000Y-85090000D01*
X86430000Y-87630000D02*
X95060000Y-87630000D01*
X86430000Y-87748095D02*
X95060000Y-87748095D01*
X86430000Y-87866190D02*
X95060000Y-87866190D01*
X86430000Y-87984286D02*
X95060000Y-87984286D01*
X86430000Y-88102381D02*
X95060000Y-88102381D01*
X86430000Y-88220476D02*
X95060000Y-88220476D01*
X86430000Y-88338571D02*
X95060000Y-88338571D01*
X86430000Y-88456667D02*
X95060000Y-88456667D01*
X86430000Y-88574762D02*
X95060000Y-88574762D01*
X86430000Y-88692857D02*
X95060000Y-88692857D01*
X86430000Y-88810952D02*
X95060000Y-88810952D01*
X86430000Y-88929048D02*
X95060000Y-88929048D01*
X86430000Y-89047143D02*
X95060000Y-89047143D01*
X86430000Y-89165238D02*
X95060000Y-89165238D01*
X86430000Y-89283333D02*
X95060000Y-89283333D01*
X86430000Y-89401429D02*
X95060000Y-89401429D01*
X86430000Y-89519524D02*
X95060000Y-89519524D01*
X86430000Y-89637619D02*
X95060000Y-89637619D01*
X86430000Y-89755714D02*
X95060000Y-89755714D01*
X86430000Y-89873810D02*
X95060000Y-89873810D01*
X86430000Y-89991905D02*
X95060000Y-89991905D01*
X86430000Y-90110000D02*
X95060000Y-90110000D01*
X86430000Y-90230000D02*
X86430000Y-77410000D01*
X86430000Y-90230000D02*
X95060000Y-90230000D01*
X95060000Y-78380000D02*
X95470000Y-78380000D01*
X95060000Y-79100000D02*
X95470000Y-79100000D01*
X95060000Y-80920000D02*
X95470000Y-80920000D01*
X95060000Y-81640000D02*
X95470000Y-81640000D01*
X95060000Y-83460000D02*
X95470000Y-83460000D01*
X95060000Y-84180000D02*
X95470000Y-84180000D01*
X95060000Y-86000000D02*
X95470000Y-86000000D01*
X95060000Y-86720000D02*
X95470000Y-86720000D01*
X95060000Y-88540000D02*
X95470000Y-88540000D01*
X95060000Y-89260000D02*
X95470000Y-89260000D01*
X95060000Y-90230000D02*
X95060000Y-77410000D01*
X97570000Y-78380000D02*
X98010000Y-78380000D01*
X97570000Y-79100000D02*
X98010000Y-79100000D01*
X97570000Y-80920000D02*
X98010000Y-80920000D01*
X97570000Y-81640000D02*
X98010000Y-81640000D01*
X97570000Y-83460000D02*
X98010000Y-83460000D01*
X97570000Y-84180000D02*
X98010000Y-84180000D01*
X97570000Y-86000000D02*
X98010000Y-86000000D01*
X97570000Y-86720000D02*
X98010000Y-86720000D01*
X97570000Y-88540000D02*
X97950000Y-88540000D01*
X97570000Y-89260000D02*
X97950000Y-89260000D01*
X99060000Y-90230000D02*
X100170000Y-90230000D01*
X100170000Y-90230000D02*
X100170000Y-88900000D01*
M02*
