G04 #@! TF.GenerationSoftware,KiCad,Pcbnew,10.0.2*
G04 #@! TF.CreationDate,2026-05-16T15:12:04+02:00*
G04 #@! TF.ProjectId,wchlink,7763686c-696e-46b2-9e6b-696361645f70,rev?*
G04 #@! TF.SameCoordinates,Original*
G04 #@! TF.FileFunction,Legend,Bot*
G04 #@! TF.FilePolarity,Positive*
%FSLAX46Y46*%
G04 Gerber Fmt 4.6, Leading zero omitted, Abs format (unit mm)*
G04 Created by KiCad (PCBNEW 10.0.2) date 2026-05-16 15:12:04*
%MOMM*%
%LPD*%
G01*
G04 APERTURE LIST*
%ADD10C,0.150000*%
%ADD11C,0.120000*%
G04 APERTURE END LIST*
D10*
X109518220Y-76604819D02*
X109518220Y-75604819D01*
X109518220Y-75604819D02*
X109280125Y-75604819D01*
X109280125Y-75604819D02*
X109137268Y-75652438D01*
X109137268Y-75652438D02*
X109042030Y-75747676D01*
X109042030Y-75747676D02*
X108994411Y-75842914D01*
X108994411Y-75842914D02*
X108946792Y-76033390D01*
X108946792Y-76033390D02*
X108946792Y-76176247D01*
X108946792Y-76176247D02*
X108994411Y-76366723D01*
X108994411Y-76366723D02*
X109042030Y-76461961D01*
X109042030Y-76461961D02*
X109137268Y-76557200D01*
X109137268Y-76557200D02*
X109280125Y-76604819D01*
X109280125Y-76604819D02*
X109518220Y-76604819D01*
X108137268Y-76557200D02*
X108232506Y-76604819D01*
X108232506Y-76604819D02*
X108422982Y-76604819D01*
X108422982Y-76604819D02*
X108518220Y-76557200D01*
X108518220Y-76557200D02*
X108565839Y-76461961D01*
X108565839Y-76461961D02*
X108565839Y-76081009D01*
X108565839Y-76081009D02*
X108518220Y-75985771D01*
X108518220Y-75985771D02*
X108422982Y-75938152D01*
X108422982Y-75938152D02*
X108232506Y-75938152D01*
X108232506Y-75938152D02*
X108137268Y-75985771D01*
X108137268Y-75985771D02*
X108089649Y-76081009D01*
X108089649Y-76081009D02*
X108089649Y-76176247D01*
X108089649Y-76176247D02*
X108565839Y-76271485D01*
X107661077Y-76604819D02*
X107661077Y-75604819D01*
X107661077Y-75985771D02*
X107565839Y-75938152D01*
X107565839Y-75938152D02*
X107375363Y-75938152D01*
X107375363Y-75938152D02*
X107280125Y-75985771D01*
X107280125Y-75985771D02*
X107232506Y-76033390D01*
X107232506Y-76033390D02*
X107184887Y-76128628D01*
X107184887Y-76128628D02*
X107184887Y-76414342D01*
X107184887Y-76414342D02*
X107232506Y-76509580D01*
X107232506Y-76509580D02*
X107280125Y-76557200D01*
X107280125Y-76557200D02*
X107375363Y-76604819D01*
X107375363Y-76604819D02*
X107565839Y-76604819D01*
X107565839Y-76604819D02*
X107661077Y-76557200D01*
X106327744Y-75938152D02*
X106327744Y-76604819D01*
X106756315Y-75938152D02*
X106756315Y-76461961D01*
X106756315Y-76461961D02*
X106708696Y-76557200D01*
X106708696Y-76557200D02*
X106613458Y-76604819D01*
X106613458Y-76604819D02*
X106470601Y-76604819D01*
X106470601Y-76604819D02*
X106375363Y-76557200D01*
X106375363Y-76557200D02*
X106327744Y-76509580D01*
X105422982Y-75938152D02*
X105422982Y-76747676D01*
X105422982Y-76747676D02*
X105470601Y-76842914D01*
X105470601Y-76842914D02*
X105518220Y-76890533D01*
X105518220Y-76890533D02*
X105613458Y-76938152D01*
X105613458Y-76938152D02*
X105756315Y-76938152D01*
X105756315Y-76938152D02*
X105851553Y-76890533D01*
X105422982Y-76557200D02*
X105518220Y-76604819D01*
X105518220Y-76604819D02*
X105708696Y-76604819D01*
X105708696Y-76604819D02*
X105803934Y-76557200D01*
X105803934Y-76557200D02*
X105851553Y-76509580D01*
X105851553Y-76509580D02*
X105899172Y-76414342D01*
X105899172Y-76414342D02*
X105899172Y-76128628D01*
X105899172Y-76128628D02*
X105851553Y-76033390D01*
X105851553Y-76033390D02*
X105803934Y-75985771D01*
X105803934Y-75985771D02*
X105708696Y-75938152D01*
X105708696Y-75938152D02*
X105518220Y-75938152D01*
X105518220Y-75938152D02*
X105422982Y-75985771D01*
X104232505Y-76319104D02*
X103756315Y-76319104D01*
X104327743Y-76604819D02*
X103994410Y-75604819D01*
X103994410Y-75604819D02*
X103661077Y-76604819D01*
X102899172Y-76604819D02*
X102899172Y-75604819D01*
X102899172Y-76557200D02*
X102994410Y-76604819D01*
X102994410Y-76604819D02*
X103184886Y-76604819D01*
X103184886Y-76604819D02*
X103280124Y-76557200D01*
X103280124Y-76557200D02*
X103327743Y-76509580D01*
X103327743Y-76509580D02*
X103375362Y-76414342D01*
X103375362Y-76414342D02*
X103375362Y-76128628D01*
X103375362Y-76128628D02*
X103327743Y-76033390D01*
X103327743Y-76033390D02*
X103280124Y-75985771D01*
X103280124Y-75985771D02*
X103184886Y-75938152D01*
X103184886Y-75938152D02*
X102994410Y-75938152D01*
X102994410Y-75938152D02*
X102899172Y-75985771D01*
X101994410Y-76604819D02*
X101994410Y-76081009D01*
X101994410Y-76081009D02*
X102042029Y-75985771D01*
X102042029Y-75985771D02*
X102137267Y-75938152D01*
X102137267Y-75938152D02*
X102327743Y-75938152D01*
X102327743Y-75938152D02*
X102422981Y-75985771D01*
X101994410Y-76557200D02*
X102089648Y-76604819D01*
X102089648Y-76604819D02*
X102327743Y-76604819D01*
X102327743Y-76604819D02*
X102422981Y-76557200D01*
X102422981Y-76557200D02*
X102470600Y-76461961D01*
X102470600Y-76461961D02*
X102470600Y-76366723D01*
X102470600Y-76366723D02*
X102422981Y-76271485D01*
X102422981Y-76271485D02*
X102327743Y-76223866D01*
X102327743Y-76223866D02*
X102089648Y-76223866D01*
X102089648Y-76223866D02*
X101994410Y-76176247D01*
X101518219Y-75938152D02*
X101518219Y-76938152D01*
X101518219Y-75985771D02*
X101422981Y-75938152D01*
X101422981Y-75938152D02*
X101232505Y-75938152D01*
X101232505Y-75938152D02*
X101137267Y-75985771D01*
X101137267Y-75985771D02*
X101089648Y-76033390D01*
X101089648Y-76033390D02*
X101042029Y-76128628D01*
X101042029Y-76128628D02*
X101042029Y-76414342D01*
X101042029Y-76414342D02*
X101089648Y-76509580D01*
X101089648Y-76509580D02*
X101137267Y-76557200D01*
X101137267Y-76557200D02*
X101232505Y-76604819D01*
X101232505Y-76604819D02*
X101422981Y-76604819D01*
X101422981Y-76604819D02*
X101518219Y-76557200D01*
X100756314Y-75938152D02*
X100375362Y-75938152D01*
X100613457Y-75604819D02*
X100613457Y-76461961D01*
X100613457Y-76461961D02*
X100565838Y-76557200D01*
X100565838Y-76557200D02*
X100470600Y-76604819D01*
X100470600Y-76604819D02*
X100375362Y-76604819D01*
X99661076Y-76557200D02*
X99756314Y-76604819D01*
X99756314Y-76604819D02*
X99946790Y-76604819D01*
X99946790Y-76604819D02*
X100042028Y-76557200D01*
X100042028Y-76557200D02*
X100089647Y-76461961D01*
X100089647Y-76461961D02*
X100089647Y-76081009D01*
X100089647Y-76081009D02*
X100042028Y-75985771D01*
X100042028Y-75985771D02*
X99946790Y-75938152D01*
X99946790Y-75938152D02*
X99756314Y-75938152D01*
X99756314Y-75938152D02*
X99661076Y-75985771D01*
X99661076Y-75985771D02*
X99613457Y-76081009D01*
X99613457Y-76081009D02*
X99613457Y-76176247D01*
X99613457Y-76176247D02*
X100089647Y-76271485D01*
X99184885Y-76604819D02*
X99184885Y-75938152D01*
X99184885Y-76128628D02*
X99137266Y-76033390D01*
X99137266Y-76033390D02*
X99089647Y-75985771D01*
X99089647Y-75985771D02*
X98994409Y-75938152D01*
X98994409Y-75938152D02*
X98899171Y-75938152D01*
X109661077Y-77548096D02*
X109280125Y-77548096D01*
X109518220Y-78214763D02*
X109518220Y-77357620D01*
X109518220Y-77357620D02*
X109470601Y-77262382D01*
X109470601Y-77262382D02*
X109375363Y-77214763D01*
X109375363Y-77214763D02*
X109280125Y-77214763D01*
X108803934Y-78214763D02*
X108899172Y-78167144D01*
X108899172Y-78167144D02*
X108946791Y-78119524D01*
X108946791Y-78119524D02*
X108994410Y-78024286D01*
X108994410Y-78024286D02*
X108994410Y-77738572D01*
X108994410Y-77738572D02*
X108946791Y-77643334D01*
X108946791Y-77643334D02*
X108899172Y-77595715D01*
X108899172Y-77595715D02*
X108803934Y-77548096D01*
X108803934Y-77548096D02*
X108661077Y-77548096D01*
X108661077Y-77548096D02*
X108565839Y-77595715D01*
X108565839Y-77595715D02*
X108518220Y-77643334D01*
X108518220Y-77643334D02*
X108470601Y-77738572D01*
X108470601Y-77738572D02*
X108470601Y-78024286D01*
X108470601Y-78024286D02*
X108518220Y-78119524D01*
X108518220Y-78119524D02*
X108565839Y-78167144D01*
X108565839Y-78167144D02*
X108661077Y-78214763D01*
X108661077Y-78214763D02*
X108803934Y-78214763D01*
X108042029Y-78214763D02*
X108042029Y-77548096D01*
X108042029Y-77738572D02*
X107994410Y-77643334D01*
X107994410Y-77643334D02*
X107946791Y-77595715D01*
X107946791Y-77595715D02*
X107851553Y-77548096D01*
X107851553Y-77548096D02*
X107756315Y-77548096D01*
X106756314Y-77214763D02*
X106518219Y-78214763D01*
X106518219Y-78214763D02*
X106327743Y-77500477D01*
X106327743Y-77500477D02*
X106137267Y-78214763D01*
X106137267Y-78214763D02*
X105899172Y-77214763D01*
X104946791Y-78119524D02*
X104994410Y-78167144D01*
X104994410Y-78167144D02*
X105137267Y-78214763D01*
X105137267Y-78214763D02*
X105232505Y-78214763D01*
X105232505Y-78214763D02*
X105375362Y-78167144D01*
X105375362Y-78167144D02*
X105470600Y-78071905D01*
X105470600Y-78071905D02*
X105518219Y-77976667D01*
X105518219Y-77976667D02*
X105565838Y-77786191D01*
X105565838Y-77786191D02*
X105565838Y-77643334D01*
X105565838Y-77643334D02*
X105518219Y-77452858D01*
X105518219Y-77452858D02*
X105470600Y-77357620D01*
X105470600Y-77357620D02*
X105375362Y-77262382D01*
X105375362Y-77262382D02*
X105232505Y-77214763D01*
X105232505Y-77214763D02*
X105137267Y-77214763D01*
X105137267Y-77214763D02*
X104994410Y-77262382D01*
X104994410Y-77262382D02*
X104946791Y-77310001D01*
X104518219Y-78214763D02*
X104518219Y-77214763D01*
X104518219Y-77690953D02*
X103946791Y-77690953D01*
X103946791Y-78214763D02*
X103946791Y-77214763D01*
X103470600Y-77833810D02*
X102708696Y-77833810D01*
X101756315Y-78214763D02*
X102232505Y-78214763D01*
X102232505Y-78214763D02*
X102232505Y-77214763D01*
X101422981Y-78214763D02*
X101422981Y-77548096D01*
X101422981Y-77214763D02*
X101470600Y-77262382D01*
X101470600Y-77262382D02*
X101422981Y-77310001D01*
X101422981Y-77310001D02*
X101375362Y-77262382D01*
X101375362Y-77262382D02*
X101422981Y-77214763D01*
X101422981Y-77214763D02*
X101422981Y-77310001D01*
X100946791Y-77548096D02*
X100946791Y-78214763D01*
X100946791Y-77643334D02*
X100899172Y-77595715D01*
X100899172Y-77595715D02*
X100803934Y-77548096D01*
X100803934Y-77548096D02*
X100661077Y-77548096D01*
X100661077Y-77548096D02*
X100565839Y-77595715D01*
X100565839Y-77595715D02*
X100518220Y-77690953D01*
X100518220Y-77690953D02*
X100518220Y-78214763D01*
X100042029Y-78214763D02*
X100042029Y-77214763D01*
X99946791Y-77833810D02*
X99661077Y-78214763D01*
X99661077Y-77548096D02*
X100042029Y-77929048D01*
X99089648Y-77214763D02*
X99089648Y-77452858D01*
X99327743Y-77357620D02*
X99089648Y-77452858D01*
X99089648Y-77452858D02*
X98851553Y-77357620D01*
X99232505Y-77643334D02*
X99089648Y-77452858D01*
X99089648Y-77452858D02*
X98946791Y-77643334D01*
X109661077Y-86874427D02*
X109327744Y-87874427D01*
X109327744Y-87874427D02*
X108994411Y-86874427D01*
X108280125Y-87826808D02*
X108375363Y-87874427D01*
X108375363Y-87874427D02*
X108565839Y-87874427D01*
X108565839Y-87874427D02*
X108661077Y-87826808D01*
X108661077Y-87826808D02*
X108708696Y-87731569D01*
X108708696Y-87731569D02*
X108708696Y-87350617D01*
X108708696Y-87350617D02*
X108661077Y-87255379D01*
X108661077Y-87255379D02*
X108565839Y-87207760D01*
X108565839Y-87207760D02*
X108375363Y-87207760D01*
X108375363Y-87207760D02*
X108280125Y-87255379D01*
X108280125Y-87255379D02*
X108232506Y-87350617D01*
X108232506Y-87350617D02*
X108232506Y-87445855D01*
X108232506Y-87445855D02*
X108708696Y-87541093D01*
X107803934Y-87874427D02*
X107803934Y-87207760D01*
X107803934Y-87398236D02*
X107756315Y-87302998D01*
X107756315Y-87302998D02*
X107708696Y-87255379D01*
X107708696Y-87255379D02*
X107613458Y-87207760D01*
X107613458Y-87207760D02*
X107518220Y-87207760D01*
X107232505Y-87826808D02*
X107137267Y-87874427D01*
X107137267Y-87874427D02*
X106946791Y-87874427D01*
X106946791Y-87874427D02*
X106851553Y-87826808D01*
X106851553Y-87826808D02*
X106803934Y-87731569D01*
X106803934Y-87731569D02*
X106803934Y-87683950D01*
X106803934Y-87683950D02*
X106851553Y-87588712D01*
X106851553Y-87588712D02*
X106946791Y-87541093D01*
X106946791Y-87541093D02*
X107089648Y-87541093D01*
X107089648Y-87541093D02*
X107184886Y-87493474D01*
X107184886Y-87493474D02*
X107232505Y-87398236D01*
X107232505Y-87398236D02*
X107232505Y-87350617D01*
X107232505Y-87350617D02*
X107184886Y-87255379D01*
X107184886Y-87255379D02*
X107089648Y-87207760D01*
X107089648Y-87207760D02*
X106946791Y-87207760D01*
X106946791Y-87207760D02*
X106851553Y-87255379D01*
X106375362Y-87874427D02*
X106375362Y-87207760D01*
X106375362Y-86874427D02*
X106422981Y-86922046D01*
X106422981Y-86922046D02*
X106375362Y-86969665D01*
X106375362Y-86969665D02*
X106327743Y-86922046D01*
X106327743Y-86922046D02*
X106375362Y-86874427D01*
X106375362Y-86874427D02*
X106375362Y-86969665D01*
X105756315Y-87874427D02*
X105851553Y-87826808D01*
X105851553Y-87826808D02*
X105899172Y-87779188D01*
X105899172Y-87779188D02*
X105946791Y-87683950D01*
X105946791Y-87683950D02*
X105946791Y-87398236D01*
X105946791Y-87398236D02*
X105899172Y-87302998D01*
X105899172Y-87302998D02*
X105851553Y-87255379D01*
X105851553Y-87255379D02*
X105756315Y-87207760D01*
X105756315Y-87207760D02*
X105613458Y-87207760D01*
X105613458Y-87207760D02*
X105518220Y-87255379D01*
X105518220Y-87255379D02*
X105470601Y-87302998D01*
X105470601Y-87302998D02*
X105422982Y-87398236D01*
X105422982Y-87398236D02*
X105422982Y-87683950D01*
X105422982Y-87683950D02*
X105470601Y-87779188D01*
X105470601Y-87779188D02*
X105518220Y-87826808D01*
X105518220Y-87826808D02*
X105613458Y-87874427D01*
X105613458Y-87874427D02*
X105756315Y-87874427D01*
X104994410Y-87207760D02*
X104994410Y-87874427D01*
X104994410Y-87302998D02*
X104946791Y-87255379D01*
X104946791Y-87255379D02*
X104851553Y-87207760D01*
X104851553Y-87207760D02*
X104708696Y-87207760D01*
X104708696Y-87207760D02*
X104613458Y-87255379D01*
X104613458Y-87255379D02*
X104565839Y-87350617D01*
X104565839Y-87350617D02*
X104565839Y-87874427D01*
X103375362Y-86969665D02*
X103327743Y-86922046D01*
X103327743Y-86922046D02*
X103232505Y-86874427D01*
X103232505Y-86874427D02*
X102994410Y-86874427D01*
X102994410Y-86874427D02*
X102899172Y-86922046D01*
X102899172Y-86922046D02*
X102851553Y-86969665D01*
X102851553Y-86969665D02*
X102803934Y-87064903D01*
X102803934Y-87064903D02*
X102803934Y-87160141D01*
X102803934Y-87160141D02*
X102851553Y-87302998D01*
X102851553Y-87302998D02*
X103422981Y-87874427D01*
X103422981Y-87874427D02*
X102803934Y-87874427D01*
X102375362Y-87779188D02*
X102327743Y-87826808D01*
X102327743Y-87826808D02*
X102375362Y-87874427D01*
X102375362Y-87874427D02*
X102422981Y-87826808D01*
X102422981Y-87826808D02*
X102375362Y-87779188D01*
X102375362Y-87779188D02*
X102375362Y-87874427D01*
X101708696Y-86874427D02*
X101613458Y-86874427D01*
X101613458Y-86874427D02*
X101518220Y-86922046D01*
X101518220Y-86922046D02*
X101470601Y-86969665D01*
X101470601Y-86969665D02*
X101422982Y-87064903D01*
X101422982Y-87064903D02*
X101375363Y-87255379D01*
X101375363Y-87255379D02*
X101375363Y-87493474D01*
X101375363Y-87493474D02*
X101422982Y-87683950D01*
X101422982Y-87683950D02*
X101470601Y-87779188D01*
X101470601Y-87779188D02*
X101518220Y-87826808D01*
X101518220Y-87826808D02*
X101613458Y-87874427D01*
X101613458Y-87874427D02*
X101708696Y-87874427D01*
X101708696Y-87874427D02*
X101803934Y-87826808D01*
X101803934Y-87826808D02*
X101851553Y-87779188D01*
X101851553Y-87779188D02*
X101899172Y-87683950D01*
X101899172Y-87683950D02*
X101946791Y-87493474D01*
X101946791Y-87493474D02*
X101946791Y-87255379D01*
X101946791Y-87255379D02*
X101899172Y-87064903D01*
X101899172Y-87064903D02*
X101851553Y-86969665D01*
X101851553Y-86969665D02*
X101803934Y-86922046D01*
X101803934Y-86922046D02*
X101708696Y-86874427D01*
X109184887Y-88960561D02*
X109042030Y-89008180D01*
X109042030Y-89008180D02*
X108994411Y-89055799D01*
X108994411Y-89055799D02*
X108946792Y-89151037D01*
X108946792Y-89151037D02*
X108946792Y-89293894D01*
X108946792Y-89293894D02*
X108994411Y-89389132D01*
X108994411Y-89389132D02*
X109042030Y-89436752D01*
X109042030Y-89436752D02*
X109137268Y-89484371D01*
X109137268Y-89484371D02*
X109518220Y-89484371D01*
X109518220Y-89484371D02*
X109518220Y-88484371D01*
X109518220Y-88484371D02*
X109184887Y-88484371D01*
X109184887Y-88484371D02*
X109089649Y-88531990D01*
X109089649Y-88531990D02*
X109042030Y-88579609D01*
X109042030Y-88579609D02*
X108994411Y-88674847D01*
X108994411Y-88674847D02*
X108994411Y-88770085D01*
X108994411Y-88770085D02*
X109042030Y-88865323D01*
X109042030Y-88865323D02*
X109089649Y-88912942D01*
X109089649Y-88912942D02*
X109184887Y-88960561D01*
X109184887Y-88960561D02*
X109518220Y-88960561D01*
X108375363Y-89484371D02*
X108470601Y-89436752D01*
X108470601Y-89436752D02*
X108518220Y-89341513D01*
X108518220Y-89341513D02*
X108518220Y-88484371D01*
X107565839Y-89484371D02*
X107565839Y-88960561D01*
X107565839Y-88960561D02*
X107613458Y-88865323D01*
X107613458Y-88865323D02*
X107708696Y-88817704D01*
X107708696Y-88817704D02*
X107899172Y-88817704D01*
X107899172Y-88817704D02*
X107994410Y-88865323D01*
X107565839Y-89436752D02*
X107661077Y-89484371D01*
X107661077Y-89484371D02*
X107899172Y-89484371D01*
X107899172Y-89484371D02*
X107994410Y-89436752D01*
X107994410Y-89436752D02*
X108042029Y-89341513D01*
X108042029Y-89341513D02*
X108042029Y-89246275D01*
X108042029Y-89246275D02*
X107994410Y-89151037D01*
X107994410Y-89151037D02*
X107899172Y-89103418D01*
X107899172Y-89103418D02*
X107661077Y-89103418D01*
X107661077Y-89103418D02*
X107565839Y-89055799D01*
X106661077Y-89484371D02*
X106661077Y-88960561D01*
X106661077Y-88960561D02*
X106708696Y-88865323D01*
X106708696Y-88865323D02*
X106803934Y-88817704D01*
X106803934Y-88817704D02*
X106994410Y-88817704D01*
X106994410Y-88817704D02*
X107089648Y-88865323D01*
X106661077Y-89436752D02*
X106756315Y-89484371D01*
X106756315Y-89484371D02*
X106994410Y-89484371D01*
X106994410Y-89484371D02*
X107089648Y-89436752D01*
X107089648Y-89436752D02*
X107137267Y-89341513D01*
X107137267Y-89341513D02*
X107137267Y-89246275D01*
X107137267Y-89246275D02*
X107089648Y-89151037D01*
X107089648Y-89151037D02*
X106994410Y-89103418D01*
X106994410Y-89103418D02*
X106756315Y-89103418D01*
X106756315Y-89103418D02*
X106661077Y-89055799D01*
X106327743Y-88817704D02*
X105946791Y-88817704D01*
X106184886Y-88484371D02*
X106184886Y-89341513D01*
X106184886Y-89341513D02*
X106137267Y-89436752D01*
X106137267Y-89436752D02*
X106042029Y-89484371D01*
X106042029Y-89484371D02*
X105946791Y-89484371D01*
X105661076Y-89436752D02*
X105518219Y-89484371D01*
X105518219Y-89484371D02*
X105280124Y-89484371D01*
X105280124Y-89484371D02*
X105184886Y-89436752D01*
X105184886Y-89436752D02*
X105137267Y-89389132D01*
X105137267Y-89389132D02*
X105089648Y-89293894D01*
X105089648Y-89293894D02*
X105089648Y-89198656D01*
X105089648Y-89198656D02*
X105137267Y-89103418D01*
X105137267Y-89103418D02*
X105184886Y-89055799D01*
X105184886Y-89055799D02*
X105280124Y-89008180D01*
X105280124Y-89008180D02*
X105470600Y-88960561D01*
X105470600Y-88960561D02*
X105565838Y-88912942D01*
X105565838Y-88912942D02*
X105613457Y-88865323D01*
X105613457Y-88865323D02*
X105661076Y-88770085D01*
X105661076Y-88770085D02*
X105661076Y-88674847D01*
X105661076Y-88674847D02*
X105613457Y-88579609D01*
X105613457Y-88579609D02*
X105565838Y-88531990D01*
X105565838Y-88531990D02*
X105470600Y-88484371D01*
X105470600Y-88484371D02*
X105232505Y-88484371D01*
X105232505Y-88484371D02*
X105089648Y-88531990D01*
X104232505Y-89436752D02*
X104327743Y-89484371D01*
X104327743Y-89484371D02*
X104518219Y-89484371D01*
X104518219Y-89484371D02*
X104613457Y-89436752D01*
X104613457Y-89436752D02*
X104661076Y-89389132D01*
X104661076Y-89389132D02*
X104708695Y-89293894D01*
X104708695Y-89293894D02*
X104708695Y-89008180D01*
X104708695Y-89008180D02*
X104661076Y-88912942D01*
X104661076Y-88912942D02*
X104613457Y-88865323D01*
X104613457Y-88865323D02*
X104518219Y-88817704D01*
X104518219Y-88817704D02*
X104327743Y-88817704D01*
X104327743Y-88817704D02*
X104232505Y-88865323D01*
X103803933Y-89484371D02*
X103803933Y-88484371D01*
X103375362Y-89484371D02*
X103375362Y-88960561D01*
X103375362Y-88960561D02*
X103422981Y-88865323D01*
X103422981Y-88865323D02*
X103518219Y-88817704D01*
X103518219Y-88817704D02*
X103661076Y-88817704D01*
X103661076Y-88817704D02*
X103756314Y-88865323D01*
X103756314Y-88865323D02*
X103803933Y-88912942D01*
X102470600Y-89484371D02*
X102470600Y-88960561D01*
X102470600Y-88960561D02*
X102518219Y-88865323D01*
X102518219Y-88865323D02*
X102613457Y-88817704D01*
X102613457Y-88817704D02*
X102803933Y-88817704D01*
X102803933Y-88817704D02*
X102899171Y-88865323D01*
X102470600Y-89436752D02*
X102565838Y-89484371D01*
X102565838Y-89484371D02*
X102803933Y-89484371D01*
X102803933Y-89484371D02*
X102899171Y-89436752D01*
X102899171Y-89436752D02*
X102946790Y-89341513D01*
X102946790Y-89341513D02*
X102946790Y-89246275D01*
X102946790Y-89246275D02*
X102899171Y-89151037D01*
X102899171Y-89151037D02*
X102803933Y-89103418D01*
X102803933Y-89103418D02*
X102565838Y-89103418D01*
X102565838Y-89103418D02*
X102470600Y-89055799D01*
X101565838Y-89484371D02*
X101565838Y-88960561D01*
X101565838Y-88960561D02*
X101613457Y-88865323D01*
X101613457Y-88865323D02*
X101708695Y-88817704D01*
X101708695Y-88817704D02*
X101899171Y-88817704D01*
X101899171Y-88817704D02*
X101994409Y-88865323D01*
X101565838Y-89436752D02*
X101661076Y-89484371D01*
X101661076Y-89484371D02*
X101899171Y-89484371D01*
X101899171Y-89484371D02*
X101994409Y-89436752D01*
X101994409Y-89436752D02*
X102042028Y-89341513D01*
X102042028Y-89341513D02*
X102042028Y-89246275D01*
X102042028Y-89246275D02*
X101994409Y-89151037D01*
X101994409Y-89151037D02*
X101899171Y-89103418D01*
X101899171Y-89103418D02*
X101661076Y-89103418D01*
X101661076Y-89103418D02*
X101565838Y-89055799D01*
X101089647Y-88817704D02*
X101089647Y-89817704D01*
X101089647Y-88865323D02*
X100994409Y-88817704D01*
X100994409Y-88817704D02*
X100803933Y-88817704D01*
X100803933Y-88817704D02*
X100708695Y-88865323D01*
X100708695Y-88865323D02*
X100661076Y-88912942D01*
X100661076Y-88912942D02*
X100613457Y-89008180D01*
X100613457Y-89008180D02*
X100613457Y-89293894D01*
X100613457Y-89293894D02*
X100661076Y-89389132D01*
X100661076Y-89389132D02*
X100708695Y-89436752D01*
X100708695Y-89436752D02*
X100803933Y-89484371D01*
X100803933Y-89484371D02*
X100994409Y-89484371D01*
X100994409Y-89484371D02*
X101089647Y-89436752D01*
D11*
X86430000Y-77410000D02*
X95060000Y-77410000D01*
X86430000Y-80010000D02*
X95060000Y-80010000D01*
X86430000Y-82550000D02*
X95060000Y-82550000D01*
X86430000Y-85090000D02*
X95060000Y-85090000D01*
X86430000Y-87630000D02*
X95060000Y-87630000D01*
X86430000Y-87748095D02*
X95060000Y-87748095D01*
X86430000Y-87866190D02*
X95060000Y-87866190D01*
X86430000Y-87984286D02*
X95060000Y-87984286D01*
X86430000Y-88102381D02*
X95060000Y-88102381D01*
X86430000Y-88220476D02*
X95060000Y-88220476D01*
X86430000Y-88338571D02*
X95060000Y-88338571D01*
X86430000Y-88456667D02*
X95060000Y-88456667D01*
X86430000Y-88574762D02*
X95060000Y-88574762D01*
X86430000Y-88692857D02*
X95060000Y-88692857D01*
X86430000Y-88810952D02*
X95060000Y-88810952D01*
X86430000Y-88929048D02*
X95060000Y-88929048D01*
X86430000Y-89047143D02*
X95060000Y-89047143D01*
X86430000Y-89165238D02*
X95060000Y-89165238D01*
X86430000Y-89283333D02*
X95060000Y-89283333D01*
X86430000Y-89401429D02*
X95060000Y-89401429D01*
X86430000Y-89519524D02*
X95060000Y-89519524D01*
X86430000Y-89637619D02*
X95060000Y-89637619D01*
X86430000Y-89755714D02*
X95060000Y-89755714D01*
X86430000Y-89873810D02*
X95060000Y-89873810D01*
X86430000Y-89991905D02*
X95060000Y-89991905D01*
X86430000Y-90110000D02*
X95060000Y-90110000D01*
X86430000Y-90230000D02*
X86430000Y-77410000D01*
X86430000Y-90230000D02*
X95060000Y-90230000D01*
X95060000Y-78380000D02*
X95470000Y-78380000D01*
X95060000Y-79100000D02*
X95470000Y-79100000D01*
X95060000Y-80920000D02*
X95470000Y-80920000D01*
X95060000Y-81640000D02*
X95470000Y-81640000D01*
X95060000Y-83460000D02*
X95470000Y-83460000D01*
X95060000Y-84180000D02*
X95470000Y-84180000D01*
X95060000Y-86000000D02*
X95470000Y-86000000D01*
X95060000Y-86720000D02*
X95470000Y-86720000D01*
X95060000Y-88540000D02*
X95470000Y-88540000D01*
X95060000Y-89260000D02*
X95470000Y-89260000D01*
X95060000Y-90230000D02*
X95060000Y-77410000D01*
X97570000Y-78380000D02*
X98010000Y-78380000D01*
X97570000Y-79100000D02*
X98010000Y-79100000D01*
X97570000Y-80920000D02*
X98010000Y-80920000D01*
X97570000Y-81640000D02*
X98010000Y-81640000D01*
X97570000Y-83460000D02*
X98010000Y-83460000D01*
X97570000Y-84180000D02*
X98010000Y-84180000D01*
X97570000Y-86000000D02*
X98010000Y-86000000D01*
X97570000Y-86720000D02*
X98010000Y-86720000D01*
X97570000Y-88540000D02*
X97950000Y-88540000D01*
X97570000Y-89260000D02*
X97950000Y-89260000D01*
X99060000Y-90230000D02*
X100170000Y-90230000D01*
X100170000Y-90230000D02*
X100170000Y-88900000D01*
M02*
