G04 #@! TF.GenerationSoftware,KiCad,Pcbnew,10.0.2*
G04 #@! TF.CreationDate,2026-05-16T15:12:03+02:00*
G04 #@! TF.ProjectId,wchlink,7763686c-696e-46b2-9e6b-696361645f70,rev?*
G04 #@! TF.SameCoordinates,Original*
G04 #@! TF.FileFunction,Copper,L1,Top*
G04 #@! TF.FilePolarity,Positive*
%FSLAX46Y46*%
G04 Gerber Fmt 4.6, Leading zero omitted, Abs format (unit mm)*
G04 Created by KiCad (PCBNEW 10.0.2) date 2026-05-16 15:12:03*
%MOMM*%
%LPD*%
G01*
G04 APERTURE LIST*
G04 #@! TA.AperFunction,ComponentPad*
%ADD10R,1.000000X1.000000*%
G04 #@! TD*
G04 #@! TA.AperFunction,ComponentPad*
%ADD11C,1.000000*%
G04 #@! TD*
G04 #@! TA.AperFunction,ComponentPad*
%ADD12R,1.700000X1.700000*%
G04 #@! TD*
G04 #@! TA.AperFunction,ComponentPad*
%ADD13C,1.700000*%
G04 #@! TD*
G04 #@! TA.AperFunction,ViaPad*
%ADD14C,0.800000*%
G04 #@! TD*
G04 #@! TA.AperFunction,Conductor*
%ADD15C,0.250000*%
G04 #@! TD*
G04 APERTURE END LIST*
D10*
X106680000Y-84455000D03*
D11*
X105410000Y-84455000D03*
X106680000Y-83185000D03*
X105410000Y-83185000D03*
X106680000Y-81915000D03*
X105410000Y-81915000D03*
X106680000Y-80645000D03*
X105410000Y-80645000D03*
X106680000Y-79375000D03*
X105410000Y-79375000D03*
D12*
X97790000Y-92710000D03*
D13*
X100330000Y-92710000D03*
D12*
X98315000Y-74405000D03*
D13*
X100855000Y-74405000D03*
X103395000Y-74405000D03*
X105935000Y-74405000D03*
D12*
X107738163Y-92710000D03*
D13*
X105198163Y-92710000D03*
D12*
X99060000Y-88900000D03*
D13*
X96520000Y-88900000D03*
X99060000Y-86360000D03*
X96520000Y-86360000D03*
X99060000Y-83820000D03*
X96520000Y-83820000D03*
X99060000Y-81280000D03*
X96520000Y-81280000D03*
X99060000Y-78740000D03*
X96520000Y-78740000D03*
D14*
X108680000Y-80645000D03*
X106680000Y-86360000D03*
X103505000Y-85725000D03*
D15*
X107738163Y-86148163D02*
X107738163Y-92710000D01*
X106680000Y-84455000D02*
X106680000Y-85090000D01*
X106680000Y-85090000D02*
X107738163Y-86148163D01*
X103503604Y-84455000D02*
X105410000Y-84455000D01*
X99060000Y-81280000D02*
X100965000Y-81280000D01*
X101600000Y-81915000D02*
X101600000Y-82551396D01*
X101600000Y-82551396D02*
X103503604Y-84455000D01*
X100965000Y-81280000D02*
X101600000Y-81915000D01*
X106680000Y-83185000D02*
X107505000Y-82360000D01*
X106045000Y-85725000D02*
X106680000Y-86360000D01*
X103505000Y-85725000D02*
X106045000Y-85725000D01*
X106680000Y-80645000D02*
X106680000Y-79375000D01*
X108680000Y-80645000D02*
X106680000Y-80645000D01*
X107505000Y-82360000D02*
X107505000Y-81470000D01*
X107505000Y-81470000D02*
X106680000Y-80645000D01*
X100965000Y-78740000D02*
X102235000Y-80010000D01*
X99060000Y-78740000D02*
X100965000Y-78740000D01*
X102235000Y-82550000D02*
X102870000Y-83185000D01*
X102870000Y-83185000D02*
X105410000Y-83185000D01*
X102235000Y-80010000D02*
X102235000Y-82550000D01*
X105410000Y-79375000D02*
X106235000Y-78550000D01*
X109405000Y-93393163D02*
X108818163Y-93980000D01*
X108818163Y-93980000D02*
X99060000Y-93980000D01*
X107610305Y-78550000D02*
X109405000Y-80344695D01*
X99060000Y-93980000D02*
X97790000Y-92710000D01*
X109405000Y-80344695D02*
X109405000Y-93393163D01*
X106235000Y-78550000D02*
X107610305Y-78550000D01*
X105198163Y-92710000D02*
X99060000Y-86571837D01*
X99060000Y-86571837D02*
X99060000Y-86360000D01*
X96520000Y-88900000D02*
X100330000Y-92710000D01*
X97885000Y-77375000D02*
X100855000Y-74405000D01*
X97885000Y-79915000D02*
X97885000Y-77375000D01*
X96520000Y-81280000D02*
X97885000Y-79915000D01*
X101605000Y-72615000D02*
X103395000Y-74405000D01*
X97565000Y-72615000D02*
X101605000Y-72615000D01*
X96520000Y-78740000D02*
X96520000Y-73660000D01*
X96520000Y-73660000D02*
X97565000Y-72615000D01*
M02*
