G04 #@! TF.GenerationSoftware,KiCad,Pcbnew,10.0.2*
G04 #@! TF.CreationDate,2026-05-16T15:12:04+02:00*
G04 #@! TF.ProjectId,wchlink,7763686c-696e-46b2-9e6b-696361645f70,rev?*
G04 #@! TF.SameCoordinates,Original*
G04 #@! TF.FileFunction,Legend,Top*
G04 #@! TF.FilePolarity,Positive*
%FSLAX46Y46*%
G04 Gerber Fmt 4.6, Leading zero omitted, Abs format (unit mm)*
G04 Created by KiCad (PCBNEW 10.0.2) date 2026-05-16 15:12:04*
%MOMM*%
%LPD*%
G01*
G04 APERTURE LIST*
%ADD10C,0.150000*%
%ADD11C,0.120000*%
G04 APERTURE END LIST*
D10*
X104140000Y-76200000D02*
X107950000Y-76200000D01*
X107950000Y-87630000D01*
X104140000Y-87630000D01*
X104140000Y-76200000D01*
G36*
X104140000Y-76200000D02*
G01*
X107950000Y-76200000D01*
X107950000Y-87630000D01*
X104140000Y-87630000D01*
X104140000Y-76200000D01*
G37*
X107950000Y-80645000D02*
X109855000Y-80645000D01*
X109855000Y-83185000D01*
X107950000Y-83185000D01*
X107950000Y-80645000D01*
G36*
X107950000Y-80645000D02*
G01*
X109855000Y-80645000D01*
X109855000Y-83185000D01*
X107950000Y-83185000D01*
X107950000Y-80645000D01*
G37*
X101873207Y-90674819D02*
X101539874Y-90198628D01*
X101301779Y-90674819D02*
X101301779Y-89674819D01*
X101301779Y-89674819D02*
X101682731Y-89674819D01*
X101682731Y-89674819D02*
X101777969Y-89722438D01*
X101777969Y-89722438D02*
X101825588Y-89770057D01*
X101825588Y-89770057D02*
X101873207Y-89865295D01*
X101873207Y-89865295D02*
X101873207Y-90008152D01*
X101873207Y-90008152D02*
X101825588Y-90103390D01*
X101825588Y-90103390D02*
X101777969Y-90151009D01*
X101777969Y-90151009D02*
X101682731Y-90198628D01*
X101682731Y-90198628D02*
X101301779Y-90198628D01*
X102254160Y-90627200D02*
X102397017Y-90674819D01*
X102397017Y-90674819D02*
X102635112Y-90674819D01*
X102635112Y-90674819D02*
X102730350Y-90627200D01*
X102730350Y-90627200D02*
X102777969Y-90579580D01*
X102777969Y-90579580D02*
X102825588Y-90484342D01*
X102825588Y-90484342D02*
X102825588Y-90389104D01*
X102825588Y-90389104D02*
X102777969Y-90293866D01*
X102777969Y-90293866D02*
X102730350Y-90246247D01*
X102730350Y-90246247D02*
X102635112Y-90198628D01*
X102635112Y-90198628D02*
X102444636Y-90151009D01*
X102444636Y-90151009D02*
X102349398Y-90103390D01*
X102349398Y-90103390D02*
X102301779Y-90055771D01*
X102301779Y-90055771D02*
X102254160Y-89960533D01*
X102254160Y-89960533D02*
X102254160Y-89865295D01*
X102254160Y-89865295D02*
X102301779Y-89770057D01*
X102301779Y-89770057D02*
X102349398Y-89722438D01*
X102349398Y-89722438D02*
X102444636Y-89674819D01*
X102444636Y-89674819D02*
X102682731Y-89674819D01*
X102682731Y-89674819D02*
X102825588Y-89722438D01*
X103111303Y-89674819D02*
X103682731Y-89674819D01*
X103397017Y-90674819D02*
X103397017Y-89674819D01*
X104777970Y-90293866D02*
X105539875Y-90293866D01*
X106777970Y-90674819D02*
X106777970Y-89674819D01*
X106777970Y-89674819D02*
X107158922Y-89674819D01*
X107158922Y-89674819D02*
X107254160Y-89722438D01*
X107254160Y-89722438D02*
X107301779Y-89770057D01*
X107301779Y-89770057D02*
X107349398Y-89865295D01*
X107349398Y-89865295D02*
X107349398Y-90008152D01*
X107349398Y-90008152D02*
X107301779Y-90103390D01*
X107301779Y-90103390D02*
X107254160Y-90151009D01*
X107254160Y-90151009D02*
X107158922Y-90198628D01*
X107158922Y-90198628D02*
X106777970Y-90198628D01*
X107682732Y-89674819D02*
X107920827Y-90674819D01*
X107920827Y-90674819D02*
X108111303Y-89960533D01*
X108111303Y-89960533D02*
X108301779Y-90674819D01*
X108301779Y-90674819D02*
X108539875Y-89674819D01*
X109492255Y-90674819D02*
X109158922Y-90198628D01*
X108920827Y-90674819D02*
X108920827Y-89674819D01*
X108920827Y-89674819D02*
X109301779Y-89674819D01*
X109301779Y-89674819D02*
X109397017Y-89722438D01*
X109397017Y-89722438D02*
X109444636Y-89770057D01*
X109444636Y-89770057D02*
X109492255Y-89865295D01*
X109492255Y-89865295D02*
X109492255Y-90008152D01*
X109492255Y-90008152D02*
X109444636Y-90103390D01*
X109444636Y-90103390D02*
X109397017Y-90151009D01*
X109397017Y-90151009D02*
X109301779Y-90198628D01*
X109301779Y-90198628D02*
X108920827Y-90198628D01*
X108089819Y-75863220D02*
X108899342Y-75863220D01*
X108899342Y-75863220D02*
X108994580Y-75815601D01*
X108994580Y-75815601D02*
X109042200Y-75767982D01*
X109042200Y-75767982D02*
X109089819Y-75672744D01*
X109089819Y-75672744D02*
X109089819Y-75482268D01*
X109089819Y-75482268D02*
X109042200Y-75387030D01*
X109042200Y-75387030D02*
X108994580Y-75339411D01*
X108994580Y-75339411D02*
X108899342Y-75291792D01*
X108899342Y-75291792D02*
X108089819Y-75291792D01*
X108804104Y-74863220D02*
X108804104Y-74387030D01*
X109089819Y-74958458D02*
X108089819Y-74625125D01*
X108089819Y-74625125D02*
X109089819Y-74291792D01*
X109089819Y-73387030D02*
X108613628Y-73720363D01*
X109089819Y-73958458D02*
X108089819Y-73958458D01*
X108089819Y-73958458D02*
X108089819Y-73577506D01*
X108089819Y-73577506D02*
X108137438Y-73482268D01*
X108137438Y-73482268D02*
X108185057Y-73434649D01*
X108185057Y-73434649D02*
X108280295Y-73387030D01*
X108280295Y-73387030D02*
X108423152Y-73387030D01*
X108423152Y-73387030D02*
X108518390Y-73434649D01*
X108518390Y-73434649D02*
X108566009Y-73482268D01*
X108566009Y-73482268D02*
X108613628Y-73577506D01*
X108613628Y-73577506D02*
X108613628Y-73958458D01*
X108089819Y-73101315D02*
X108089819Y-72529887D01*
X109089819Y-72815601D02*
X108089819Y-72815601D01*
X102780180Y-79867619D02*
X101780180Y-80105714D01*
X101780180Y-80105714D02*
X102494466Y-80296190D01*
X102494466Y-80296190D02*
X101780180Y-80486666D01*
X101780180Y-80486666D02*
X102780180Y-80724762D01*
X101875419Y-81677142D02*
X101827800Y-81629523D01*
X101827800Y-81629523D02*
X101780180Y-81486666D01*
X101780180Y-81486666D02*
X101780180Y-81391428D01*
X101780180Y-81391428D02*
X101827800Y-81248571D01*
X101827800Y-81248571D02*
X101923038Y-81153333D01*
X101923038Y-81153333D02*
X102018276Y-81105714D01*
X102018276Y-81105714D02*
X102208752Y-81058095D01*
X102208752Y-81058095D02*
X102351609Y-81058095D01*
X102351609Y-81058095D02*
X102542085Y-81105714D01*
X102542085Y-81105714D02*
X102637323Y-81153333D01*
X102637323Y-81153333D02*
X102732561Y-81248571D01*
X102732561Y-81248571D02*
X102780180Y-81391428D01*
X102780180Y-81391428D02*
X102780180Y-81486666D01*
X102780180Y-81486666D02*
X102732561Y-81629523D01*
X102732561Y-81629523D02*
X102684942Y-81677142D01*
X101780180Y-82105714D02*
X102780180Y-82105714D01*
X102303990Y-82105714D02*
X102303990Y-82677142D01*
X101780180Y-82677142D02*
X102780180Y-82677142D01*
X102161133Y-83153333D02*
X102161133Y-83915238D01*
X101780180Y-84867618D02*
X101780180Y-84391428D01*
X101780180Y-84391428D02*
X102780180Y-84391428D01*
X101780180Y-85200952D02*
X102446847Y-85200952D01*
X102780180Y-85200952D02*
X102732561Y-85153333D01*
X102732561Y-85153333D02*
X102684942Y-85200952D01*
X102684942Y-85200952D02*
X102732561Y-85248571D01*
X102732561Y-85248571D02*
X102780180Y-85200952D01*
X102780180Y-85200952D02*
X102684942Y-85200952D01*
X102446847Y-85677142D02*
X101780180Y-85677142D01*
X102351609Y-85677142D02*
X102399228Y-85724761D01*
X102399228Y-85724761D02*
X102446847Y-85819999D01*
X102446847Y-85819999D02*
X102446847Y-85962856D01*
X102446847Y-85962856D02*
X102399228Y-86058094D01*
X102399228Y-86058094D02*
X102303990Y-86105713D01*
X102303990Y-86105713D02*
X101780180Y-86105713D01*
X101780180Y-86581904D02*
X102780180Y-86581904D01*
X102161133Y-86677142D02*
X101780180Y-86962856D01*
X102446847Y-86962856D02*
X102065895Y-86581904D01*
X102780180Y-87534285D02*
X102542085Y-87534285D01*
X102637323Y-87296190D02*
X102542085Y-87534285D01*
X102542085Y-87534285D02*
X102637323Y-87772380D01*
X102351609Y-87391428D02*
X102542085Y-87534285D01*
X102542085Y-87534285D02*
X102351609Y-87677142D01*
D11*
X104230000Y-85200000D02*
X104230000Y-78630000D01*
X105092077Y-78630000D02*
X104230000Y-78630000D01*
X105092077Y-85200000D02*
X104230000Y-85200000D01*
X106362077Y-78630000D02*
X105727923Y-78630000D01*
X107860000Y-78630000D02*
X106997923Y-78630000D01*
X107860000Y-83645000D02*
X107346708Y-83645000D01*
X107860000Y-83645000D02*
X107860000Y-78630000D01*
X107860000Y-84455000D02*
X107860000Y-85265000D01*
X107860000Y-85265000D02*
X106680000Y-85265000D01*
X96410000Y-94090000D02*
X96410000Y-92710000D01*
X97790000Y-94090000D02*
X96410000Y-94090000D01*
X99060000Y-91330000D02*
X101710000Y-91330000D01*
X99060000Y-94090000D02*
X99060000Y-91330000D01*
X99060000Y-94090000D02*
X101710000Y-94090000D01*
X101710000Y-94090000D02*
X101710000Y-91330000D01*
X96935000Y-75785000D02*
X96935000Y-74405000D01*
X98315000Y-75785000D02*
X96935000Y-75785000D01*
X99585000Y-73025000D02*
X107315000Y-73025000D01*
X99585000Y-75785000D02*
X99585000Y-73025000D01*
X99585000Y-75785000D02*
X107315000Y-75785000D01*
X107315000Y-75785000D02*
X107315000Y-73025000D01*
X103818163Y-91330000D02*
X103818163Y-94090000D01*
X106468163Y-91330000D02*
X103818163Y-91330000D01*
X106468163Y-91330000D02*
X106468163Y-94090000D01*
X106468163Y-94090000D02*
X103818163Y-94090000D01*
X107738163Y-91330000D02*
X109118163Y-91330000D01*
X109118163Y-91330000D02*
X109118163Y-92710000D01*
M02*
