G04 #@! TF.GenerationSoftware,KiCad,Pcbnew,10.0.2*
G04 #@! TF.CreationDate,2026-05-16T15:18:27+02:00*
G04 #@! TF.ProjectId,CKLink,434b4c69-6e6b-42e6-9b69-6361645f7063,rev?*
G04 #@! TF.SameCoordinates,Original*
G04 #@! TF.FileFunction,Soldermask,Bot*
G04 #@! TF.FilePolarity,Negative*
%FSLAX46Y46*%
G04 Gerber Fmt 4.6, Leading zero omitted, Abs format (unit mm)*
G04 Created by KiCad (PCBNEW 10.0.2) date 2026-05-16 15:18:27*
%MOMM*%
%LPD*%
G01*
G04 APERTURE LIST*
G04 APERTURE END LIST*
G36*
X100524517Y-90572882D02*
G01*
X100541062Y-90583938D01*
X100552118Y-90600483D01*
X100556000Y-90620000D01*
X100556000Y-92320000D01*
X100552118Y-92339517D01*
X100541062Y-92356062D01*
X100524517Y-92367118D01*
X100505000Y-92371000D01*
X98805000Y-92371000D01*
X98785483Y-92367118D01*
X98768938Y-92356062D01*
X98757882Y-92339517D01*
X98754000Y-92320000D01*
X98754000Y-90620000D01*
X98757882Y-90600483D01*
X98768938Y-90583938D01*
X98785483Y-90572882D01*
X98805000Y-90569000D01*
X100505000Y-90569000D01*
X100524517Y-90572882D01*
G37*
G36*
X97376546Y-90607797D02*
G01*
X97539728Y-90675389D01*
X97686588Y-90773518D01*
X97811482Y-90898412D01*
X97909611Y-91045272D01*
X97977203Y-91208454D01*
X98011661Y-91381687D01*
X98011661Y-91558313D01*
X97977203Y-91731546D01*
X97909611Y-91894728D01*
X97811482Y-92041588D01*
X97686588Y-92166482D01*
X97539728Y-92264611D01*
X97376546Y-92332203D01*
X97203313Y-92366661D01*
X97026687Y-92366661D01*
X96853454Y-92332203D01*
X96690272Y-92264611D01*
X96543412Y-92166482D01*
X96418518Y-92041588D01*
X96320389Y-91894728D01*
X96252797Y-91731546D01*
X96218339Y-91558313D01*
X96218339Y-91381687D01*
X96252797Y-91208454D01*
X96320389Y-91045272D01*
X96418518Y-90898412D01*
X96543412Y-90773518D01*
X96690272Y-90675389D01*
X96853454Y-90607797D01*
X97026687Y-90573339D01*
X97203313Y-90573339D01*
X97376546Y-90607797D01*
G37*
G36*
X97376546Y-88067797D02*
G01*
X97539728Y-88135389D01*
X97686588Y-88233518D01*
X97811482Y-88358412D01*
X97909611Y-88505272D01*
X97977203Y-88668454D01*
X98011661Y-88841687D01*
X98011661Y-89018313D01*
X97977203Y-89191546D01*
X97909611Y-89354728D01*
X97811482Y-89501588D01*
X97686588Y-89626482D01*
X97539728Y-89724611D01*
X97376546Y-89792203D01*
X97203313Y-89826661D01*
X97026687Y-89826661D01*
X96853454Y-89792203D01*
X96690272Y-89724611D01*
X96543412Y-89626482D01*
X96418518Y-89501588D01*
X96320389Y-89354728D01*
X96252797Y-89191546D01*
X96218339Y-89018313D01*
X96218339Y-88841687D01*
X96252797Y-88668454D01*
X96320389Y-88505272D01*
X96418518Y-88358412D01*
X96543412Y-88233518D01*
X96690272Y-88135389D01*
X96853454Y-88067797D01*
X97026687Y-88033339D01*
X97203313Y-88033339D01*
X97376546Y-88067797D01*
G37*
G36*
X99916546Y-88067797D02*
G01*
X100079728Y-88135389D01*
X100226588Y-88233518D01*
X100351482Y-88358412D01*
X100449611Y-88505272D01*
X100517203Y-88668454D01*
X100551661Y-88841687D01*
X100551661Y-89018313D01*
X100517203Y-89191546D01*
X100449611Y-89354728D01*
X100351482Y-89501588D01*
X100226588Y-89626482D01*
X100079728Y-89724611D01*
X99916546Y-89792203D01*
X99743313Y-89826661D01*
X99566687Y-89826661D01*
X99393454Y-89792203D01*
X99230272Y-89724611D01*
X99083412Y-89626482D01*
X98958518Y-89501588D01*
X98860389Y-89354728D01*
X98792797Y-89191546D01*
X98758339Y-89018313D01*
X98758339Y-88841687D01*
X98792797Y-88668454D01*
X98860389Y-88505272D01*
X98958518Y-88358412D01*
X99083412Y-88233518D01*
X99230272Y-88135389D01*
X99393454Y-88067797D01*
X99566687Y-88033339D01*
X99743313Y-88033339D01*
X99916546Y-88067797D01*
G37*
G36*
X97376546Y-85527797D02*
G01*
X97539728Y-85595389D01*
X97686588Y-85693518D01*
X97811482Y-85818412D01*
X97909611Y-85965272D01*
X97977203Y-86128454D01*
X98011661Y-86301687D01*
X98011661Y-86478313D01*
X97977203Y-86651546D01*
X97909611Y-86814728D01*
X97811482Y-86961588D01*
X97686588Y-87086482D01*
X97539728Y-87184611D01*
X97376546Y-87252203D01*
X97203313Y-87286661D01*
X97026687Y-87286661D01*
X96853454Y-87252203D01*
X96690272Y-87184611D01*
X96543412Y-87086482D01*
X96418518Y-86961588D01*
X96320389Y-86814728D01*
X96252797Y-86651546D01*
X96218339Y-86478313D01*
X96218339Y-86301687D01*
X96252797Y-86128454D01*
X96320389Y-85965272D01*
X96418518Y-85818412D01*
X96543412Y-85693518D01*
X96690272Y-85595389D01*
X96853454Y-85527797D01*
X97026687Y-85493339D01*
X97203313Y-85493339D01*
X97376546Y-85527797D01*
G37*
G36*
X99916546Y-85527797D02*
G01*
X100079728Y-85595389D01*
X100226588Y-85693518D01*
X100351482Y-85818412D01*
X100449611Y-85965272D01*
X100517203Y-86128454D01*
X100551661Y-86301687D01*
X100551661Y-86478313D01*
X100517203Y-86651546D01*
X100449611Y-86814728D01*
X100351482Y-86961588D01*
X100226588Y-87086482D01*
X100079728Y-87184611D01*
X99916546Y-87252203D01*
X99743313Y-87286661D01*
X99566687Y-87286661D01*
X99393454Y-87252203D01*
X99230272Y-87184611D01*
X99083412Y-87086482D01*
X98958518Y-86961588D01*
X98860389Y-86814728D01*
X98792797Y-86651546D01*
X98758339Y-86478313D01*
X98758339Y-86301687D01*
X98792797Y-86128454D01*
X98860389Y-85965272D01*
X98958518Y-85818412D01*
X99083412Y-85693518D01*
X99230272Y-85595389D01*
X99393454Y-85527797D01*
X99566687Y-85493339D01*
X99743313Y-85493339D01*
X99916546Y-85527797D01*
G37*
G36*
X105361854Y-80707633D02*
G01*
X105372490Y-80707633D01*
X105403136Y-80715844D01*
X105460340Y-80727223D01*
X105487339Y-80738406D01*
X105511429Y-80744861D01*
X105533024Y-80757329D01*
X105560023Y-80768512D01*
X105608510Y-80800911D01*
X105635998Y-80816781D01*
X105643523Y-80824306D01*
X105649735Y-80828457D01*
X105726031Y-80904753D01*
X105730181Y-80910964D01*
X105737708Y-80918491D01*
X105753581Y-80945985D01*
X105785976Y-80994466D01*
X105797158Y-81021461D01*
X105809628Y-81043060D01*
X105816082Y-81067147D01*
X105852049Y-81153978D01*
X106019091Y-81153978D01*
X106055058Y-81067143D01*
X106061512Y-81043060D01*
X106073979Y-81021466D01*
X106085163Y-80994466D01*
X106117564Y-80945974D01*
X106133432Y-80918491D01*
X106140955Y-80910967D01*
X106145108Y-80904753D01*
X106221404Y-80828457D01*
X106227618Y-80824304D01*
X106235142Y-80816781D01*
X106262621Y-80800915D01*
X106311116Y-80768512D01*
X106338118Y-80757327D01*
X106359711Y-80744861D01*
X106383797Y-80738407D01*
X106410799Y-80727223D01*
X106468004Y-80715844D01*
X106498650Y-80707633D01*
X106509286Y-80707633D01*
X106516621Y-80706174D01*
X106624519Y-80706174D01*
X106631854Y-80707633D01*
X106642490Y-80707633D01*
X106673136Y-80715844D01*
X106730340Y-80727223D01*
X106757339Y-80738406D01*
X106781429Y-80744861D01*
X106803024Y-80757329D01*
X106830023Y-80768512D01*
X106878510Y-80800911D01*
X106905998Y-80816781D01*
X106913523Y-80824306D01*
X106919735Y-80828457D01*
X106996031Y-80904753D01*
X107000181Y-80910964D01*
X107007708Y-80918491D01*
X107023579Y-80945981D01*
X107055976Y-80994465D01*
X107067157Y-81021461D01*
X107079628Y-81043060D01*
X107086083Y-81067153D01*
X107097265Y-81094148D01*
X107108642Y-81151347D01*
X107116856Y-81181999D01*
X107116856Y-81192635D01*
X107118315Y-81199970D01*
X107118315Y-81307867D01*
X107116856Y-81315201D01*
X107116856Y-81325839D01*
X107108642Y-81356493D01*
X107097265Y-81413689D01*
X107086084Y-81440682D01*
X107079628Y-81464778D01*
X107067156Y-81486379D01*
X107055976Y-81513372D01*
X107023584Y-81561848D01*
X107007708Y-81589347D01*
X107000179Y-81596875D01*
X106996031Y-81603084D01*
X106919735Y-81679380D01*
X106913526Y-81683528D01*
X106905998Y-81691057D01*
X106878494Y-81706936D01*
X106830023Y-81739324D01*
X106803034Y-81750503D01*
X106781429Y-81762977D01*
X106757333Y-81769433D01*
X106670510Y-81805397D01*
X106670510Y-81972441D01*
X106757336Y-82008405D01*
X106781429Y-82014861D01*
X106803029Y-82027331D01*
X106830023Y-82038513D01*
X106878505Y-82070908D01*
X106905998Y-82086781D01*
X106913523Y-82094306D01*
X106919735Y-82098457D01*
X106996031Y-82174753D01*
X107000181Y-82180964D01*
X107007708Y-82188491D01*
X107023579Y-82215981D01*
X107055976Y-82264465D01*
X107067157Y-82291461D01*
X107079628Y-82313060D01*
X107086083Y-82337153D01*
X107097265Y-82364148D01*
X107108642Y-82421347D01*
X107116856Y-82451999D01*
X107116856Y-82462635D01*
X107118315Y-82469970D01*
X107118315Y-82577867D01*
X107116856Y-82585201D01*
X107116856Y-82595839D01*
X107108642Y-82626493D01*
X107097265Y-82683689D01*
X107086084Y-82710682D01*
X107079628Y-82734778D01*
X107067156Y-82756379D01*
X107055976Y-82783372D01*
X107023584Y-82831848D01*
X107007708Y-82859347D01*
X107000179Y-82866875D01*
X106996031Y-82873084D01*
X106919735Y-82949380D01*
X106913526Y-82953528D01*
X106905998Y-82961057D01*
X106878494Y-82976936D01*
X106830023Y-83009324D01*
X106803034Y-83020503D01*
X106781429Y-83032977D01*
X106757333Y-83039433D01*
X106670510Y-83075397D01*
X106670510Y-83242441D01*
X106757336Y-83278405D01*
X106781429Y-83284861D01*
X106803029Y-83297331D01*
X106830023Y-83308513D01*
X106878505Y-83340908D01*
X106905998Y-83356781D01*
X106913523Y-83364306D01*
X106919735Y-83368457D01*
X106996031Y-83444753D01*
X107000181Y-83450964D01*
X107007708Y-83458491D01*
X107023579Y-83485981D01*
X107055976Y-83534465D01*
X107067157Y-83561461D01*
X107079628Y-83583060D01*
X107086083Y-83607153D01*
X107097265Y-83634148D01*
X107108642Y-83691347D01*
X107116856Y-83721999D01*
X107116856Y-83732635D01*
X107118315Y-83739970D01*
X107118315Y-83847867D01*
X107116856Y-83855201D01*
X107116856Y-83865839D01*
X107108642Y-83896493D01*
X107097265Y-83953689D01*
X107086084Y-83980682D01*
X107079628Y-84004778D01*
X107067156Y-84026379D01*
X107055976Y-84053372D01*
X107023584Y-84101848D01*
X107007708Y-84129347D01*
X107000179Y-84136875D01*
X106996031Y-84143084D01*
X106919735Y-84219380D01*
X106913526Y-84223528D01*
X106905998Y-84231057D01*
X106878494Y-84246936D01*
X106830023Y-84279324D01*
X106803034Y-84290503D01*
X106781429Y-84302977D01*
X106757333Y-84309433D01*
X106670510Y-84345397D01*
X106670510Y-84512441D01*
X106757336Y-84548405D01*
X106781429Y-84554861D01*
X106803029Y-84567331D01*
X106830023Y-84578513D01*
X106878505Y-84610908D01*
X106905998Y-84626781D01*
X106913523Y-84634306D01*
X106919735Y-84638457D01*
X106996031Y-84714753D01*
X107000181Y-84720964D01*
X107007708Y-84728491D01*
X107023579Y-84755981D01*
X107055976Y-84804465D01*
X107067157Y-84831461D01*
X107079628Y-84853060D01*
X107086083Y-84877153D01*
X107097265Y-84904148D01*
X107108642Y-84961347D01*
X107116856Y-84991999D01*
X107116856Y-85002635D01*
X107118315Y-85009970D01*
X107118315Y-85117867D01*
X107116856Y-85125201D01*
X107116856Y-85135839D01*
X107108642Y-85166493D01*
X107097265Y-85223689D01*
X107086084Y-85250682D01*
X107079628Y-85274778D01*
X107067156Y-85296379D01*
X107055976Y-85323372D01*
X107023584Y-85371848D01*
X107007708Y-85399347D01*
X107000179Y-85406875D01*
X106996031Y-85413084D01*
X106919735Y-85489380D01*
X106913526Y-85493528D01*
X106905998Y-85501057D01*
X106878496Y-85516935D01*
X106745963Y-85605492D01*
X106799785Y-85782919D01*
X107070570Y-85782919D01*
X107090087Y-85786801D01*
X107106632Y-85797857D01*
X107117688Y-85814402D01*
X107121570Y-85833919D01*
X107121570Y-86833919D01*
X107117688Y-86853436D01*
X107106632Y-86869981D01*
X107090087Y-86881037D01*
X107070570Y-86884919D01*
X106070570Y-86884919D01*
X106051053Y-86881037D01*
X106034508Y-86869981D01*
X106023452Y-86853436D01*
X106019570Y-86833919D01*
X106019570Y-86759380D01*
X106019569Y-86563133D01*
X105842142Y-86509312D01*
X105753584Y-86641848D01*
X105737708Y-86669347D01*
X105730181Y-86676873D01*
X105726033Y-86683082D01*
X105649735Y-86759380D01*
X105643526Y-86763528D01*
X105635998Y-86771057D01*
X105608499Y-86786933D01*
X105560023Y-86819325D01*
X105533030Y-86830505D01*
X105511429Y-86842977D01*
X105487333Y-86849433D01*
X105460340Y-86860614D01*
X105403143Y-86871991D01*
X105372490Y-86880205D01*
X105361854Y-86880205D01*
X105354519Y-86881664D01*
X105246621Y-86881664D01*
X105239286Y-86880205D01*
X105228650Y-86880205D01*
X105197998Y-86871991D01*
X105140799Y-86860614D01*
X105113804Y-86849432D01*
X105089711Y-86842977D01*
X105068112Y-86830506D01*
X105041116Y-86819325D01*
X104992632Y-86786928D01*
X104965142Y-86771057D01*
X104957615Y-86763530D01*
X104951404Y-86759380D01*
X104875108Y-86683084D01*
X104870957Y-86676872D01*
X104863432Y-86669347D01*
X104847562Y-86641859D01*
X104815163Y-86593372D01*
X104803980Y-86566373D01*
X104791512Y-86544778D01*
X104785057Y-86520688D01*
X104773874Y-86493689D01*
X104762495Y-86436487D01*
X104754284Y-86405839D01*
X104754284Y-86395201D01*
X104752825Y-86387867D01*
X104752825Y-86279970D01*
X104754284Y-86272635D01*
X104754284Y-86261999D01*
X104762495Y-86231353D01*
X104773874Y-86174148D01*
X104785058Y-86147146D01*
X104791512Y-86123060D01*
X104803978Y-86101467D01*
X104815163Y-86074465D01*
X104847566Y-86025970D01*
X104863432Y-85998491D01*
X104870955Y-85990967D01*
X104875108Y-85984753D01*
X104951404Y-85908457D01*
X104957618Y-85904304D01*
X104965142Y-85896781D01*
X104992625Y-85880913D01*
X105041117Y-85848512D01*
X105068117Y-85837328D01*
X105089711Y-85824861D01*
X105113794Y-85818407D01*
X105200629Y-85782440D01*
X105200629Y-85615398D01*
X105200627Y-85615397D01*
X105400510Y-85615397D01*
X105400510Y-85782441D01*
X105487336Y-85818405D01*
X105511429Y-85824861D01*
X105533029Y-85837331D01*
X105560023Y-85848513D01*
X105608505Y-85880908D01*
X105635998Y-85896781D01*
X105643523Y-85904306D01*
X105649735Y-85908457D01*
X105726031Y-85984753D01*
X105730181Y-85990964D01*
X105737708Y-85998491D01*
X105753581Y-86025985D01*
X105842143Y-86158525D01*
X106019570Y-86104702D01*
X106019570Y-85846229D01*
X106019570Y-85833919D01*
X106023452Y-85814402D01*
X106034508Y-85797857D01*
X106051053Y-85786801D01*
X106070570Y-85782919D01*
X106082883Y-85782919D01*
X106341355Y-85782918D01*
X106395176Y-85605491D01*
X106262639Y-85516932D01*
X106235142Y-85501057D01*
X106227615Y-85493530D01*
X106221404Y-85489380D01*
X106145108Y-85413084D01*
X106140957Y-85406872D01*
X106133432Y-85399347D01*
X106117559Y-85371854D01*
X106085164Y-85323372D01*
X106073982Y-85296378D01*
X106061512Y-85274778D01*
X106055056Y-85250685D01*
X106019092Y-85163859D01*
X105852048Y-85163859D01*
X105816084Y-85250682D01*
X105809628Y-85274778D01*
X105797154Y-85296383D01*
X105785975Y-85323372D01*
X105753587Y-85371843D01*
X105737708Y-85399347D01*
X105730179Y-85406875D01*
X105726031Y-85413084D01*
X105649735Y-85489380D01*
X105643526Y-85493528D01*
X105635998Y-85501057D01*
X105608494Y-85516936D01*
X105560023Y-85549324D01*
X105533034Y-85560503D01*
X105511429Y-85572977D01*
X105487333Y-85579433D01*
X105400510Y-85615397D01*
X105200627Y-85615397D01*
X105113798Y-85579431D01*
X105089711Y-85572977D01*
X105068112Y-85560507D01*
X105041117Y-85549325D01*
X104992636Y-85516930D01*
X104965142Y-85501057D01*
X104957615Y-85493530D01*
X104951404Y-85489380D01*
X104875108Y-85413084D01*
X104870957Y-85406872D01*
X104863432Y-85399347D01*
X104847562Y-85371859D01*
X104815163Y-85323372D01*
X104803980Y-85296373D01*
X104791512Y-85274778D01*
X104785057Y-85250688D01*
X104773874Y-85223689D01*
X104762495Y-85166487D01*
X104754284Y-85135839D01*
X104754284Y-85125201D01*
X104752825Y-85117867D01*
X104752825Y-85009970D01*
X104754284Y-85002635D01*
X104754284Y-84991999D01*
X104762495Y-84961353D01*
X104773874Y-84904148D01*
X104785058Y-84877146D01*
X104791512Y-84853060D01*
X104803978Y-84831467D01*
X104815163Y-84804465D01*
X104847566Y-84755970D01*
X104863432Y-84728491D01*
X104870955Y-84720967D01*
X104875108Y-84714753D01*
X104951404Y-84638457D01*
X104957618Y-84634304D01*
X104965142Y-84626781D01*
X104992625Y-84610913D01*
X105041117Y-84578512D01*
X105068117Y-84567328D01*
X105089711Y-84554861D01*
X105113794Y-84548407D01*
X105200629Y-84512440D01*
X105200629Y-84345398D01*
X105200627Y-84345397D01*
X105400510Y-84345397D01*
X105400510Y-84512441D01*
X105487336Y-84548405D01*
X105511429Y-84554861D01*
X105533029Y-84567331D01*
X105560023Y-84578513D01*
X105608505Y-84610908D01*
X105635998Y-84626781D01*
X105643523Y-84634306D01*
X105649735Y-84638457D01*
X105726031Y-84714753D01*
X105730181Y-84720964D01*
X105737708Y-84728491D01*
X105753581Y-84755985D01*
X105785976Y-84804466D01*
X105797158Y-84831461D01*
X105809628Y-84853060D01*
X105816082Y-84877147D01*
X105852049Y-84963978D01*
X106019091Y-84963978D01*
X106055058Y-84877143D01*
X106061512Y-84853060D01*
X106073979Y-84831466D01*
X106085163Y-84804466D01*
X106117564Y-84755974D01*
X106133432Y-84728491D01*
X106140955Y-84720967D01*
X106145108Y-84714753D01*
X106221404Y-84638457D01*
X106227618Y-84634304D01*
X106235142Y-84626781D01*
X106262625Y-84610913D01*
X106311117Y-84578512D01*
X106338117Y-84567328D01*
X106359711Y-84554861D01*
X106383794Y-84548407D01*
X106470629Y-84512440D01*
X106470629Y-84345398D01*
X106383798Y-84309431D01*
X106359711Y-84302977D01*
X106338112Y-84290507D01*
X106311117Y-84279325D01*
X106262636Y-84246930D01*
X106235142Y-84231057D01*
X106227615Y-84223530D01*
X106221404Y-84219380D01*
X106145108Y-84143084D01*
X106140957Y-84136872D01*
X106133432Y-84129347D01*
X106117559Y-84101854D01*
X106085164Y-84053372D01*
X106073982Y-84026378D01*
X106061512Y-84004778D01*
X106055056Y-83980685D01*
X106019092Y-83893859D01*
X105852048Y-83893859D01*
X105816084Y-83980682D01*
X105809628Y-84004778D01*
X105797154Y-84026383D01*
X105785975Y-84053372D01*
X105753587Y-84101843D01*
X105737708Y-84129347D01*
X105730179Y-84136875D01*
X105726031Y-84143084D01*
X105649735Y-84219380D01*
X105643526Y-84223528D01*
X105635998Y-84231057D01*
X105608494Y-84246936D01*
X105560023Y-84279324D01*
X105533034Y-84290503D01*
X105511429Y-84302977D01*
X105487333Y-84309433D01*
X105400510Y-84345397D01*
X105200627Y-84345397D01*
X105113798Y-84309431D01*
X105089711Y-84302977D01*
X105068112Y-84290507D01*
X105041117Y-84279325D01*
X104992636Y-84246930D01*
X104965142Y-84231057D01*
X104957615Y-84223530D01*
X104951404Y-84219380D01*
X104875108Y-84143084D01*
X104870957Y-84136872D01*
X104863432Y-84129347D01*
X104847562Y-84101859D01*
X104815163Y-84053372D01*
X104803980Y-84026373D01*
X104791512Y-84004778D01*
X104785057Y-83980688D01*
X104773874Y-83953689D01*
X104762495Y-83896487D01*
X104754284Y-83865839D01*
X104754284Y-83855201D01*
X104752825Y-83847867D01*
X104752825Y-83739970D01*
X104754284Y-83732635D01*
X104754284Y-83721999D01*
X104762495Y-83691353D01*
X104773874Y-83634148D01*
X104785058Y-83607146D01*
X104791512Y-83583060D01*
X104803978Y-83561467D01*
X104815163Y-83534465D01*
X104847566Y-83485970D01*
X104863432Y-83458491D01*
X104870955Y-83450967D01*
X104875108Y-83444753D01*
X104951404Y-83368457D01*
X104957618Y-83364304D01*
X104965142Y-83356781D01*
X104992625Y-83340913D01*
X105041117Y-83308512D01*
X105068117Y-83297328D01*
X105089711Y-83284861D01*
X105113794Y-83278407D01*
X105200629Y-83242440D01*
X105200629Y-83075398D01*
X105200627Y-83075397D01*
X105400510Y-83075397D01*
X105400510Y-83242441D01*
X105487336Y-83278405D01*
X105511429Y-83284861D01*
X105533029Y-83297331D01*
X105560023Y-83308513D01*
X105608505Y-83340908D01*
X105635998Y-83356781D01*
X105643523Y-83364306D01*
X105649735Y-83368457D01*
X105726031Y-83444753D01*
X105730181Y-83450964D01*
X105737708Y-83458491D01*
X105753581Y-83485985D01*
X105785976Y-83534466D01*
X105797158Y-83561461D01*
X105809628Y-83583060D01*
X105816082Y-83607147D01*
X105852049Y-83693978D01*
X106019091Y-83693978D01*
X106055058Y-83607143D01*
X106061512Y-83583060D01*
X106073979Y-83561466D01*
X106085163Y-83534466D01*
X106117564Y-83485974D01*
X106133432Y-83458491D01*
X106140955Y-83450967D01*
X106145108Y-83444753D01*
X106221404Y-83368457D01*
X106227618Y-83364304D01*
X106235142Y-83356781D01*
X106262625Y-83340913D01*
X106311117Y-83308512D01*
X106338117Y-83297328D01*
X106359711Y-83284861D01*
X106383794Y-83278407D01*
X106470629Y-83242440D01*
X106470629Y-83075398D01*
X106383798Y-83039431D01*
X106359711Y-83032977D01*
X106338112Y-83020507D01*
X106311117Y-83009325D01*
X106262636Y-82976930D01*
X106235142Y-82961057D01*
X106227615Y-82953530D01*
X106221404Y-82949380D01*
X106145108Y-82873084D01*
X106140957Y-82866872D01*
X106133432Y-82859347D01*
X106117559Y-82831854D01*
X106085164Y-82783372D01*
X106073982Y-82756378D01*
X106061512Y-82734778D01*
X106055056Y-82710685D01*
X106019092Y-82623859D01*
X105852048Y-82623859D01*
X105816084Y-82710682D01*
X105809628Y-82734778D01*
X105797154Y-82756383D01*
X105785975Y-82783372D01*
X105753587Y-82831843D01*
X105737708Y-82859347D01*
X105730179Y-82866875D01*
X105726031Y-82873084D01*
X105649735Y-82949380D01*
X105643526Y-82953528D01*
X105635998Y-82961057D01*
X105608494Y-82976936D01*
X105560023Y-83009324D01*
X105533034Y-83020503D01*
X105511429Y-83032977D01*
X105487333Y-83039433D01*
X105400510Y-83075397D01*
X105200627Y-83075397D01*
X105113798Y-83039431D01*
X105089711Y-83032977D01*
X105068112Y-83020507D01*
X105041117Y-83009325D01*
X104992636Y-82976930D01*
X104965142Y-82961057D01*
X104957615Y-82953530D01*
X104951404Y-82949380D01*
X104875108Y-82873084D01*
X104870957Y-82866872D01*
X104863432Y-82859347D01*
X104847562Y-82831859D01*
X104815163Y-82783372D01*
X104803980Y-82756373D01*
X104791512Y-82734778D01*
X104785057Y-82710688D01*
X104773874Y-82683689D01*
X104762495Y-82626487D01*
X104754284Y-82595839D01*
X104754284Y-82585201D01*
X104752825Y-82577867D01*
X104752825Y-82469970D01*
X104754284Y-82462635D01*
X104754284Y-82451999D01*
X104762495Y-82421353D01*
X104773874Y-82364148D01*
X104785058Y-82337146D01*
X104791512Y-82313060D01*
X104803978Y-82291467D01*
X104815163Y-82264465D01*
X104847566Y-82215970D01*
X104863432Y-82188491D01*
X104870955Y-82180967D01*
X104875108Y-82174753D01*
X104951404Y-82098457D01*
X104957618Y-82094304D01*
X104965142Y-82086781D01*
X104992625Y-82070913D01*
X105041117Y-82038512D01*
X105068117Y-82027328D01*
X105089711Y-82014861D01*
X105113794Y-82008407D01*
X105200629Y-81972440D01*
X105200629Y-81805398D01*
X105200627Y-81805397D01*
X105400510Y-81805397D01*
X105400510Y-81972441D01*
X105487336Y-82008405D01*
X105511429Y-82014861D01*
X105533029Y-82027331D01*
X105560023Y-82038513D01*
X105608505Y-82070908D01*
X105635998Y-82086781D01*
X105643523Y-82094306D01*
X105649735Y-82098457D01*
X105726031Y-82174753D01*
X105730181Y-82180964D01*
X105737708Y-82188491D01*
X105753581Y-82215985D01*
X105785976Y-82264466D01*
X105797158Y-82291461D01*
X105809628Y-82313060D01*
X105816082Y-82337147D01*
X105852049Y-82423978D01*
X106019091Y-82423978D01*
X106055058Y-82337143D01*
X106061512Y-82313060D01*
X106073979Y-82291466D01*
X106085163Y-82264466D01*
X106117564Y-82215974D01*
X106133432Y-82188491D01*
X106140955Y-82180967D01*
X106145108Y-82174753D01*
X106221404Y-82098457D01*
X106227618Y-82094304D01*
X106235142Y-82086781D01*
X106262625Y-82070913D01*
X106311117Y-82038512D01*
X106338117Y-82027328D01*
X106359711Y-82014861D01*
X106383794Y-82008407D01*
X106470629Y-81972440D01*
X106470629Y-81805398D01*
X106383798Y-81769431D01*
X106359711Y-81762977D01*
X106338112Y-81750507D01*
X106311117Y-81739325D01*
X106262636Y-81706930D01*
X106235142Y-81691057D01*
X106227615Y-81683530D01*
X106221404Y-81679380D01*
X106145108Y-81603084D01*
X106140957Y-81596872D01*
X106133432Y-81589347D01*
X106117559Y-81561854D01*
X106085164Y-81513372D01*
X106073982Y-81486378D01*
X106061512Y-81464778D01*
X106055056Y-81440685D01*
X106019092Y-81353859D01*
X105852048Y-81353859D01*
X105816084Y-81440682D01*
X105809628Y-81464778D01*
X105797154Y-81486383D01*
X105785975Y-81513372D01*
X105753587Y-81561843D01*
X105737708Y-81589347D01*
X105730179Y-81596875D01*
X105726031Y-81603084D01*
X105649735Y-81679380D01*
X105643526Y-81683528D01*
X105635998Y-81691057D01*
X105608494Y-81706936D01*
X105560023Y-81739324D01*
X105533034Y-81750503D01*
X105511429Y-81762977D01*
X105487333Y-81769433D01*
X105400510Y-81805397D01*
X105200627Y-81805397D01*
X105113798Y-81769431D01*
X105089711Y-81762977D01*
X105068112Y-81750507D01*
X105041117Y-81739325D01*
X104992636Y-81706930D01*
X104965142Y-81691057D01*
X104957615Y-81683530D01*
X104951404Y-81679380D01*
X104875108Y-81603084D01*
X104870957Y-81596872D01*
X104863432Y-81589347D01*
X104847562Y-81561859D01*
X104815163Y-81513372D01*
X104803980Y-81486373D01*
X104791512Y-81464778D01*
X104785057Y-81440688D01*
X104773874Y-81413689D01*
X104762495Y-81356487D01*
X104754284Y-81325839D01*
X104754284Y-81315201D01*
X104752825Y-81307867D01*
X104752825Y-81199970D01*
X104754284Y-81192635D01*
X104754284Y-81181999D01*
X104762495Y-81151353D01*
X104773874Y-81094148D01*
X104785058Y-81067146D01*
X104791512Y-81043060D01*
X104803978Y-81021467D01*
X104815163Y-80994465D01*
X104847566Y-80945970D01*
X104863432Y-80918491D01*
X104870955Y-80910967D01*
X104875108Y-80904753D01*
X104951404Y-80828457D01*
X104957618Y-80824304D01*
X104965142Y-80816781D01*
X104992621Y-80800915D01*
X105041116Y-80768512D01*
X105068118Y-80757327D01*
X105089711Y-80744861D01*
X105113797Y-80738407D01*
X105140799Y-80727223D01*
X105198004Y-80715844D01*
X105228650Y-80707633D01*
X105239286Y-80707633D01*
X105246621Y-80706174D01*
X105354519Y-80706174D01*
X105361854Y-80707633D01*
G37*
G36*
X97376546Y-82987797D02*
G01*
X97539728Y-83055389D01*
X97686588Y-83153518D01*
X97811482Y-83278412D01*
X97909611Y-83425272D01*
X97977203Y-83588454D01*
X98011661Y-83761687D01*
X98011661Y-83938313D01*
X97977203Y-84111546D01*
X97909611Y-84274728D01*
X97811482Y-84421588D01*
X97686588Y-84546482D01*
X97539728Y-84644611D01*
X97376546Y-84712203D01*
X97203313Y-84746661D01*
X97026687Y-84746661D01*
X96853454Y-84712203D01*
X96690272Y-84644611D01*
X96543412Y-84546482D01*
X96418518Y-84421588D01*
X96320389Y-84274728D01*
X96252797Y-84111546D01*
X96218339Y-83938313D01*
X96218339Y-83761687D01*
X96252797Y-83588454D01*
X96320389Y-83425272D01*
X96418518Y-83278412D01*
X96543412Y-83153518D01*
X96690272Y-83055389D01*
X96853454Y-82987797D01*
X97026687Y-82953339D01*
X97203313Y-82953339D01*
X97376546Y-82987797D01*
G37*
G36*
X99916546Y-82987797D02*
G01*
X100079728Y-83055389D01*
X100226588Y-83153518D01*
X100351482Y-83278412D01*
X100449611Y-83425272D01*
X100517203Y-83588454D01*
X100551661Y-83761687D01*
X100551661Y-83938313D01*
X100517203Y-84111546D01*
X100449611Y-84274728D01*
X100351482Y-84421588D01*
X100226588Y-84546482D01*
X100079728Y-84644611D01*
X99916546Y-84712203D01*
X99743313Y-84746661D01*
X99566687Y-84746661D01*
X99393454Y-84712203D01*
X99230272Y-84644611D01*
X99083412Y-84546482D01*
X98958518Y-84421588D01*
X98860389Y-84274728D01*
X98792797Y-84111546D01*
X98758339Y-83938313D01*
X98758339Y-83761687D01*
X98792797Y-83588454D01*
X98860389Y-83425272D01*
X98958518Y-83278412D01*
X99083412Y-83153518D01*
X99230272Y-83055389D01*
X99393454Y-82987797D01*
X99566687Y-82953339D01*
X99743313Y-82953339D01*
X99916546Y-82987797D01*
G37*
G36*
X97376546Y-80447797D02*
G01*
X97539728Y-80515389D01*
X97686588Y-80613518D01*
X97811482Y-80738412D01*
X97909611Y-80885272D01*
X97977203Y-81048454D01*
X98011661Y-81221687D01*
X98011661Y-81398313D01*
X97977203Y-81571546D01*
X97909611Y-81734728D01*
X97811482Y-81881588D01*
X97686588Y-82006482D01*
X97539728Y-82104611D01*
X97376546Y-82172203D01*
X97203313Y-82206661D01*
X97026687Y-82206661D01*
X96853454Y-82172203D01*
X96690272Y-82104611D01*
X96543412Y-82006482D01*
X96418518Y-81881588D01*
X96320389Y-81734728D01*
X96252797Y-81571546D01*
X96218339Y-81398313D01*
X96218339Y-81221687D01*
X96252797Y-81048454D01*
X96320389Y-80885272D01*
X96418518Y-80738412D01*
X96543412Y-80613518D01*
X96690272Y-80515389D01*
X96853454Y-80447797D01*
X97026687Y-80413339D01*
X97203313Y-80413339D01*
X97376546Y-80447797D01*
G37*
G36*
X99916546Y-80447797D02*
G01*
X100079728Y-80515389D01*
X100226588Y-80613518D01*
X100351482Y-80738412D01*
X100449611Y-80885272D01*
X100517203Y-81048454D01*
X100551661Y-81221687D01*
X100551661Y-81398313D01*
X100517203Y-81571546D01*
X100449611Y-81734728D01*
X100351482Y-81881588D01*
X100226588Y-82006482D01*
X100079728Y-82104611D01*
X99916546Y-82172203D01*
X99743313Y-82206661D01*
X99566687Y-82206661D01*
X99393454Y-82172203D01*
X99230272Y-82104611D01*
X99083412Y-82006482D01*
X98958518Y-81881588D01*
X98860389Y-81734728D01*
X98792797Y-81571546D01*
X98758339Y-81398313D01*
X98758339Y-81221687D01*
X98792797Y-81048454D01*
X98860389Y-80885272D01*
X98958518Y-80738412D01*
X99083412Y-80613518D01*
X99230272Y-80515389D01*
X99393454Y-80447797D01*
X99566687Y-80413339D01*
X99743313Y-80413339D01*
X99916546Y-80447797D01*
G37*
G36*
X97376546Y-77907797D02*
G01*
X97539728Y-77975389D01*
X97686588Y-78073518D01*
X97811482Y-78198412D01*
X97909611Y-78345272D01*
X97977203Y-78508454D01*
X98011661Y-78681687D01*
X98011661Y-78858313D01*
X97977203Y-79031546D01*
X97909611Y-79194728D01*
X97811482Y-79341588D01*
X97686588Y-79466482D01*
X97539728Y-79564611D01*
X97376546Y-79632203D01*
X97203313Y-79666661D01*
X97026687Y-79666661D01*
X96853454Y-79632203D01*
X96690272Y-79564611D01*
X96543412Y-79466482D01*
X96418518Y-79341588D01*
X96320389Y-79194728D01*
X96252797Y-79031546D01*
X96218339Y-78858313D01*
X96218339Y-78681687D01*
X96252797Y-78508454D01*
X96320389Y-78345272D01*
X96418518Y-78198412D01*
X96543412Y-78073518D01*
X96690272Y-77975389D01*
X96853454Y-77907797D01*
X97026687Y-77873339D01*
X97203313Y-77873339D01*
X97376546Y-77907797D01*
G37*
G36*
X99916546Y-77907797D02*
G01*
X100079728Y-77975389D01*
X100226588Y-78073518D01*
X100351482Y-78198412D01*
X100449611Y-78345272D01*
X100517203Y-78508454D01*
X100551661Y-78681687D01*
X100551661Y-78858313D01*
X100517203Y-79031546D01*
X100449611Y-79194728D01*
X100351482Y-79341588D01*
X100226588Y-79466482D01*
X100079728Y-79564611D01*
X99916546Y-79632203D01*
X99743313Y-79666661D01*
X99566687Y-79666661D01*
X99393454Y-79632203D01*
X99230272Y-79564611D01*
X99083412Y-79466482D01*
X98958518Y-79341588D01*
X98860389Y-79194728D01*
X98792797Y-79031546D01*
X98758339Y-78858313D01*
X98758339Y-78681687D01*
X98792797Y-78508454D01*
X98860389Y-78345272D01*
X98958518Y-78198412D01*
X99083412Y-78073518D01*
X99230272Y-77975389D01*
X99393454Y-77907797D01*
X99566687Y-77873339D01*
X99743313Y-77873339D01*
X99916546Y-77907797D01*
G37*
G36*
X97376546Y-75367797D02*
G01*
X97539728Y-75435389D01*
X97686588Y-75533518D01*
X97811482Y-75658412D01*
X97909611Y-75805272D01*
X97977203Y-75968454D01*
X98011661Y-76141687D01*
X98011661Y-76318313D01*
X97977203Y-76491546D01*
X97909611Y-76654728D01*
X97811482Y-76801588D01*
X97686588Y-76926482D01*
X97539728Y-77024611D01*
X97376546Y-77092203D01*
X97203313Y-77126661D01*
X97026687Y-77126661D01*
X96853454Y-77092203D01*
X96690272Y-77024611D01*
X96543412Y-76926482D01*
X96418518Y-76801588D01*
X96320389Y-76654728D01*
X96252797Y-76491546D01*
X96218339Y-76318313D01*
X96218339Y-76141687D01*
X96252797Y-75968454D01*
X96320389Y-75805272D01*
X96418518Y-75658412D01*
X96543412Y-75533518D01*
X96690272Y-75435389D01*
X96853454Y-75367797D01*
X97026687Y-75333339D01*
X97203313Y-75333339D01*
X97376546Y-75367797D01*
G37*
G36*
X99916546Y-75367797D02*
G01*
X100079728Y-75435389D01*
X100226588Y-75533518D01*
X100351482Y-75658412D01*
X100449611Y-75805272D01*
X100517203Y-75968454D01*
X100551661Y-76141687D01*
X100551661Y-76318313D01*
X100517203Y-76491546D01*
X100449611Y-76654728D01*
X100351482Y-76801588D01*
X100226588Y-76926482D01*
X100079728Y-77024611D01*
X99916546Y-77092203D01*
X99743313Y-77126661D01*
X99566687Y-77126661D01*
X99393454Y-77092203D01*
X99230272Y-77024611D01*
X99083412Y-76926482D01*
X98958518Y-76801588D01*
X98860389Y-76654728D01*
X98792797Y-76491546D01*
X98758339Y-76318313D01*
X98758339Y-76141687D01*
X98792797Y-75968454D01*
X98860389Y-75805272D01*
X98958518Y-75658412D01*
X99083412Y-75533518D01*
X99230272Y-75435389D01*
X99393454Y-75367797D01*
X99566687Y-75333339D01*
X99743313Y-75333339D01*
X99916546Y-75367797D01*
G37*
M02*
