M48
; DRILL file KiCad 10.0.2 date 2026-05-16T15:18:29
; FORMAT={-:-/ absolute / metric / decimal}
; #@! TF.CreationDate,2026-05-16T15:18:29+02:00
; #@! TF.GenerationSoftware,Kicad,Pcbnew,10.0.2
; #@! TF.FileFunction,Plated,1,2,PTH
FMAT,2
METRIC
; #@! TA.AperFunction,Plated,PTH,ViaDrill
T1C0.400
; #@! TA.AperFunction,Plated,PTH,ComponentDrill
T2C0.650
; #@! TA.AperFunction,Plated,PTH,ComponentDrill
T3C1.000
%
G90
G05
T1
X101.51Y-83.82
X102.235Y-82.55
X102.235Y-87.115
X103.505Y-82.55
X107.95Y-90.17
X109.855Y-76.2
X109.855Y-86.36
T2
X105.301Y-81.254
X105.301Y-82.524
X105.301Y-83.794
X105.301Y-85.064
X105.301Y-86.334
X106.571Y-81.254
X106.571Y-82.524
X106.571Y-83.794
X106.571Y-85.064
X106.571Y-86.334
T3
X97.115Y-76.23
X97.115Y-78.77
X97.115Y-81.31
X97.115Y-83.85
X97.115Y-86.39
X97.115Y-88.93
X97.115Y-91.47
X99.655Y-76.23
X99.655Y-78.77
X99.655Y-81.31
X99.655Y-83.85
X99.655Y-86.39
X99.655Y-88.93
X99.655Y-91.47
M30
