G04 #@! TF.GenerationSoftware,KiCad,Pcbnew,10.0.2*
G04 #@! TF.CreationDate,2026-05-16T15:18:25+02:00*
G04 #@! TF.ProjectId,CKLink,434b4c69-6e6b-42e6-9b69-6361645f7063,rev?*
G04 #@! TF.SameCoordinates,Original*
G04 #@! TF.FileFunction,Copper,L1,Top*
G04 #@! TF.FilePolarity,Positive*
%FSLAX46Y46*%
G04 Gerber Fmt 4.6, Leading zero omitted, Abs format (unit mm)*
G04 Created by KiCad (PCBNEW 10.0.2) date 2026-05-16 15:18:25*
%MOMM*%
%LPD*%
G01*
G04 APERTURE LIST*
G04 #@! TA.AperFunction,ComponentPad*
%ADD10R,1.000000X1.000000*%
G04 #@! TD*
G04 #@! TA.AperFunction,ComponentPad*
%ADD11C,1.000000*%
G04 #@! TD*
G04 #@! TA.AperFunction,ComponentPad*
%ADD12R,1.700000X1.700000*%
G04 #@! TD*
G04 #@! TA.AperFunction,ComponentPad*
%ADD13C,1.700000*%
G04 #@! TD*
G04 #@! TA.AperFunction,ViaPad*
%ADD14C,0.800000*%
G04 #@! TD*
G04 #@! TA.AperFunction,Conductor*
%ADD15C,0.250000*%
G04 #@! TD*
G04 APERTURE END LIST*
D10*
X106570570Y-86333919D03*
D11*
X105300570Y-86333919D03*
X106570570Y-85063919D03*
X105300570Y-85063919D03*
X106570570Y-83793919D03*
X105300570Y-83793919D03*
X106570570Y-82523919D03*
X105300570Y-82523919D03*
X106570570Y-81253919D03*
X105300570Y-81253919D03*
D12*
X99655000Y-91470000D03*
D13*
X97115000Y-91470000D03*
X99655000Y-88930000D03*
X97115000Y-88930000D03*
X99655000Y-86390000D03*
X97115000Y-86390000D03*
X99655000Y-83850000D03*
X97115000Y-83850000D03*
X99655000Y-81310000D03*
X97115000Y-81310000D03*
X99655000Y-78770000D03*
X97115000Y-78770000D03*
X99655000Y-76230000D03*
X97115000Y-76230000D03*
D14*
X102235000Y-87115000D03*
X102235000Y-82550000D03*
X107950000Y-90170000D03*
X101510000Y-83820000D03*
X103505000Y-82550000D03*
X109855000Y-86360000D03*
X109855000Y-76200000D03*
D15*
X102235000Y-82550000D02*
X102235000Y-87115000D01*
X107950000Y-90170000D02*
X107950000Y-85736243D01*
X107277676Y-85063919D02*
X106570570Y-85063919D01*
X107395570Y-83348919D02*
X106570570Y-82523919D01*
X106570570Y-85063919D02*
X107395570Y-84238919D01*
X107950000Y-85736243D02*
X107277676Y-85063919D01*
X106570570Y-81253919D02*
X106570570Y-82523919D01*
X107395570Y-84238919D02*
X107395570Y-83348919D01*
X97115000Y-86390000D02*
X97115000Y-91470000D01*
X101510000Y-83820000D02*
X101510000Y-88355000D01*
X101510000Y-88355000D02*
X100935000Y-88930000D01*
X100935000Y-88930000D02*
X99655000Y-88930000D01*
X103505000Y-87620000D02*
X99655000Y-91470000D01*
X103505000Y-82550000D02*
X103505000Y-87620000D01*
X109855000Y-86360000D02*
X109855000Y-76200000D01*
M02*
