G04 #@! TF.GenerationSoftware,KiCad,Pcbnew,(6.0.2)*
G04 #@! TF.CreationDate,2022-03-04T18:18:09+01:00*
G04 #@! TF.ProjectId,LINK,4c494e4b-2e6b-4696-9361-645f70636258,rev?*
G04 #@! TF.SameCoordinates,Original*
G04 #@! TF.FileFunction,Legend,Bot*
G04 #@! TF.FilePolarity,Positive*
%FSLAX46Y46*%
G04 Gerber Fmt 4.6, Leading zero omitted, Abs format (unit mm)*
G04 Created by KiCad (PCBNEW (6.0.2)) date 2022-03-04 18:18:09*
%MOMM*%
%LPD*%
G01*
G04 APERTURE LIST*
%ADD10C,0.300000*%
G04 APERTURE END LIST*
D10*
X166282142Y-93388571D02*
X166996428Y-93388571D01*
X166996428Y-91888571D01*
X165782142Y-93388571D02*
X165782142Y-91888571D01*
X165067857Y-93388571D02*
X165067857Y-91888571D01*
X164210714Y-93388571D01*
X164210714Y-91888571D01*
X163496428Y-93388571D02*
X163496428Y-91888571D01*
X162639285Y-93388571D02*
X163282142Y-92531428D01*
X162639285Y-91888571D02*
X163496428Y-92745714D01*
X160996428Y-92388571D02*
X160639285Y-93388571D01*
X160282142Y-92388571D01*
X159782142Y-92031428D02*
X159710714Y-91960000D01*
X159567857Y-91888571D01*
X159210714Y-91888571D01*
X159067857Y-91960000D01*
X158996428Y-92031428D01*
X158925000Y-92174285D01*
X158925000Y-92317142D01*
X158996428Y-92531428D01*
X159853571Y-93388571D01*
X158925000Y-93388571D01*
X158282142Y-93245714D02*
X158210714Y-93317142D01*
X158282142Y-93388571D01*
X158353571Y-93317142D01*
X158282142Y-93245714D01*
X158282142Y-93388571D01*
X157639285Y-92031428D02*
X157567857Y-91960000D01*
X157425000Y-91888571D01*
X157067857Y-91888571D01*
X156925000Y-91960000D01*
X156853571Y-92031428D01*
X156782142Y-92174285D01*
X156782142Y-92317142D01*
X156853571Y-92531428D01*
X157710714Y-93388571D01*
X156782142Y-93388571D01*
M02*
