G04 #@! TF.GenerationSoftware,KiCad,Pcbnew,(6.0.2)*
G04 #@! TF.CreationDate,2022-03-04T18:18:09+01:00*
G04 #@! TF.ProjectId,LINK,4c494e4b-2e6b-4696-9361-645f70636258,rev?*
G04 #@! TF.SameCoordinates,Original*
G04 #@! TF.FileFunction,Soldermask,Bot*
G04 #@! TF.FilePolarity,Negative*
%FSLAX46Y46*%
G04 Gerber Fmt 4.6, Leading zero omitted, Abs format (unit mm)*
G04 Created by KiCad (PCBNEW (6.0.2)) date 2022-03-04 18:18:09*
%MOMM*%
%LPD*%
G01*
G04 APERTURE LIST*
G04 Aperture macros list*
%AMRoundRect*
0 Rectangle with rounded corners*
0 $1 Rounding radius*
0 $2 $3 $4 $5 $6 $7 $8 $9 X,Y pos of 4 corners*
0 Add a 4 corners polygon primitive as box body*
4,1,4,$2,$3,$4,$5,$6,$7,$8,$9,$2,$3,0*
0 Add four circle primitives for the rounded corners*
1,1,$1+$1,$2,$3*
1,1,$1+$1,$4,$5*
1,1,$1+$1,$6,$7*
1,1,$1+$1,$8,$9*
0 Add four rect primitives between the rounded corners*
20,1,$1+$1,$2,$3,$4,$5,0*
20,1,$1+$1,$4,$5,$6,$7,0*
20,1,$1+$1,$6,$7,$8,$9,0*
20,1,$1+$1,$8,$9,$2,$3,0*%
G04 Aperture macros list end*
%ADD10RoundRect,0.051000X-0.850000X-0.850000X0.850000X-0.850000X0.850000X0.850000X-0.850000X0.850000X0*%
%ADD11O,1.802000X1.802000*%
%ADD12RoundRect,0.051000X0.850000X-0.850000X0.850000X0.850000X-0.850000X0.850000X-0.850000X-0.850000X0*%
%ADD13RoundRect,0.051000X0.500000X0.500000X-0.500000X0.500000X-0.500000X-0.500000X0.500000X-0.500000X0*%
%ADD14O,1.102000X1.102000*%
%ADD15C,2.300000*%
%ADD16C,1.402000*%
%ADD17RoundRect,0.051000X0.850000X0.850000X-0.850000X0.850000X-0.850000X-0.850000X0.850000X-0.850000X0*%
G04 APERTURE END LIST*
D10*
X127000000Y-68580000D03*
D11*
X124460000Y-68580000D03*
X127000000Y-71120000D03*
X124460000Y-71120000D03*
X127000000Y-73660000D03*
X124460000Y-73660000D03*
X127000000Y-76200000D03*
X124460000Y-76200000D03*
X127000000Y-78740000D03*
X124460000Y-78740000D03*
X127000000Y-81280000D03*
X124460000Y-81280000D03*
X127000000Y-83820000D03*
X124460000Y-83820000D03*
X127000000Y-86360000D03*
X124460000Y-86360000D03*
X127000000Y-88900000D03*
X124460000Y-88900000D03*
X127000000Y-91440000D03*
X124460000Y-91440000D03*
D12*
X144780000Y-66040000D03*
D11*
X147320000Y-66040000D03*
X149860000Y-66040000D03*
X152400000Y-66040000D03*
D13*
X164455000Y-78750000D03*
D14*
X163185000Y-78750000D03*
X164455000Y-77480000D03*
X163185000Y-77480000D03*
X164455000Y-76210000D03*
X163185000Y-76210000D03*
X164455000Y-74940000D03*
X163185000Y-74940000D03*
X164455000Y-73670000D03*
X163185000Y-73670000D03*
D12*
X157480000Y-66040000D03*
D11*
X160020000Y-66040000D03*
X162560000Y-66040000D03*
X165100000Y-66040000D03*
D15*
X163590000Y-82900000D03*
X163590000Y-94900000D03*
D16*
X158750000Y-85840000D03*
X161290000Y-86860000D03*
X158750000Y-87880000D03*
X161290000Y-88900000D03*
X158750000Y-89920000D03*
X161290000Y-90940000D03*
D17*
X157480000Y-78740000D03*
D11*
X154940000Y-78740000D03*
X157480000Y-76200000D03*
X154940000Y-76200000D03*
X157480000Y-73660000D03*
X154940000Y-73660000D03*
D10*
X146050000Y-83820000D03*
D11*
X148590000Y-83820000D03*
X146050000Y-86360000D03*
X148590000Y-86360000D03*
X146050000Y-88900000D03*
X148590000Y-88900000D03*
X146050000Y-91440000D03*
X148590000Y-91440000D03*
X146050000Y-93980000D03*
X148590000Y-93980000D03*
D12*
X134635000Y-68585000D03*
D11*
X134635000Y-66045000D03*
X137175000Y-68585000D03*
X137175000Y-66045000D03*
X139715000Y-68585000D03*
X139715000Y-66045000D03*
G36*
X163905212Y-78427842D02*
G01*
X163906000Y-78429433D01*
X163906000Y-79071633D01*
X163905000Y-79073365D01*
X163903000Y-79073365D01*
X163902081Y-79072196D01*
X163882405Y-79005184D01*
X163830062Y-78959829D01*
X163761509Y-78949972D01*
X163698462Y-78978765D01*
X163679514Y-79005331D01*
X163677694Y-79006161D01*
X163676719Y-79005794D01*
X163676329Y-79005514D01*
X163667444Y-79017878D01*
X163665621Y-79018701D01*
X163663997Y-79017534D01*
X163663972Y-79015946D01*
X163715276Y-78892087D01*
X163733983Y-78750000D01*
X163715276Y-78607913D01*
X163666217Y-78489473D01*
X163666478Y-78487490D01*
X163668326Y-78486725D01*
X163669713Y-78487575D01*
X163677472Y-78498864D01*
X163731422Y-78542765D01*
X163800249Y-78550496D01*
X163862328Y-78519790D01*
X163898038Y-78460253D01*
X163902016Y-78429179D01*
X163903228Y-78427588D01*
X163905212Y-78427842D01*
G37*
G36*
X163042913Y-78010276D02*
G01*
X163185000Y-78028983D01*
X163327087Y-78010276D01*
X163409489Y-77976144D01*
X163411472Y-77976405D01*
X163412237Y-77978253D01*
X163411153Y-77979779D01*
X163359595Y-78005710D01*
X163308777Y-78053204D01*
X163291776Y-78120345D01*
X163313772Y-78186015D01*
X163367960Y-78229513D01*
X163381969Y-78234131D01*
X163382279Y-78234262D01*
X163417005Y-78252648D01*
X163418068Y-78254343D01*
X163417132Y-78256110D01*
X163415304Y-78256264D01*
X163327087Y-78219724D01*
X163185000Y-78201017D01*
X163042913Y-78219724D01*
X162957563Y-78255077D01*
X162955580Y-78254816D01*
X162954815Y-78252968D01*
X162955881Y-78251452D01*
X163004002Y-78226615D01*
X163003818Y-78226258D01*
X163003912Y-78224260D01*
X163004599Y-78223606D01*
X163046886Y-78199323D01*
X163078767Y-78137836D01*
X163072345Y-78068878D01*
X163029590Y-78014249D01*
X162989165Y-77995275D01*
X162981989Y-77993393D01*
X162981542Y-77993216D01*
X162950144Y-77976168D01*
X162949099Y-77974462D01*
X162950053Y-77972705D01*
X162951863Y-77972562D01*
X163042913Y-78010276D01*
G37*
G36*
X164707304Y-77965705D02*
G01*
X164708069Y-77967553D01*
X164707452Y-77968753D01*
X164661733Y-78011482D01*
X164644732Y-78078623D01*
X164666728Y-78144293D01*
X164720814Y-78187709D01*
X164767948Y-78197038D01*
X164769453Y-78198355D01*
X164769065Y-78200317D01*
X164767560Y-78201000D01*
X164142562Y-78201000D01*
X164140830Y-78200000D01*
X164140830Y-78198000D01*
X164141999Y-78197081D01*
X164209011Y-78177405D01*
X164254366Y-78125062D01*
X164264223Y-78056509D01*
X164235405Y-77993407D01*
X164207194Y-77970729D01*
X164206471Y-77968864D01*
X164207724Y-77967305D01*
X164209212Y-77967322D01*
X164312913Y-78010276D01*
X164455000Y-78028983D01*
X164597087Y-78010276D01*
X164705321Y-77965444D01*
X164707304Y-77965705D01*
G37*
G36*
X163707126Y-77307952D02*
G01*
X163746629Y-77360254D01*
X163811626Y-77384179D01*
X163879236Y-77369167D01*
X163927969Y-77320016D01*
X163929898Y-77319490D01*
X163931319Y-77320898D01*
X163931237Y-77322189D01*
X163924724Y-77337913D01*
X163906017Y-77480000D01*
X163924724Y-77622087D01*
X163936686Y-77650967D01*
X163936425Y-77652950D01*
X163934577Y-77653715D01*
X163933230Y-77652921D01*
X163894662Y-77600731D01*
X163829921Y-77576125D01*
X163762156Y-77590428D01*
X163712713Y-77639262D01*
X163710980Y-77642906D01*
X163709333Y-77644041D01*
X163707527Y-77643182D01*
X163707326Y-77641282D01*
X163715276Y-77622087D01*
X163733983Y-77480000D01*
X163715276Y-77337913D01*
X163703682Y-77309922D01*
X163703943Y-77307939D01*
X163705791Y-77307174D01*
X163707126Y-77307952D01*
G37*
G36*
X164312913Y-76740276D02*
G01*
X164455000Y-76758983D01*
X164597087Y-76740276D01*
X164679489Y-76706144D01*
X164681472Y-76706405D01*
X164682237Y-76708253D01*
X164681153Y-76709779D01*
X164629595Y-76735710D01*
X164578777Y-76783204D01*
X164561776Y-76850345D01*
X164583772Y-76916015D01*
X164637960Y-76959513D01*
X164651969Y-76964131D01*
X164652279Y-76964262D01*
X164687005Y-76982648D01*
X164688068Y-76984343D01*
X164687132Y-76986110D01*
X164685304Y-76986264D01*
X164597087Y-76949724D01*
X164455000Y-76931017D01*
X164312913Y-76949724D01*
X164227563Y-76985077D01*
X164225580Y-76984816D01*
X164224815Y-76982968D01*
X164225881Y-76981452D01*
X164274002Y-76956615D01*
X164273818Y-76956258D01*
X164273912Y-76954260D01*
X164274599Y-76953606D01*
X164316886Y-76929323D01*
X164348767Y-76867836D01*
X164342345Y-76798878D01*
X164299590Y-76744249D01*
X164259165Y-76725275D01*
X164251989Y-76723393D01*
X164251542Y-76723216D01*
X164220144Y-76706168D01*
X164219099Y-76704462D01*
X164220053Y-76702705D01*
X164221863Y-76702562D01*
X164312913Y-76740276D01*
G37*
G36*
X163042913Y-76740276D02*
G01*
X163185000Y-76758983D01*
X163327087Y-76740276D01*
X163409489Y-76706144D01*
X163411472Y-76706405D01*
X163412237Y-76708253D01*
X163411153Y-76709779D01*
X163359595Y-76735710D01*
X163308777Y-76783204D01*
X163291776Y-76850345D01*
X163313772Y-76916015D01*
X163367960Y-76959513D01*
X163381969Y-76964131D01*
X163382279Y-76964262D01*
X163417005Y-76982648D01*
X163418068Y-76984343D01*
X163417132Y-76986110D01*
X163415304Y-76986264D01*
X163327087Y-76949724D01*
X163185000Y-76931017D01*
X163042913Y-76949724D01*
X162957563Y-76985077D01*
X162955580Y-76984816D01*
X162954815Y-76982968D01*
X162955881Y-76981452D01*
X163004002Y-76956615D01*
X163003818Y-76956258D01*
X163003912Y-76954260D01*
X163004599Y-76953606D01*
X163046886Y-76929323D01*
X163078767Y-76867836D01*
X163072345Y-76798878D01*
X163029590Y-76744249D01*
X162989165Y-76725275D01*
X162981989Y-76723393D01*
X162981542Y-76723216D01*
X162950144Y-76706168D01*
X162949099Y-76704462D01*
X162950053Y-76702705D01*
X162951863Y-76702562D01*
X163042913Y-76740276D01*
G37*
G36*
X163707126Y-76037952D02*
G01*
X163746629Y-76090254D01*
X163811626Y-76114179D01*
X163879236Y-76099167D01*
X163927969Y-76050016D01*
X163929898Y-76049490D01*
X163931319Y-76050898D01*
X163931237Y-76052189D01*
X163924724Y-76067913D01*
X163906017Y-76210000D01*
X163924724Y-76352087D01*
X163936686Y-76380967D01*
X163936425Y-76382950D01*
X163934577Y-76383715D01*
X163933230Y-76382921D01*
X163894662Y-76330731D01*
X163829921Y-76306125D01*
X163762156Y-76320428D01*
X163712713Y-76369262D01*
X163710980Y-76372906D01*
X163709333Y-76374041D01*
X163707527Y-76373182D01*
X163707326Y-76371282D01*
X163715276Y-76352087D01*
X163733983Y-76210000D01*
X163715276Y-76067913D01*
X163703682Y-76039922D01*
X163703943Y-76037939D01*
X163705791Y-76037174D01*
X163707126Y-76037952D01*
G37*
G36*
X164312913Y-75470276D02*
G01*
X164455000Y-75488983D01*
X164597087Y-75470276D01*
X164679489Y-75436144D01*
X164681472Y-75436405D01*
X164682237Y-75438253D01*
X164681153Y-75439779D01*
X164629595Y-75465710D01*
X164578777Y-75513204D01*
X164561776Y-75580345D01*
X164583772Y-75646015D01*
X164637960Y-75689513D01*
X164651969Y-75694131D01*
X164652279Y-75694262D01*
X164687005Y-75712648D01*
X164688068Y-75714343D01*
X164687132Y-75716110D01*
X164685304Y-75716264D01*
X164597087Y-75679724D01*
X164455000Y-75661017D01*
X164312913Y-75679724D01*
X164227563Y-75715077D01*
X164225580Y-75714816D01*
X164224815Y-75712968D01*
X164225881Y-75711452D01*
X164274002Y-75686615D01*
X164273818Y-75686258D01*
X164273912Y-75684260D01*
X164274599Y-75683606D01*
X164316886Y-75659323D01*
X164348767Y-75597836D01*
X164342345Y-75528878D01*
X164299590Y-75474249D01*
X164259165Y-75455275D01*
X164251989Y-75453393D01*
X164251542Y-75453216D01*
X164220144Y-75436168D01*
X164219099Y-75434462D01*
X164220053Y-75432705D01*
X164221863Y-75432562D01*
X164312913Y-75470276D01*
G37*
G36*
X163042913Y-75470276D02*
G01*
X163185000Y-75488983D01*
X163327087Y-75470276D01*
X163409489Y-75436144D01*
X163411472Y-75436405D01*
X163412237Y-75438253D01*
X163411153Y-75439779D01*
X163359595Y-75465710D01*
X163308777Y-75513204D01*
X163291776Y-75580345D01*
X163313772Y-75646015D01*
X163367960Y-75689513D01*
X163381969Y-75694131D01*
X163382279Y-75694262D01*
X163417005Y-75712648D01*
X163418068Y-75714343D01*
X163417132Y-75716110D01*
X163415304Y-75716264D01*
X163327087Y-75679724D01*
X163185000Y-75661017D01*
X163042913Y-75679724D01*
X162957563Y-75715077D01*
X162955580Y-75714816D01*
X162954815Y-75712968D01*
X162955881Y-75711452D01*
X163004002Y-75686615D01*
X163003818Y-75686258D01*
X163003912Y-75684260D01*
X163004599Y-75683606D01*
X163046886Y-75659323D01*
X163078767Y-75597836D01*
X163072345Y-75528878D01*
X163029590Y-75474249D01*
X162989165Y-75455275D01*
X162981989Y-75453393D01*
X162981542Y-75453216D01*
X162950144Y-75436168D01*
X162949099Y-75434462D01*
X162950053Y-75432705D01*
X162951863Y-75432562D01*
X163042913Y-75470276D01*
G37*
G36*
X163707126Y-74767952D02*
G01*
X163746629Y-74820254D01*
X163811626Y-74844179D01*
X163879236Y-74829167D01*
X163927969Y-74780016D01*
X163929898Y-74779490D01*
X163931319Y-74780898D01*
X163931237Y-74782189D01*
X163924724Y-74797913D01*
X163906017Y-74940000D01*
X163924724Y-75082087D01*
X163936686Y-75110967D01*
X163936425Y-75112950D01*
X163934577Y-75113715D01*
X163933230Y-75112921D01*
X163894662Y-75060731D01*
X163829921Y-75036125D01*
X163762156Y-75050428D01*
X163712713Y-75099262D01*
X163710980Y-75102906D01*
X163709333Y-75104041D01*
X163707527Y-75103182D01*
X163707326Y-75101282D01*
X163715276Y-75082087D01*
X163733983Y-74940000D01*
X163715276Y-74797913D01*
X163703682Y-74769922D01*
X163703943Y-74767939D01*
X163705791Y-74767174D01*
X163707126Y-74767952D01*
G37*
G36*
X164312913Y-74200276D02*
G01*
X164455000Y-74218983D01*
X164597087Y-74200276D01*
X164679489Y-74166144D01*
X164681472Y-74166405D01*
X164682237Y-74168253D01*
X164681153Y-74169779D01*
X164629595Y-74195710D01*
X164578777Y-74243204D01*
X164561776Y-74310345D01*
X164583772Y-74376015D01*
X164637960Y-74419513D01*
X164651969Y-74424131D01*
X164652279Y-74424262D01*
X164687005Y-74442648D01*
X164688068Y-74444343D01*
X164687132Y-74446110D01*
X164685304Y-74446264D01*
X164597087Y-74409724D01*
X164455000Y-74391017D01*
X164312913Y-74409724D01*
X164227563Y-74445077D01*
X164225580Y-74444816D01*
X164224815Y-74442968D01*
X164225881Y-74441452D01*
X164274002Y-74416615D01*
X164273818Y-74416258D01*
X164273912Y-74414260D01*
X164274599Y-74413606D01*
X164316886Y-74389323D01*
X164348767Y-74327836D01*
X164342345Y-74258878D01*
X164299590Y-74204249D01*
X164259165Y-74185275D01*
X164251989Y-74183393D01*
X164251542Y-74183216D01*
X164220144Y-74166168D01*
X164219099Y-74164462D01*
X164220053Y-74162705D01*
X164221863Y-74162562D01*
X164312913Y-74200276D01*
G37*
G36*
X163042913Y-74200276D02*
G01*
X163185000Y-74218983D01*
X163327087Y-74200276D01*
X163409489Y-74166144D01*
X163411472Y-74166405D01*
X163412237Y-74168253D01*
X163411153Y-74169779D01*
X163359595Y-74195710D01*
X163308777Y-74243204D01*
X163291776Y-74310345D01*
X163313772Y-74376015D01*
X163367960Y-74419513D01*
X163381969Y-74424131D01*
X163382279Y-74424262D01*
X163417005Y-74442648D01*
X163418068Y-74444343D01*
X163417132Y-74446110D01*
X163415304Y-74446264D01*
X163327087Y-74409724D01*
X163185000Y-74391017D01*
X163042913Y-74409724D01*
X162957563Y-74445077D01*
X162955580Y-74444816D01*
X162954815Y-74442968D01*
X162955881Y-74441452D01*
X163004002Y-74416615D01*
X163003818Y-74416258D01*
X163003912Y-74414260D01*
X163004599Y-74413606D01*
X163046886Y-74389323D01*
X163078767Y-74327836D01*
X163072345Y-74258878D01*
X163029590Y-74204249D01*
X162989165Y-74185275D01*
X162981989Y-74183393D01*
X162981542Y-74183216D01*
X162950144Y-74166168D01*
X162949099Y-74164462D01*
X162950053Y-74162705D01*
X162951863Y-74162562D01*
X163042913Y-74200276D01*
G37*
G36*
X163707126Y-73497952D02*
G01*
X163746629Y-73550254D01*
X163811626Y-73574179D01*
X163879236Y-73559167D01*
X163927969Y-73510016D01*
X163929898Y-73509490D01*
X163931319Y-73510898D01*
X163931237Y-73512189D01*
X163924724Y-73527913D01*
X163906017Y-73670000D01*
X163924724Y-73812087D01*
X163936686Y-73840967D01*
X163936425Y-73842950D01*
X163934577Y-73843715D01*
X163933230Y-73842921D01*
X163894662Y-73790731D01*
X163829921Y-73766125D01*
X163762156Y-73780428D01*
X163712713Y-73829262D01*
X163710980Y-73832906D01*
X163709333Y-73834041D01*
X163707527Y-73833182D01*
X163707326Y-73831282D01*
X163715276Y-73812087D01*
X163733983Y-73670000D01*
X163715276Y-73527913D01*
X163703682Y-73499922D01*
X163703943Y-73497939D01*
X163705791Y-73497174D01*
X163707126Y-73497952D01*
G37*
M02*
